<?xml version="1.0" standalone="no"?>
<!DOCTYPE svg PUBLIC "-//W3C//DTD SVG 1.1//EN" "http://www.w3.org/Graphics/SVG/1.1/DTD/svg11.dtd" >
<svg>
<metadata>
Created by FontForge 20090914 at Fri Feb  7 04:17:25 2014
 By www-data
Copyright (c) 2012, vernon adams (vern@newtypography.co.uk), with Reserved Font Names 'Monda'
</metadata>
<defs>
<font id="Monda-Regular" horiz-adv-x="1250" >
  <font-face 
    font-family="Monda"
    font-weight="400"
    font-stretch="normal"
    units-per-em="2048"
    panose-1="2 0 5 3 0 0 0 0 0 0"
    ascent="1638"
    descent="-410"
    x-height="1060"
    cap-height="1446"
    bbox="-206 -756 2692.01 2106"
    underline-thickness="0"
    underline-position="0"
    unicode-range="U+0020-U+FB04"
  />
<missing-glyph horiz-adv-x="748" 
d="M68 0v1365h544v-1365h-544zM136 68h408v1229h-408v-1229z" />
    <glyph glyph-name="uniFB01" unicode="fi" horiz-adv-x="1386" 
d="M996 1251v195h188v-195h-188zM287 0v918h-177v142h177v162c0 98 26.833 169.667 80.5 215s135.5 68 245.5 68h119l12 -133h-116c-102 0 -153 -44 -153 -132v-180h709v-1060h-188v918h-521v-918h-188z" />
    <glyph glyph-name="uniFB02" unicode="fl" horiz-adv-x="1486" 
d="M1320 -8c-62 0 -112.666 4.66602 -151.999 13.999s-74 27 -104 53c-56 48.667 -84 148.334 -84 299.001v1014h-352c-102 0 -153 -44.333 -153 -133v-179h257v-142h-257v-918h-188v918h-177v142h177v161c0 98 26.833 169.833 80.5 215.5s135.5 68.5 245.5 68.5h555v-1149
c0 -85.333 12.667 -141 38 -167s77.666 -39 156.999 -39h33l-22 -158h-54z" />
    <glyph glyph-name=".notdef" horiz-adv-x="748" 
d="M68 0v1365h544v-1365h-544zM136 68h408v1229h-408v-1229z" />
    <glyph glyph-name="space" unicode=" " horiz-adv-x="512" 
 />
    <glyph glyph-name="exclam" unicode="!" horiz-adv-x="768" 
d="M280 0v206h204v-206h-204zM353 371c-44.667 460 -67 818.332 -67 1075h202c0 -209.333 -26.333 -567.666 -79 -1075h-56z" />
    <glyph glyph-name="quotedbl" unicode="&#x22;" horiz-adv-x="890" 
d="M220 930l-44 576h205l-49 -576h-112zM553 930l-44 576h205l-49 -576h-112z" />
    <glyph glyph-name="numbersign" unicode="#" horiz-adv-x="1284" 
d="M180 0l87 475h-181v119h203l57 316h-236v119h258l76 417h170l-74 -417h301l76 417h170l-74 -417h185v-119h-206l-56 -316h238v-119h-259l-84 -475h-178l87 475h-298l-84 -475h-178zM463 594h299l57 316h-300z" />
    <glyph glyph-name="dollar" unicode="$" horiz-adv-x="1303" 
d="M1164 406c0 -273.333 -144.666 -415.667 -433.999 -427v-221h-110v222c-180 9.33301 -338.667 53.666 -476 132.999l71 154c60 -35.333 127.167 -63.666 201.5 -84.999s142.166 -34.333 203.499 -39v537l-167 56c-68.667 22.667 -123 48.5 -163 77.5
s-69.833 65.667 -89.5 110s-29.5 96.666 -29.5 156.999s8 111.833 24 154.5c55.333 147.333 197 224.666 425 231.999v171h110v-171c178.667 -7.33301 315.667 -40.666 411 -99.999l-49 -157c-108 58.667 -228.667 90.334 -362 95.001v-471l149 -50
c68.667 -24 123 -50.667 163 -80c81.333 -60 122 -159.333 122 -298zM620.001 871.999v432.001c-69.333 -4.66699 -124.333 -17.334 -165 -38.001c-54 -26.667 -83 -69.667 -87 -129c-1.33301 -19.333 -2 -36 -2 -50c0 -48 10.167 -85 30.5 -111s59.833 -49 118.5 -69z
M730.001 644v-503.002c40 2 74 7 102 15c72 20.667 116.667 69.334 134 146.001c8 35.333 12 75.333 12 120s-6.66699 78.334 -20 101.001c-22 38 -74 70.333 -156 97z" />
    <glyph glyph-name="percent" unicode="%" horiz-adv-x="2048" 
d="M470 794c76 0 123.335 33 142.002 99c10.667 36 15.667 85 15 147v93c0 98.667 -12.833 162 -38.5 190s-58.834 42 -99.501 42c-40.667 0.666992 -70.667 -3 -90 -11c-36.667 -14.667 -59.834 -40.167 -69.501 -76.5s-14.5 -83.833 -14.5 -142.5v-95
c0 -100 12.833 -166 38.5 -198s64.5 -48 116.5 -48zM703.002 775.5c-46 -65 -123.499 -97.5 -232.499 -97.5s-186 32.5 -231 97.5s-67.5 158.833 -67.5 281.5v53c0 124 22.167 216.833 66.5 278.5s122.166 92.5 233.499 92.5s188.833 -31.667 232.5 -95
s66.167 -155 67.5 -275v-54c0 -122.667 -23 -216.5 -69 -281.5zM1574 97c76 0 123.335 33 142.002 99c10.667 36 15.667 85 15 147v93c0 98.667 -12.833 162 -38.5 190s-58.834 42 -99.501 42s-70.667 -4 -90 -12c-36.667 -14.667 -59.834 -40 -69.501 -76
s-14.5 -83.333 -14.5 -142v-95c0 -100 12.833 -166 38.5 -198s64.5 -48 116.5 -48zM1807 78.5c-46 -65 -123.499 -97.5 -232.499 -97.5s-186 32.5 -231 97.5s-67.5 158.833 -67.5 281.5v53c0 124 22.167 216.833 66.5 278.5s122.166 92.5 233.499 92.5
s188.833 -31.667 232.5 -95s66.167 -155 67.5 -275v-54c0 -122.667 -23 -216.5 -69 -281.5zM668.006 0l543 1446h149l-538 -1446h-154z" />
    <glyph glyph-name="ampersand" unicode="&#x26;" horiz-adv-x="1500" 
d="M176 436c0 105.333 20.166 188.002 60.499 248.002s107.833 104 202.5 132c-42 38 -73.667 69.667 -95 95c-53.333 62.667 -80 139.667 -80 231c0 227.333 141.667 341 425 341c120.667 0 206.334 -7.83301 257.001 -23.5s86.667 -33.834 108 -54.501
c46.667 -44 70 -110.667 70 -200v-101h-166v60c0 67.333 -18 112 -54 134s-91 33 -165 33s-128 -5 -162 -15s-63 -28.667 -87 -56s-36 -65.833 -36 -115.5s8.66699 -89.167 26 -118.5s50 -69 98 -119l522 -497c0.666992 9.33301 1 24.333 1 45v323h175v-278
c0 -106.667 -6.33301 -186.334 -19 -239.001l175 -167l-104 -113l-142 133c-80 -92 -238 -138 -474 -138c-357.333 0 -536 153.333 -536 460zM455.999 205.002c52 -52.667 135 -78.999 249 -78.999s196.167 6.33301 246.5 19s87.5 41 111.5 85l-525 493
c-98 -26.667 -150.667 -95.334 -158 -206.001c-1.33301 -19.333 -2 -43.333 -2 -72c0 -107.333 26 -187.333 78 -240z" />
    <glyph glyph-name="quotesingle" unicode="'" horiz-adv-x="896" 
d="M223 930l-44 576h205l-49 -576h-112z" />
    <glyph glyph-name="parenleft" unicode="(" horiz-adv-x="768" 
d="M644 -150c-91.333 0 -174.331 13.001 -248.998 39.001c-46 16 -93 51.667 -141 107c-24 27.333 -43.333 71.166 -58 131.499s-22.334 116.5 -23.001 168.5s-1 100 -1 144v519c0 134.667 3.33301 218.167 10 250.5s13.667 64 21 95s17 55.667 29 74s26.333 39 43 62
s36.667 41 60 54s56.166 28.333 98.499 46s112.5 26.5 210.5 26.5v-151c-117.333 0 -193 -28.667 -227 -86c-13.333 -22.667 -25.5 -47.667 -36.5 -75s-16.5 -113.666 -16.5 -258.999v-587c0 -143.333 5.33301 -228.333 16 -255c26.667 -64.667 55.667 -104.334 87 -119.001
c50 -23.333 109 -35 177 -35v-150z" />
    <glyph glyph-name="parenright" unicode=")" horiz-adv-x="768" 
d="M124 -150l-0.00195312 150.998c117.333 -0.666992 193 27.666 227 84.999c13.333 22.667 25.5 47.834 36.5 75.501s16.5 114.167 16.5 259.5v587c0 143.333 -5.33301 228.333 -16 255c-26.667 64.667 -55.667 104.334 -87 119.001c-50 23.333 -109 35 -177 35v150
c91.333 0 174.333 -13 249 -39c46 -16 93 -51.667 141 -107c24 -27.333 43.333 -71.166 58 -131.499s22.334 -116.5 23.001 -168.5s1 -100 1 -144v-519c0 -134.667 -3.33301 -218.167 -10 -250.5s-13.667 -64 -21 -95s-17 -55.667 -29 -74s-26.333 -39 -43 -62
s-36.667 -41 -60 -54s-56.166 -28.333 -98.499 -46s-112.5 -26.5 -210.5 -26.5z" />
    <glyph glyph-name="asterisk" unicode="*" horiz-adv-x="1024" 
d="M423 599l29 325l-273 -174l-80 161l290 117l-280 142l95 153l247 -190l-28 313h178l-30 -325l273 174l81 -161l-291 -117l280 -142l-95 -153l-247 190l29 -313h-178z" />
    <glyph glyph-name="plus" unicode="+" horiz-adv-x="1024" 
d="M437 156v338h-275v148h275v326h151v-326h274v-148h-274v-338h-151z" />
    <glyph glyph-name="comma" unicode="," horiz-adv-x="641" 
d="M277 -338l-80.999 43.999c65.333 78.667 106.666 146 123.999 202c9.33301 30.667 13.666 61.334 12.999 92.001h-141v233h257v-183c0 -115.333 -40 -225.333 -120 -330c-17.333 -22.667 -34.666 -42 -51.999 -58z" />
    <glyph glyph-name="hyphen" unicode="-" horiz-adv-x="1024" 
d="M162 494v148h700v-148h-700z" />
    <glyph glyph-name="period" unicode="." horiz-adv-x="628" 
d="M186 0v242h256v-242h-256z" />
    <glyph glyph-name="slash" unicode="/" horiz-adv-x="768" 
d="M521 1506h183l-453 -1506h-187z" />
    <glyph glyph-name="zero" unicode="0" 
d="M630 140c75.333 0 130.666 12.334 165.999 37.001c19.333 13.333 36 27 50 41c47.333 47.333 71 158 71 332v282c0 117.333 -4.66699 200.666 -14 249.999c-27.333 149.333 -112.666 224 -255.999 224c-124 0 -207.667 -38 -251 -114
c-26.667 -46.667 -43.667 -99.5 -51 -158.5s-11 -131.5 -11 -217.5v-197c0 -142.667 10 -243.667 30 -303c40 -117.333 128.667 -176 266 -176zM773 -7.99902c-42 -9.33301 -92.501 -14.001 -151.501 -14.001s-114.833 7.33301 -167.5 22
c-102 28.667 -175.5 76.834 -220.5 144.501s-73.167 141.5 -84.5 221.5s-17 170 -17 270v154c0 140 5.33301 234.333 16 283c22.667 101.333 48.334 172.666 77.001 213.999c84 120.667 211.667 181 383 181c204 0 341.333 -59 412 -177c43.333 -71.333 70.5 -148 81.5 -230
s16.5 -176.667 16.5 -284v-127c0 -134.667 -5.16699 -226.667 -15.5 -276s-21.333 -91.333 -33 -126s-25.667 -64.167 -42 -88.5s-36.833 -48.666 -61.5 -72.999s-52.5 -43.833 -83.5 -58.5s-67.5 -26.667 -109.5 -36z" />
    <glyph glyph-name="one" unicode="1" 
d="M206 0v155h401v1122l-374 -40l-18 159l429 50h164v-1291h354v-155h-956z" />
    <glyph glyph-name="two" unicode="2" 
d="M231 0l-19 158.001l488 531c88.667 96 139.167 155.167 151.5 177.5s24.333 46.833 36 73.5s17.5 65.667 17.5 117c0 91.333 -19.333 155.666 -58 192.999s-103 56 -193 56c-56 0 -101 -3.66699 -135 -11s-63.333 -21.333 -88 -42c-44 -36.667 -66 -113 -66 -229h-201
c0 296 158.333 444 475 444c152 0 266 -38.5 342 -115.5s114 -170.5 114 -280.5s-19.833 -196 -59.5 -258s-80.5 -114.833 -122.5 -158.5s-65.667 -68.5 -71 -74.5l-401 -425h646v-156h-856z" />
    <glyph glyph-name="three" unicode="3" 
d="M909 1088c0 145.333 -75.6641 218.002 -226.997 218.002c-78.667 0 -133.334 -7.33301 -164.001 -22s-52.667 -32.334 -66 -53.001c-28 -44 -42 -112.667 -42 -206h-192c0 122 20.667 215.167 62 279.5s95.166 107.666 161.499 129.999s144.166 33.5 233.499 33.5
c130 0 232.833 -31.167 308.5 -93.5s113.5 -156.833 113.5 -283.5c0 -97.333 -18.167 -172.166 -54.5 -224.499s-95.5 -85.166 -177.5 -98.499c87.333 -18 152.666 -55 195.999 -111s65 -147.333 65 -274s-38.667 -225.834 -116 -297.501s-187.666 -107.5 -330.999 -107.5
c-108.667 0 -194.834 14.333 -258.501 43s-112.167 75.334 -145.5 140.001s-55.666 154.667 -66.999 270h192c8 -118.667 33.667 -197.334 77 -236.001c24 -21.333 52.333 -35.833 85 -43.5s75.334 -11.5 128.001 -11.5c84.667 0 146.667 21.667 186 65
s59 115.666 59 216.999s-18.5 168.5 -55.5 201.5s-82.333 52.5 -136 58.5s-105.834 9 -156.501 9v149c106.667 0 178.667 8.66699 216 26s64.333 38.5 81 63.5s25 77.833 25 158.5z" />
    <glyph glyph-name="four" unicode="4" 
d="M783 0v351h-640v157l529 938h209l-514 -940h416v331h167v-331h212v-155h-212v-351h-167z" />
    <glyph glyph-name="five" unicode="5" 
d="M406 819c67.333 61.333 155.001 92.001 263.001 92.001c146.667 0 258 -40.667 334 -122s114 -193.5 114 -336.5s-44.5 -257.833 -133.5 -344.5s-206.167 -130 -351.5 -130c-69.333 0 -135 7.16699 -197 21.5s-110.333 29.5 -145 45.5s-73.667 36.667 -117 62l53 153
c41.333 -27.333 76.666 -48.333 105.999 -63c76 -38 173.333 -57 292 -57c146 0 240.333 57.333 283 172c14 37.333 21 79.666 21 126.999c0 101.333 -23 180.5 -69 237.5s-117.333 85.5 -214 85.5c-46.667 0 -88.167 -8.16699 -124.5 -24.5s-82.5 -44.833 -138.5 -85.5
l-146 60l51 734h737v-165h-576z" />
    <glyph glyph-name="six" unicode="6" 
d="M833 1446l-357.001 -605c56 24.667 115.333 37 178 37c154.667 0 273 -36.167 355 -108.5s123 -188.166 123 -347.499c0 -222.667 -97.333 -362.334 -292 -419.001c-57.333 -16.667 -121.666 -25 -192.999 -25c-145.333 0 -259.833 36.333 -343.5 109
s-125.5 183.667 -125.5 333s47 308.333 141 477l314 549h200zM435.999 649.5c-47.333 -43.667 -71 -118.999 -71 -225.999s23.167 -181 69.5 -222s118.333 -61.5 216 -61.5s171.167 20.5 220.5 61.5s74 117.667 74 230s-25.667 187.666 -77 225.999s-124.333 57.5 -219 57.5
s-165.667 -21.833 -213 -65.5z" />
    <glyph glyph-name="seven" unicode="7" 
d="M369 0l500 1291h-680v155h881v-157l-490 -1289h-211z" />
    <glyph glyph-name="eight" unicode="8" 
d="M985.5 76c-88.333 -65.333 -209.168 -98.002 -362.501 -98.002s-273.5 32.667 -360.5 98s-130.5 162.333 -130.5 291c0 180 102 315.333 306 406c-83.333 38.667 -143.5 75.334 -180.5 110.001s-62.5 69.667 -76.5 105s-21 80.333 -21 135s12 105.667 36 153
c24 48 58 85.667 102 113c84 52.667 192.833 79 326.5 79s244.667 -27.667 333 -83s132.5 -147.666 132.5 -276.999c0 -89.333 -25.667 -158 -77 -206s-118.666 -91 -201.999 -129c204.667 -90.667 307 -226 307 -406c0 -128.667 -44.167 -225.667 -132.5 -291z
M399.498 193.498c51 -35.667 126.167 -53.498 225.5 -53.498s174.5 17.833 225.5 53.5s76.5 93.167 76.5 172.5s-27.833 142.166 -83.5 188.499s-128.5 91.166 -218.5 134.499c-92 -44.667 -157.833 -83.667 -197.5 -117s-67 -65.5 -82 -96.5s-22.5 -65.5 -22.5 -103.5
c0 -83.333 25.5 -142.833 76.5 -178.5zM624.998 846c104.667 52 165.832 85.999 183.499 101.999s36.5 35.333 56.5 58s30 61.334 30 116.001s-21 99 -63 133s-111 51 -207 51s-165 -17 -207 -51s-63 -83.333 -63 -148c0.666992 -83.333 62.334 -156.333 185.001 -219z" />
    <glyph glyph-name="nine" unicode="9" 
d="M452 0l357.001 605c-56 -24.667 -115.333 -37 -178 -37c-154.667 0 -273.167 36.167 -355.5 108.5s-123.5 188.166 -123.5 347.499c-0.666992 222.667 97 362.334 293 419.001c57.333 16.667 121.666 25 192.999 25c145.333 0 259.833 -36.333 343.5 -109
s125.5 -183.667 125.5 -333s-47 -308.333 -141 -477l-314 -549h-200zM849.001 796.5c47.333 43.667 71.001 118.999 71.001 225.999s-23.167 181 -69.5 222s-118.333 61.5 -216 61.5s-171.334 -20.5 -221.001 -61.5s-74.5 -117.667 -74.5 -230s25.667 -187.666 77 -225.999
s124.5 -57.5 219.5 -57.5s166.167 21.833 213.5 65.5z" />
    <glyph glyph-name="colon" unicode=":" horiz-adv-x="768" 
d="M256 818v242h256v-242h-256zM256 99v242h256v-242h-256z" />
    <glyph glyph-name="semicolon" unicode=";" horiz-adv-x="768" 
d="M349 -128l-80.999 43.999c65.333 78.667 106.666 146 123.999 202c9.33301 30.667 13.666 61.334 12.999 92.001h-141v233h257v-183c0 -115.333 -40 -225.333 -120 -330c-17.333 -22.667 -34.666 -42 -51.999 -58zM248.001 817.999v242h256v-242h-256z" />
    <glyph glyph-name="less" unicode="&#x3c;" 
d="M1042 0l-886 471v201l886 472v-203l-731 -368l731 -364v-209z" />
    <glyph glyph-name="equal" unicode="=" 
d="M224 467v148h802v-148h-802zM224 805v148h802v-148h-802z" />
    <glyph glyph-name="greater" unicode="&#x3e;" 
d="M208 0v203l731 368l-731 364v209l886 -471v-201z" />
    <glyph glyph-name="question" unicode="?" horiz-adv-x="1240" 
d="M466 431l274 364c77.333 104 122 180.333 134 229c6 24.667 9 51 9 79c0 65.333 -16.667 115.5 -50 150.5s-96.666 52.5 -189.999 52.5s-161.166 -18 -203.499 -54s-63.5 -89.333 -63.5 -160v-53h-197v32c0 148.667 36.167 252 108.5 310s198.666 87 378.999 87
s305.166 -53.333 374.499 -160c36.667 -56 55 -113.333 55 -172s-5.66699 -107.167 -17 -145.5s-34 -82.5 -68 -132.5s-93 -119.333 -177 -208l-208 -219h-160zM440 0v206h204v-206h-204z" />
    <glyph glyph-name="at" unicode="@" horiz-adv-x="2048" 
d="M1419 -228c-105.333 -20 -216.836 -30 -334.503 -30s-225.167 14.833 -322.5 44.5s-174.666 71.5 -231.999 125.5c-112 105.333 -168 245.333 -168 420v563c0 224.667 73.333 384.334 220 479.001c112.667 72 272.667 108.333 480 109c124.667 0 215 -8.83301 271 -26.5
s99.333 -33.334 130 -47.001s56.667 -30.834 78 -51.501s40 -40 56 -58s33.167 -51.667 51.5 -101s27.5 -125 27.5 -227v-493c0 -45.333 4.66699 -74.666 14 -87.999s21.833 -21.833 37.5 -25.5s37.167 -5.5 64.5 -5.5l-20 -148h-40c-82.667 0 -139.667 24 -171 72
c-16 24 -29.333 54.667 -40 92c-32 -48 -82 -90.167 -150 -126.5s-156.667 -54.5 -266 -54.5s-196.833 32.167 -262.5 96.5s-98.5 144.833 -98.5 241.5c0 65.333 12.833 115.333 38.5 150s55.167 62 88.5 82c71.333 42.667 193.333 85 366 127s259.334 63 260.001 63
c0 116 -15.333 197.167 -46 243.5s-76.667 80 -138 101s-145 31.5 -251 31.5c-171.333 0 -299.166 -31 -383.499 -93s-126.5 -162.667 -126.5 -302v-638c0 -138 48.5 -240.667 145.5 -308s232.5 -101 406.5 -101c99.333 0 196 9.5 290 28.5s169.667 40.833 227 65.5l50 -141
c-62.667 -26.667 -146.667 -50 -252 -70zM945.997 539c0 -130.667 69.999 -195.997 209.999 -195.997c66.667 0 136.334 17 209.001 51s116.667 76.667 132 128v303c-8.66699 -4 -76.334 -22.333 -203.001 -55s-209.667 -59.334 -249 -80.001
s-65.666 -42.334 -78.999 -65.001s-20 -51.334 -20 -86.001z" />
    <glyph glyph-name="A" unicode="A" horiz-adv-x="1428" 
d="M86 0l539 1446h177l540 -1446h-205l-98 282h-645l-99 -282h-209zM442 425h551l-274 791z" />
    <glyph glyph-name="B" unicode="B" horiz-adv-x="1420" 
d="M218 0l-0.000976562 1446h524c224 0 366 -49.667 426 -149c36 -59.333 54 -142 54 -248c-3.33301 -143.333 -64 -235.333 -182 -276c82.667 -18.667 145.334 -60 188.001 -124s64 -143.333 64 -238c0 -143.333 -40.333 -247.666 -121 -312.999s-209 -98 -385 -98h-568z
M419.999 148.999h351c113.333 0 195.5 18.333 246.5 55s76.5 113 76.5 229c0 175.333 -91.333 263 -274 263h-400v-547zM419.999 832.999h371c86 0 145.833 18 179.5 54s50.5 85 50.5 147s-4.5 108.667 -13.5 140s-26 56.333 -51 75s-56 31 -93 37s-87.833 9 -152.5 9h-291
v-462z" />
    <glyph glyph-name="C" unicode="C" horiz-adv-x="1456" 
d="M225 219.5c-28.667 73.667 -43.0029 162.499 -43.0029 266.499v454c0 210.667 54.667 354.334 164 431.001c92.667 64.667 227.5 97 404.5 97s305.5 -24.5 385.5 -73.5s130 -125.833 150 -230.5c9.33301 -46.667 14 -102.334 14 -167.001l-191 -17
c0 97.333 -8.33301 163.166 -25 197.499s-33.167 58.833 -49.5 73.5s-43.166 27.5 -80.499 38.5s-95.666 16.5 -174.999 16.5s-141.666 -5.33301 -186.999 -16c-45.333 -10 -84 -27.333 -116 -52c-61.333 -47.333 -92 -134.333 -92 -261v-522
c0 -125.333 31 -209.166 93 -251.499s160.833 -63.5 296.5 -63.5s222.167 16 259.5 48s60.333 78.667 69 140c4.66699 33.333 7 73.333 7 120h191c0 -145.333 -21 -247.333 -63 -306c-77.333 -109.333 -224.333 -164 -441 -164c-182 0 -315.5 21.833 -400.5 65.5
s-141.833 102.334 -170.5 176.001z" />
    <glyph glyph-name="D" unicode="D" horiz-adv-x="1522" 
d="M420 150l354 0.000976562c145.333 0 242.5 27 291.5 81s73.5 131 73.5 231v509c0 147.333 -49.333 243 -148 287c-56 25.333 -128.333 37.666 -217 36.999h-354v-1145zM218 0.000976562l-0.000976562 1446h574c276.667 0 449.334 -98 518.001 -294
c20 -57.333 30 -121.666 30 -192.999v-477c0 -158 -45.5 -277.833 -136.5 -359.5s-227.5 -122.5 -409.5 -122.5h-576z" />
    <glyph glyph-name="E" unicode="E" horiz-adv-x="1255" 
d="M218 0v1446h903v-150h-702v-476h620v-150h-620v-520h714v-150h-915z" />
    <glyph glyph-name="F" unicode="F" horiz-adv-x="1159" 
d="M218 0v1446h821v-150h-620v-482h584v-150h-584v-664h-201z" />
    <glyph glyph-name="G" unicode="G" horiz-adv-x="1556" 
d="M788 -22c-269.333 0 -445.665 66.665 -528.998 199.998c-48.667 78 -73 180.667 -73 308v454c0 206 60 349.667 180 431c95.333 64.667 229.333 97 402 97s299.167 -19.5 379.5 -58.5s133.166 -91 158.499 -156s38 -144.167 38 -237.5l-184 -15
c0 94 -9.16699 156.833 -27.5 188.5s-36 54.167 -53 67.5s-45.667 24.833 -86 34.5s-101.333 14.5 -183 14.5s-145.834 -5.33301 -192.501 -16c-46.667 -10 -88 -27.333 -124 -52c-70.667 -48.667 -106 -135.667 -106 -261v-522c0 -125.333 33.667 -209.166 101 -251.499
s166.5 -63.5 297.5 -63.5s225.667 20.833 284 62.5s87.5 125.834 87.5 252.501v133h-343v147h545v-735h-110l-25 246c-12.667 -83.333 -54.5 -148.833 -125.5 -196.5s-174.833 -71.5 -311.5 -71.5z" />
    <glyph glyph-name="H" unicode="H" horiz-adv-x="1528" 
d="M212 0v1446h201v-639h702v639h201v-1446h-201v659h-702v-659h-201z" />
    <glyph glyph-name="I" unicode="I" horiz-adv-x="1132" 
d="M190 0v150h276v1147h-276v149h752v-149h-275v-1147h275v-150h-752z" />
    <glyph glyph-name="J" unicode="J" horiz-adv-x="1206" 
d="M522 -17c-76.667 0 -156.333 9.5 -239 28.5s-143 38.5 -181 58.5l55 155c34 -16 86.333 -32.833 157 -50.5s138 -26.5 202 -26.5c94 0 162.667 24 206 72s65 119.667 65 215v846h-553v165h754v-1015c0 -142 -38.167 -252.167 -114.5 -330.5s-193.5 -117.5 -351.5 -117.5z
" />
    <glyph glyph-name="K" unicode="K" horiz-adv-x="1418" 
d="M218 0v1446h201v-789l384.5 448l299.5 341h218l-543 -648l572 -798h-223l-490 690l-218 -222v-468h-201z" />
    <glyph glyph-name="L" unicode="L" horiz-adv-x="1145" 
d="M218 0v1446h201v-1291h649v-155h-850z" />
    <glyph glyph-name="M" unicode="M" horiz-adv-x="1778" 
d="M218 0v1446h185l487 -808l492 808h178v-1446h-190v1121l-405 -663h-149l-406 659v-1117h-192z" />
    <glyph glyph-name="N" unicode="N" horiz-adv-x="1594" 
d="M218 0v1446h153l828 -1156v1156h177v-1446h-179l-802 1104v-1104h-177z" />
    <glyph glyph-name="O" unicode="O" horiz-adv-x="1546" 
d="M1069 203.5c60 42.333 90 126.168 90 251.501v523c0 125.333 -30.167 211.333 -90.5 258s-155.833 70 -286.5 70c-202.667 0 -325.667 -56 -369 -168c-16.667 -42.667 -25 -96 -25 -160v-523c0 -124.667 32.667 -208.334 98 -251.001s163.833 -64 295.5 -64
s227.5 21.167 287.5 63.5zM233 221.002c-31.333 74 -47 162.332 -47 264.999v455c0 207.333 58.667 351 176 431c94.667 64 234.667 96 420 96c328 0 515.667 -122 563 -366c10 -51.333 15 -109.333 15 -174v-428c0 -201.333 -57.667 -342.666 -173 -423.999
c-92.667 -65.333 -223.334 -98 -392.001 -98s-296.667 22 -384 66s-146.666 103 -177.999 177z" />
    <glyph glyph-name="P" unicode="P" horiz-adv-x="1326" 
d="M218 0l0.000976562 1446h578c268 0 402 -151.667 402 -455c0 -165.333 -34.833 -283.666 -104.5 -354.999s-169.834 -107 -300.501 -107h-373v-529h-202zM420.001 681.999l377 -0.000976562c118 0 183 68.667 195 206c2.66699 25.333 4 55.333 4 90
c0 116.667 -15.833 198.334 -47.5 245.001s-80.5 70 -146.5 70h-382v-611z" />
    <glyph glyph-name="Q" unicode="Q" horiz-adv-x="1542" 
d="M1069 203.5c60 42.333 90 126.168 90 251.501v523c0 125.333 -30.167 211.333 -90.5 258s-155.833 70 -286.5 70c-202.667 0 -325.667 -56 -369 -168c-16.667 -42.667 -25 -96 -25 -160v-523c0 -124.667 32.667 -208.334 98 -251.001s163.833 -64 295.5 -64
s227.5 21.167 287.5 63.5zM895 -16.998l189.998 -291.001l-141 -76l-230 363c-185.333 8 -319.666 52 -402.999 132s-125 205 -125 375v455c0 207.333 58.667 351 176 431c94.667 64 234.667 96 420 96c328 0 515.667 -122 563 -366c10 -51.333 15 -109.333 15 -174v-428
c0 -201.333 -57.667 -342.666 -173 -423.999c-71.333 -50 -168.666 -81 -291.999 -93z" />
    <glyph glyph-name="R" unicode="R" horiz-adv-x="1464" 
d="M218 0l-0.000976562 1446h645c199.333 0 324.333 -75.333 375 -226c18.667 -56 28.167 -122.5 28.5 -199.5s-8.5 -141.667 -26.5 -194s-41.167 -92.666 -69.5 -120.999s-64.166 -51.5 -107.499 -69.5l307 -636h-207l-287 600l-456 -1v-599h-202zM419.999 751.999
l426.003 -0.000976562c85.333 0 143.166 23 173.499 69s45.5 111 45.5 195c-0.666992 150.667 -40.334 239.334 -119.001 266.001c-22.667 8 -48.334 11.667 -77.001 11h-449v-541z" />
    <glyph glyph-name="S" unicode="S" horiz-adv-x="1304" 
d="M1164 406c0 -285.333 -157.666 -428.001 -472.999 -428.001c-209.333 0 -391.666 45 -546.999 135l71 154c60 -35.333 132.833 -65.333 218.5 -90s169 -37 250 -37s142.167 10.333 183.5 31c74 37.333 111 113.333 111 228c0 47.333 -2.33301 79 -7 95
c-15.333 53.333 -71.666 95.333 -168.999 126l-349 116c-112.667 36.667 -187.834 83.167 -225.501 139.5s-56.5 128.5 -56.5 216.5c0.666992 126.667 47 223.334 139 290.001c79.333 56.667 194.666 85.334 345.999 86.001c215.333 0 377 -33.667 485 -101l-49 -157
c-118.667 64 -252.334 96 -401.001 96c-103.333 0 -182 -13.333 -236 -40s-83 -69.667 -87 -129c-1.33301 -18.667 -2 -35.334 -2 -50.001c0 -48 10.167 -85 30.5 -111s59.833 -49 118.5 -69l364 -123c100 -34 172.5 -78.5 217.5 -133.5s67.5 -136.5 67.5 -244.5z" />
    <glyph glyph-name="T" unicode="T" horiz-adv-x="1204" 
d="M501 0v1281h-417v165h1036v-165h-418v-1281h-201z" />
    <glyph glyph-name="U" unicode="U" horiz-adv-x="1538" 
d="M776 -22c-257.333 0 -426.668 68 -508.001 204c-45.333 76 -68 173 -68 291v973h202v-994c0 -181.333 86.667 -283.333 260 -306c34 -4 76 -6 126 -6c102.667 0 186.334 20 251.001 60s97 124 97 252v994h202v-973c0 -187.333 -55.333 -320.333 -166 -399
c-90.667 -64 -222.667 -96 -396 -96z" />
    <glyph glyph-name="V" unicode="V" horiz-adv-x="1386" 
d="M602 0l-516 1446h207l399 -1152l399 1152h209l-521 -1446h-177z" />
    <glyph glyph-name="W" unicode="W" horiz-adv-x="2048" 
d="M522 0l-410 1446h184l307 -1100l315 1100h215l329 -1100l291 1100h183l-394 -1446h-152l-353 1232l-363 -1232h-152z" />
    <glyph glyph-name="X" unicode="X" horiz-adv-x="1336" 
d="M94 0l471 731l-449 715h203l350 -548l341 548h217l-454 -712l469 -734h-218l-357 568l-361 -568h-212z" />
    <glyph glyph-name="Y" unicode="Y" horiz-adv-x="1318" 
d="M560 0v568l-512 878h213l400 -702l402 702h207l-509 -878v-568h-201z" />
    <glyph glyph-name="Z" unicode="Z" horiz-adv-x="1242" 
d="M180 0v150l682 1131h-651v165h872v-151l-681 -1130h694v-165h-916z" />
    <glyph glyph-name="bracketleft" unicode="[" horiz-adv-x="768" 
d="M256 -76v1605h378v-133h-190v-1338h190v-134h-378z" />
    <glyph glyph-name="backslash" unicode="\" horiz-adv-x="768" 
d="M521 0l-457 1506h187l453 -1506h-183z" />
    <glyph glyph-name="bracketright" unicode="]" horiz-adv-x="768" 
d="M195 -76v133h190v1338h-190v134h378v-1605h-378z" />
    <glyph glyph-name="asciicircum" unicode="^" horiz-adv-x="1257" 
d="M154 626l359 657h222l368 -657h-193l-282 535l-280 -535h-194z" />
    <glyph glyph-name="underscore" unicode="_" horiz-adv-x="929" 
d="M14 -104v150h901v-150h-901z" />
    <glyph glyph-name="grave" unicode="`" horiz-adv-x="616" 
d="M372 1165l-257 341h225l138 -341h-106z" />
    <glyph glyph-name="a" unicode="a" horiz-adv-x="1172" 
d="M471 -22c-107.333 0 -190.667 29.165 -250 87.498s-89 130.833 -89 217.5c0 49.333 10.333 90.333 31 123c42 66.667 167.333 130.334 376 191.001c120.667 33.333 190.167 62 208.5 86s28.5 42.833 30.5 56.5s3 35.5 3 65.5s-12.167 59.333 -36.5 88
s-77.166 43 -158.499 43c-114.667 0 -185 -22 -211 -66c-13.333 -22.667 -20 -53.334 -20 -92.001v-47h-181v48c0 103.333 34.5 179.333 103.5 228s172.167 73 309.5 73s235.333 -31.167 294 -93.5s88 -151.166 88 -266.499v-452c0 -55.333 7 -91.166 21 -107.499
s44 -24.5 90 -24.5l-22 -144h-38c-66.667 0 -116.334 12.833 -149.001 38.5s-57.667 65.5 -75 119.5c-55.333 -82.667 -122 -134.667 -200 -156c-37.333 -10.667 -79 -16 -125 -16zM368.499 385.998c-36.333 -27.333 -54.502 -65.8301 -54.502 -115.497
s16.833 -87.167 50.5 -112.5s74.334 -38 122.001 -38s90.834 6.16699 129.501 18.5s73.5 30.666 104.5 54.999s51.167 52.166 60.5 83.499v306c-48.667 -48.667 -120.5 -86.834 -215.5 -114.501s-160.667 -55.167 -197 -82.5z" />
    <glyph glyph-name="b" unicode="b" horiz-adv-x="1204" 
d="M374 1010c82.667 46.667 182.332 70 298.999 70s209.667 -31 279 -93s104 -145.667 104 -251v-384c0 -110 -38 -199.833 -114 -269.5s-181.333 -104.5 -316 -104.5c-85.333 0 -177.666 31 -276.999 93l-24 -71h-139v1506h188v-496zM867.998 750
c0 124 -78.332 186 -234.999 186c-76.667 0 -163 -22 -259 -66v-682c73.333 -41.333 148.166 -62 224.499 -62s140.333 18.5 192 55.5s77.5 87.167 77.5 150.5v418z" />
    <glyph glyph-name="c" unicode="c" horiz-adv-x="1110" 
d="M579 -22c-216.667 0 -352.334 75.332 -407.001 225.999c-16 42.667 -24 89.334 -24 140.001v404c0 100.667 38.333 181.167 115 241.5s180.334 90.5 311.001 90.5c166.667 0 281.334 -36 344.001 -108c49.333 -56 74 -138.667 74 -248l-179 -17
c0 94.667 -16.833 156.5 -50.5 185.5s-93.5 43.5 -179.5 43.5s-148.667 -15 -188 -45s-59 -79.333 -59 -148v-415c0 -73.333 20.667 -126 62 -158s105.166 -48 191.499 -48s144 11.333 173 34s46.833 74 53.5 154h174c-10.667 -122.667 -46 -208.667 -106 -258
s-161.667 -74 -305 -74z" />
    <glyph glyph-name="d" unicode="d" horiz-adv-x="1200" 
d="M591 1080c85.333 0 163.668 -13.332 235.001 -39.999v466h188v-1506h-128l-31 70c-32.667 -25.333 -75.667 -47 -129 -65s-106 -27 -158 -27c-144.667 0 -250.834 32.167 -318.501 96.5s-101.5 151.166 -101.5 260.499v400c0 110 36.333 195 109 255s184 90 334 90z
M403.502 176.001c45 -33.333 97.834 -50.001 158.501 -50.001c108 0 196 21 264 63v703c-60.667 29.333 -134.334 44 -221.001 44c-179.333 0 -269 -60 -269 -180v-435c0 -63.333 22.5 -111.666 67.5 -144.999z" />
    <glyph glyph-name="e" unicode="e" horiz-adv-x="1158" 
d="M589 -22c-155.333 0 -267.663 32.333 -336.996 97s-104 164.334 -104 299.001v369c0 104.667 35.667 187 107 247s179.166 90 323.499 90s251.666 -27.833 321.999 -83.5s105.5 -135.167 105.5 -238.5v-252h-670v-149c0 -88 17.667 -149.167 53 -183.5
s99 -51.5 191 -51.5s144 2 156 6s24.333 8.66699 37 14s21.5 11.666 26.5 18.999s11.667 18.5 20 33.5s14.5 44.167 18.5 87.5h166c-6.66699 -63.333 -17.834 -114.333 -33.501 -153s-40.334 -69.5 -74.001 -92.5s-74 -38.5 -121 -46.5s-109.167 -12 -186.5 -12z
M336.003 633h487.999v145c0 60 -20.5 101.333 -61.5 124s-101.167 34 -180.5 34s-140.166 -13.667 -182.499 -41s-63.5 -72.333 -63.5 -135v-127z" />
    <glyph glyph-name="f" unicode="f" horiz-adv-x="790" 
d="M287 0v918h-177v142h177v161c0 98 26.833 169.833 80.5 215.5s135.5 68.5 245.5 68.5h119l12 -133h-116c-102 0 -153 -44.333 -153 -133v-179h257v-142h-257v-918h-188z" />
    <glyph glyph-name="g" unicode="g" horiz-adv-x="1186" 
d="M295 -227c69.333 -25.333 154.333 -38.001 255 -38.001s171.167 19 211.5 57s60.5 97 60.5 177v147c-27.333 -25.333 -68.166 -44.333 -122.499 -57s-104.166 -19 -149.499 -19c-268 0 -402 113 -402 339v349c0 110 33.5 196.167 100.5 258.5s167.5 93.5 301.5 93.5
c53.333 0 108.166 -11.167 164.499 -33.5s92.166 -46.166 107.499 -71.499v85h188v-1035c0 -127.333 -33.5 -231.333 -100.5 -312s-175.167 -121 -324.5 -121s-260 13.333 -332 40zM822 789.999c0 97.333 -81 146 -243 146s-243 -62.667 -243 -188v-398
c0 -110.667 81 -166 243 -166c95.333 0 176.333 26.667 243 80v526z" />
    <glyph glyph-name="h" unicode="h" horiz-adv-x="1226" 
d="M862 783c0 102 -78.666 153 -235.999 153c-78.667 0 -140.334 -16.333 -185.001 -49s-67 -75.667 -67 -129v-758h-188v1505h188v-545c68.667 80 174 120 316 120c180 0 293.333 -62.667 340 -188c13.333 -36 20 -75.667 20 -119v-773h-188v783z" />
    <glyph glyph-name="i" unicode="i" horiz-adv-x="596" 
d="M206 0v1060h188v-1060h-188zM206 1251v195h188v-195h-188z" />
    <glyph glyph-name="j" unicode="j" horiz-adv-x="602" 
d="M32 -353l-19.002 155.999h29c68 0 113.333 8.83301 136 26.5s37.334 39.334 44.001 65.001s10 59.5 10 101.5v1064h188v-1053c0 -174 -40 -281.667 -120 -323c-47.333 -24.667 -114.666 -37 -201.999 -37h-66zM231.998 1251v195h188v-195h-188z" />
    <glyph glyph-name="k" unicode="k" horiz-adv-x="1152" 
d="M186 0v1506h188v-982l507 536h206l-431 -466l474 -594h-217l-380 492l-159 -158v-334h-188z" />
    <glyph glyph-name="l" unicode="l" horiz-adv-x="696" 
d="M530 -8c-62 0 -112.666 4.66602 -151.999 13.999s-74 27 -104 53c-56 48.667 -84 148.334 -84 299.001v1147h188v-1149c0 -85.333 12.667 -141 38 -167s77.666 -39 156.999 -39h33l-22 -158h-54z" />
    <glyph glyph-name="m" unicode="m" horiz-adv-x="1860" 
d="M844 781c0 103.333 -76.334 155 -229.001 155c-77.333 0 -136.833 -16.5 -178.5 -49.5s-62.5 -76.833 -62.5 -131.5v-755h-188v1060h188v-103c70.667 82 176.834 123 318.501 123s240.5 -46.333 296.5 -139l25 24c76.667 76.667 184 115 322 115
c178 0 288 -63.333 330 -190c12 -36 18 -76 18 -120v-770h-188v781c0 103.333 -69.333 155 -208 155c-87.333 0 -151.833 -16.5 -193.5 -49.5s-62.5 -76.833 -62.5 -131.5v-755h-188v781z" />
    <glyph glyph-name="n" unicode="n" horiz-adv-x="1226" 
d="M862 781c0 103.333 -79.001 155 -237.001 155c-78 0 -139.333 -16.667 -184 -50s-67 -77 -67 -131v-755h-188v1060h188v-103c70.667 82 175.334 123 314.001 123c180 0 294 -63.333 342 -190c13.333 -36 20 -76 20 -120v-770h-188v781z" />
    <glyph glyph-name="o" unicode="o" horiz-adv-x="1174" 
d="M587 122c167.333 0 251 59 251 177v459c0 118.667 -83.667 178 -251 178s-251 -59.333 -251 -178v-459c0 -118 83.667 -177 251 -177zM919.5 68.5c-71 -60.333 -182.167 -90.5 -333.5 -90.5s-262.166 30 -332.499 90s-105.5 142.333 -105.5 247v427
c0 104.667 35.167 187.167 105.5 247.5s181.166 90.5 332.499 90.5s262.5 -30.333 333.5 -91s106.5 -143 106.5 -247v-427c0 -104 -35.5 -186.167 -106.5 -246.5z" />
    <glyph glyph-name="p" unicode="p" horiz-adv-x="1198" 
d="M186 -408l0.00195312 1468h148l22 -80c30.667 27.333 72.667 50.833 126 70.5s108.666 29.5 165.999 29.5c131.333 0 231.166 -32 299.499 -96s102.5 -149 102.5 -255v-385c0 -109.333 -37.333 -197.666 -112 -264.999s-179.334 -101 -314.001 -101
c-93.333 0 -176.666 18.667 -249.999 56v-442h-188zM374.002 178.999c67.333 -38 142.667 -56.999 226 -56.999s147.833 17.667 193.5 53s68.5 85 68.5 149v420c0 61.333 -22.5 108.666 -67.5 141.999s-100 50 -165 50s-120.333 -13.333 -166 -40s-75.5 -50.667 -89.5 -72
v-645z" />
    <glyph glyph-name="q" unicode="q" horiz-adv-x="1200" 
d="M826 -408l-0.000976562 455.001c-30 -22.667 -69 -39.834 -117 -51.501s-93.333 -17.5 -136 -17.5c-134 0 -238.333 30.167 -313 90.5s-112 142.166 -112 245.499v414c0 109.333 35 195.333 105 258s172.333 94 307 94c52.667 0 106.334 -11.167 161.001 -33.5
s89.667 -46.166 105 -71.499v85h188v-1468h-188zM584.999 122.001c62 0 115.832 9.50098 161.499 28.501s72.167 35.833 79.5 50.5v609c0 33.333 -20.333 62.666 -61 87.999s-99.667 38 -177 38s-138.666 -15.667 -183.999 -47s-68 -78.333 -68 -141v-464
c0 -108 83 -162 249 -162z" />
    <glyph glyph-name="r" unicode="r" horiz-adv-x="794" 
d="M186 0v1060h188v-150c24 65.333 89 112.666 195 141.999c55.333 16 113 23.667 173 23l-6 -161c-90.667 0 -173.667 -18 -249 -54s-113 -75.333 -113 -118v-742h-188z" />
    <glyph glyph-name="s" unicode="s" horiz-adv-x="992" 
d="M503 122c142 0 212.999 53 212.999 159c0 46 -6.33301 80.167 -19 102.5s-42.334 42.166 -89.001 59.499l-252 93c-77.333 27.333 -131.166 59.833 -161.499 97.5s-45.5 84.834 -45.5 141.501s5.66699 102.167 17 136.5s30 64.5 56 90.5c52 52 145.333 78 280 78
s250.667 -19.333 348 -58l-43 -144c-34 14 -78.667 27.167 -134 39.5s-103.666 18.5 -144.999 18.5c-95.333 0 -155.666 -15.333 -180.999 -46c-15.333 -19.333 -23 -47.666 -23 -84.999s6.16699 -63.833 18.5 -79.5s36.5 -29.834 72.5 -42.501l249 -98
c86.667 -34 143.667 -71.5 171 -112.5s41 -105.5 41 -193.5s-28.333 -160.167 -85 -216.5s-144.334 -84.5 -263.001 -84.5c-86.667 0 -163.667 9.33301 -231 28s-119 38 -155 58l46 138c95.333 -53.333 200.333 -80 315 -80z" />
    <glyph glyph-name="t" unicode="t" horiz-adv-x="840" 
d="M676 -8c-148 0 -254.832 23.334 -320.499 70.001s-98.5 127 -98.5 241v615h-177v142h184l23 328h158v-328h266v-142h-266v-603c0 -66.667 19.167 -110.834 57.5 -132.501s105.166 -32.5 200.499 -32.5h21l-20 -158h-28z" />
    <glyph glyph-name="u" unicode="u" horiz-adv-x="1224" 
d="M541 -22c-180.667 0 -295.333 64 -344 192c-14 36.667 -21 76.667 -21 120v770h188v-771c0 -52 19.167 -92.833 57.5 -122.5s95.5 -44.5 171.5 -44.5s137.833 18.833 185.5 56.5s71.5 81.167 71.5 130.5v751h188v-1060h-168l-20 133
c-58.667 -103.333 -161.667 -155 -309 -155z" />
    <glyph glyph-name="v" unicode="v" horiz-adv-x="1104" 
d="M475 0l-411 1060h189l319 -860l284 860h184l-375 -1060h-190z" />
    <glyph glyph-name="w" unicode="w" horiz-adv-x="1614" 
d="M357 0l-305 1060h172l235 -832l255 832h181l266 -832l227 832h174l-310 -1060h-175l-271 845l-271 -845h-178z" />
    <glyph glyph-name="x" unicode="x" horiz-adv-x="1056" 
d="M64 0l377 533l-371 527h189l276 -394l279 394h181l-369 -525l374 -535h-183l-283 403l-283 -403h-187z" />
    <glyph glyph-name="y" unicode="y" horiz-adv-x="1118" 
d="M198 -406v147.001c82.667 0 149.5 20.333 200.5 61s89.167 108 114.5 202l-437 1056h199l324 -844l271 844h190l-348 -1015c-46 -134 -87.5 -226.833 -124.5 -278.5s-72.5 -87.834 -106.5 -108.501c-70 -42.667 -164.333 -64 -283 -64z" />
    <glyph glyph-name="z" unicode="z" horiz-adv-x="964" 
d="M140 0v118l507 818h-489v124h687v-115l-510 -821h519v-124h-714z" />
    <glyph glyph-name="braceleft" unicode="{" horiz-adv-x="952" 
d="M474 650c69.333 -34 104.004 -151.67 104.004 -353.003v-62c0 -106.667 4 -168.5 12 -185.5s16.833 -32.5 26.5 -46.5s21.167 -23.667 34.5 -29s33.333 -11.666 60 -18.999s78.334 -11 155.001 -11v-151c-164 0.666992 -276 19 -336 55c-24 14.667 -44 27.834 -60 39.501
s-34 39.667 -54 84s-30 121.5 -30 231.5v206c0 22 -2.16699 46.833 -6.5 74.5s-8.83301 45 -13.5 52s-14.334 15 -29.001 24s-29.834 13.667 -45.501 14s-34.834 0.5 -57.501 0.5h-76v151h98c29.333 -0.666992 59.333 5 90 17c6 2.66699 14.167 14.334 24.5 35.001
s15.5 67 15.5 139v130c0 132 4.66699 211 14 237c24 69.333 47.333 112.333 70 129c52 38.667 100 62 144 70c78.667 16 162.667 24 252 24v-151c-118.667 0.666992 -193.334 -11 -224.001 -35c-10.667 -8 -19.334 -15.333 -26.001 -22c-25.333 -24 -38 -90.333 -38 -199
v-97c0 -200.667 -34.667 -318 -104 -352z" />
    <glyph glyph-name="bar" unicode="|" horiz-adv-x="690" 
d="M256 -167v1722h178v-1722h-178z" />
    <glyph glyph-name="braceright" unicode="}" horiz-adv-x="952" 
d="M520 649c-69.333 34 -104.001 151.669 -104.001 353.002v62c0 106.667 -4 168.5 -12 185.5s-16.833 32.5 -26.5 46.5s-21.167 23.667 -34.5 29s-33.333 11.666 -60 18.999s-78.334 11 -155.001 11v151c164 0 276 -18 336 -54c24 -14.667 44 -28 60 -40
s34 -40.167 54 -84.5s30 -121.5 30 -231.5v-206c0 -22 2.16699 -46.833 6.5 -74.5s8.83301 -45 13.5 -52s14.334 -15 29.001 -24s29.834 -13.667 45.501 -14s34.834 -0.5 57.501 -0.5h76v-151h-71c-26 0 -46.833 -0.166992 -62.5 -0.5s-30.834 -5 -45.501 -14
s-24.334 -17 -29.001 -24s-9.16699 -24.333 -13.5 -52s-6.5 -52.5 -6.5 -74.5v-156c0 -120 -3.33301 -192.333 -10 -217s-14 -48.5 -22 -71.5s-18 -40.5 -30 -52.5l-43.5 -41.5c-17 -15.667 -37.333 -27.167 -61 -34.5s-56.667 -16.333 -99 -27s-113.833 -16 -214.5 -16v151
c76.667 0 128.334 3.66699 155.001 11s46.667 13.666 60 18.999s28.833 20.833 46.5 46.5s26.5 81.167 26.5 166.5v110c0 200.667 34.667 318 104 352z" />
    <glyph glyph-name="asciitilde" unicode="~" horiz-adv-x="881" 
d="M126.5 1251.5c-41.667 52.333 -62.5 119.166 -62.5 200.499h97c0 -36 9 -67.167 27 -93.5s42.667 -39.5 74 -39.5c31.333 0.666992 70.333 17.667 117 51c88.667 64 163 96 223 96s110.833 -26.167 152.5 -78.5s62.5 -119.166 62.5 -200.499h-97c0 36 -9 67.167 -27 93.5
s-42.667 39.5 -74 39.5s-70.333 -16.667 -117 -50c-88.667 -64 -163 -96.167 -223 -96.5s-110.833 25.667 -152.5 78z" />
    <glyph glyph-name="uni00A0" unicode="&#xa0;" horiz-adv-x="512" 
 />
    <glyph glyph-name="exclamdown" unicode="&#xa1;" horiz-adv-x="768" 
d="M488 1265.98v-206l-204 -0.0117188v206zM415 894.979c44.667 -459.997 67 -818.329 67 -1075l-202 -0.0117188c0 209.333 26.333 567.668 79 1075z" />
    <glyph glyph-name="cent" unicode="&#xa2;" horiz-adv-x="1110" 
d="M643 -20l0.000976562 -185.004h-103v184c-193.333 8.66699 -316 83.667 -368 225c-16 42.667 -24 89.334 -24 140.001v404c0 100.667 36.667 179.834 110 237.501s167.333 88.834 282 93.501v198h103v-199c129.333 -8 219.833 -41.667 271.5 -101
s77.5 -143.666 77.5 -252.999l-179 -17c0 94.667 -16.833 156.5 -50.5 185.5s-93.5 43.5 -179.5 43.5s-148.667 -15 -188 -45s-59 -79.333 -59 -148v-415c0 -73.333 20.667 -126 62 -158s105.166 -48 191.499 -48s144 11.333 173 34s46.833 74 53.5 154h174
c-10.667 -122.667 -43.667 -206.667 -99 -252s-138 -71.333 -248 -78z" />
    <glyph glyph-name="sterling" unicode="&#xa3;" horiz-adv-x="1273" 
d="M261 0l62 668h-157v141h170l31 316c9.33301 102.667 47.166 188.167 113.499 256.5s152.666 102.5 258.999 102.5s218.833 -28.667 337.5 -86l-54 -139c-93.333 45.333 -177.666 68 -252.999 68c-125.333 0 -195.666 -74.333 -210.999 -223l-30 -295h483v-141h-498
l-52 -506h574v-162h-775z" />
    <glyph glyph-name="currency" unicode="&#xa4;" horiz-adv-x="1149" 
d="M817 486c-60 -84 -141.667 -126.001 -245 -126.001s-186 36 -248 108l-147 -108l-51 83l148 106c-19.333 44 -29 94.167 -29 150.5s15.333 110.5 46 162.5l-175 117l54 82l180 -124c57.333 54 129 81 215 81s157.667 -27.667 215 -83l193 140l50 -82l-184 -133
c29.333 -55.333 44 -108.166 44 -158.499s-7 -93.833 -21 -130.5l171 -114l-52 -81zM565 443.999c64 0 117.5 24 160.5 72s64.5 106.167 64.5 174.5s-21.5 126.333 -64.5 174s-96.5 71.5 -160.5 71.5s-117.5 -23.833 -160.5 -71.5s-64.5 -105.667 -64.5 -174
s21.5 -126.5 64.5 -174.5s96.5 -72 160.5 -72z" />
    <glyph glyph-name="yen" unicode="&#xa5;" horiz-adv-x="1318" 
d="M260 560v148h218l-430 738h213l400 -702l402 702h207l-428 -738h221v-148h-302v-160h302v-148h-302v-252h-201v252h-300v148h300v160h-300z" />
    <glyph glyph-name="brokenbar" unicode="&#xa6;" horiz-adv-x="674" 
d="M254 -167v680h178v-680h-178zM254 848v707h178v-707h-178z" />
    <glyph glyph-name="section" unicode="&#xa7;" horiz-adv-x="1002" 
d="M829 1266c-97.333 38.667 -204.335 57.999 -321.002 57.999c-64.667 0 -110.167 -10.667 -136.5 -32s-39.5 -52.5 -39.5 -93.5s6.33301 -69 19 -84s37.334 -29.5 74.001 -43.5l257 -98c89.333 -34 148 -71.5 176 -112.5s42 -100.833 42 -179.5s-18 -143.334 -54 -194.001
c36 -39.333 54 -105.833 54 -199.5s-29.167 -168.667 -87.5 -225s-148.5 -84.5 -270.5 -84.5c-89.333 0 -168.666 9.33301 -237.999 28s-122.666 38 -159.999 58l47 138c99.333 -53.333 207.666 -80 324.999 -80c146.667 0 220 53 220 159c0 45.333 -6.66699 79.333 -20 102
s-44 42.667 -92 60l-259 93c-80 28.667 -135.667 61.834 -167 99.501s-47 95.834 -47 174.501s24 141 72 187c-48 40.667 -72 101 -72 181c0 145.333 62 235.333 186 270c46.667 13.333 103 20 169 20c144 0 266.667 -19.333 368 -58zM364.998 923.999
c-5.33301 0 -12.167 -14.334 -20.5 -43.001s-12.5 -56.5 -12.5 -83.5s6.5 -49.333 19.5 -67s37.5 -33.5 73.5 -47.5l291 -112c13.333 29.333 20 64.333 20 105s-6.66699 72.334 -20 95.001s-44 42.667 -92 60z" />
    <glyph glyph-name="dieresis" unicode="&#xa8;" horiz-adv-x="1025" 
d="M158 1265v181h206v-181h-206zM661 1265v181h206v-181h-206z" />
    <glyph glyph-name="copyright" unicode="&#xa9;" horiz-adv-x="1784" 
d="M622.5 368c-47.667 54 -71.498 127.999 -71.498 221.999v278c0 157.333 58.333 254.666 175 291.999c48 14.667 106 22 174 22c135.333 0 223.833 -29.167 265.5 -87.5s62.5 -136.166 62.5 -233.499v-25l-116 -10v64c0 75.333 -15.833 127.666 -47.5 156.999
s-86.334 44 -164.001 44s-135.334 -15.167 -173.001 -45.5s-56.5 -82.166 -56.5 -155.499v-319c0 -72.667 18.667 -123.334 56 -152.001s95.5 -43 174.5 -43s133.833 13.833 164.5 41.5s46 78.834 46 153.501v61h116v-34c0 -78 -9.33301 -135.167 -28 -171.5
s-39.667 -63.166 -63 -80.499c-51.333 -38.667 -138 -58.167 -260 -58.5s-206.833 26.5 -254.5 80.5zM570.502 165.499c96.333 -55.667 204.333 -83.4971 324 -83.4971s227.5 27.833 323.5 83.5s170.667 132.167 224 229.5s80 206.166 80 326.499
s-26.667 229.166 -80 326.499s-128 173.833 -224 229.5s-203.833 83.5 -323.5 83.5s-227.667 -27.833 -324 -83.5s-171.333 -132.167 -225 -229.5s-80.5 -206 -80.5 -326s26.833 -228.833 80.5 -326.5s128.667 -174.334 225 -230.001zM1182.5 42.502
c-91 -37.667 -196.167 -56.5 -315.5 -56.5s-235.166 32 -347.499 96s-201 152.333 -266 265s-97.5 237.5 -97.5 374.5s32.5 261.667 97.5 374s153.667 200.5 266 264.5s236.666 96 372.999 96s260.833 -32 373.5 -96s201.167 -152.167 265.5 -264.5s96.5 -228.5 96.5 -348.5
s-19 -225.5 -57 -316.5s-89.5 -169 -154.5 -234s-143 -116.333 -234 -154z" />
    <glyph glyph-name="ordfeminine" unicode="&#xaa;" horiz-adv-x="1045" 
d="M459.525 502.166c-86.4873 0 -153.635 24.9668 -201.444 74.9053c-47.8105 49.9385 -71.7158 112.004 -71.7158 186.197c0 42.2334 8.32617 77.333 24.9795 105.299c33.8428 57.0713 134.835 111.575 302.976 163.511c97.2314 28.5361 153.233 53.0771 168.006 73.623
s22.9648 36.6689 24.5762 48.3691c1.6123 11.7002 2.41797 30.3916 2.41797 56.0742s-9.80371 50.7939 -29.4111 75.335c-19.6084 24.541 -62.1807 36.8115 -127.718 36.8115c-92.3965 0 -149.07 -18.834 -170.021 -56.501
c-10.7441 -19.4053 -16.1162 -45.6582 -16.1162 -78.7598v-40.2354h-145.847v41.0918c0 88.4619 27.7998 153.523 83.3984 195.186c55.5996 41.6631 138.729 62.4941 249.391 62.4941s189.628 -26.6816 236.9 -80.0439s70.9092 -129.41 70.9092 -228.145v-386.947
c0 -47.3701 5.64062 -78.0469 16.9219 -92.0303c11.2803 -13.9824 35.4541 -20.9736 72.5205 -20.9736l-17.7275 -123.275h-30.6191c-53.7197 0 -93.7402 10.9863 -120.062 32.959s-46.4668 56.0732 -60.4336 102.302
c-44.5869 -70.7695 -98.3066 -115.286 -161.158 -133.549c-30.082 -9.13184 -63.6562 -13.6973 -100.723 -13.6973zM376.934 851.444c-29.2773 -23.3994 -43.915 -56.3584 -43.915 -98.877s13.5645 -74.6211 40.6924 -96.3076
c27.1279 -21.6875 59.8965 -32.5312 98.3057 -32.5312s73.1924 5.2793 104.35 15.8379c31.1572 10.5576 59.2256 26.252 84.2051 47.083s41.2295 44.6582 48.75 71.4814v261.96c-39.2158 -41.6621 -97.0986 -74.3359 -173.648 -98.0205s-129.463 -47.2266 -158.739 -70.626z
" />
    <glyph glyph-name="guillemotleft" unicode="&#xab;" horiz-adv-x="1054" 
d="M376 80l-280 450l273 450l147 -70l-207 -380l207 -380zM790 80l-280 450l273 450l145 -70l-205 -380l205 -380z" />
    <glyph glyph-name="logicalnot" unicode="&#xac;" horiz-adv-x="864" 
d="M589 333v223h-491v136h623v-359h-132z" />
    <glyph glyph-name="uni00AD" unicode="&#xad;" horiz-adv-x="1024" 
d="M162 494v148h700v-148h-700z" />
    <glyph glyph-name="registered" unicode="&#xae;" horiz-adv-x="1784" 
d="M596 319v834h403c171.333 0 259 -81.667 263 -245v-14c0 -124.667 -50.667 -200.667 -152 -228l184 -347h-128l-180 333h-259v-333h-131zM727 742h267.001c89.333 0 134.666 45 135.999 135v24c0 107.333 -42.333 161 -127 161h-276v-320zM570.501 165.5
c96.333 -55.667 204.333 -83.4971 324 -83.4971s227.5 27.833 323.5 83.5s170.667 132.167 224 229.5s80 206.166 80 326.499s-26.667 229.166 -80 326.499s-128 173.833 -224 229.5s-203.833 83.5 -323.5 83.5s-227.667 -27.833 -324 -83.5s-171.333 -132.167 -225 -229.5
s-80.5 -206 -80.5 -326s26.833 -228.833 80.5 -326.5s128.667 -174.334 225 -230.001zM1182.5 42.5029c-91 -37.667 -196.167 -56.5 -315.5 -56.5s-235.166 32 -347.499 96s-201 152.333 -266 265s-97.5 237.5 -97.5 374.5s32.5 261.667 97.5 374s153.667 200.5 266 264.5
s236.666 96 372.999 96s260.833 -32 373.5 -96s201.167 -152.167 265.5 -264.5s96.5 -228.5 96.5 -348.5s-19 -225.5 -57 -316.5s-89.5 -169 -154.5 -234s-143 -116.333 -234 -154z" />
    <glyph glyph-name="macron" unicode="&#xaf;" horiz-adv-x="513" 
d="M32 1359v147h449v-147h-449z" />
    <glyph glyph-name="degree" unicode="&#xb0;" horiz-adv-x="1036" 
d="M519 885c64.667 0 118.834 23.167 162.501 69.5s65.5 102.5 65.5 168.5s-21.833 122.167 -65.5 168.5s-97.834 69.5 -162.501 69.5s-118.834 -23.167 -162.501 -69.5s-65.5 -102.5 -65.5 -168.5s21.833 -122.167 65.5 -168.5s97.834 -69.5 162.501 -69.5zM518 798
c-89.333 0 -165.666 31.667 -228.999 95s-95 139.666 -95 228.999s31.667 165.666 95 228.999s139.666 95 228.999 95s165.666 -31.667 228.999 -95s95 -139.666 95 -228.999s-31.667 -165.666 -95 -228.999s-139.666 -95 -228.999 -95z" />
    <glyph glyph-name="plusminus" unicode="&#xb1;" horiz-adv-x="1041" 
d="M460 334v277h-253v115h253v266h121v-266h253v-115h-253v-277h-121zM207 0v120h627v-120h-627z" />
    <glyph glyph-name="uni00B2" unicode="&#xb2;" horiz-adv-x="1052" 
d="M655 1334c-30 35.333 -76.335 53.001 -139.002 53.001c-137.333 0 -205.666 -71 -204.999 -213h-121c0 104.667 30.5 182.5 91.5 233.5s138.167 76.5 231.5 76.5s167.833 -27 223.5 -81s83.5 -119.833 83.5 -197.5s-11.667 -140.334 -35 -188.001
s-61.666 -98.5 -114.999 -152.5l-320 -316h465v-100h-585l-11 110l359 389c54.667 58.667 88.5 104 101.5 136s19.5 72.667 19.5 122s-14.667 92 -44 128z" />
    <glyph glyph-name="uni00B3" unicode="&#xb3;" horiz-adv-x="1173" 
d="M590 418c-190.667 0 -309.999 57.998 -357.999 173.998c-18.667 45.333 -29.334 101.666 -32.001 168.999h138c2.66699 -126 46.667 -200.333 132 -223c33.333 -9.33301 78.833 -13.833 136.5 -13.5s106.5 16.333 146.5 48s60 75.834 60 132.501
c0.666992 56.667 -7.66602 99.667 -24.999 129c-34 58 -130.333 87 -289 87v99c119.333 0 195.5 11.5 228.5 34.5s52.333 45.333 58 67s8.5 53.834 8.5 96.501s-16.333 80 -49 112s-84.334 48 -155.001 48c-124 0 -199 -36.667 -225 -110c-10.667 -30.667 -16 -69 -16 -115
h-136c2.66699 188.667 89.667 296.334 261 323.001c34.667 5.33301 78 8 130 8s102.833 -9.83301 152.5 -29.5s90.5 -51 122.5 -94s48 -96.5 48 -160.5c0 -128 -64 -204 -192 -228c108.667 -20 175 -68 199 -144c9.33301 -30.667 14 -67 14 -109
c0 -100 -33.167 -175.167 -99.5 -225.5s-152.5 -75.5 -258.5 -75.5z" />
    <glyph glyph-name="acute" unicode="&#xb4;" horiz-adv-x="616" 
d="M133 1165l120 341h225l-239 -341h-106z" />
    <glyph glyph-name="uni00B5" unicode="&#xb5;" horiz-adv-x="307" 
 />
    <glyph glyph-name="paragraph" unicode="&#xb6;" 
d="M485 0v870c-90 2 -165.333 28.5 -226 79.5s-91 119.833 -91 206.5c0 146.667 72 238 216 274c41.333 10.667 87 16 137 16h440v-1446h-136v1338h-204v-1338h-136z" />
    <glyph glyph-name="periodcentered" unicode="&#xb7;" horiz-adv-x="412" 
d="M108 1277v206h205v-206h-205z" />
    <glyph glyph-name="cedilla" unicode="&#xb8;" horiz-adv-x="512" 
d="M213 -486c-32 0 -63.001 2.66797 -93.001 8.00098v96c24 -4.66699 53.333 -7 88 -7s63.834 9.5 87.501 28.5s35.5 43.667 35.5 74s-14.833 59 -44.5 86s-68.167 41.167 -115.5 42.5v158h62l6 -94c70 -12.667 124.333 -38.834 163 -78.501s58 -84 58 -133
s-21.667 -91.333 -65 -127s-104 -53.5 -182 -53.5z" />
    <glyph glyph-name="uni00B9" unicode="&#xb9;" horiz-adv-x="1050" 
d="M207 654v101h274v639l-256 -26l-12 104l292 33h107v-750h231v-101h-636z" />
    <glyph glyph-name="ordmasculine" unicode="&#xba;" horiz-adv-x="1023" 
d="M511.361 619.963c135.509 0 203.264 50.7607 203.264 152.282v394.901c0 102.095 -67.7549 153.143 -203.264 153.143s-203.264 -51.0479 -203.264 -153.143v-394.901c0 -101.521 67.7549 -152.282 203.264 -152.282zM780.624 573.934
c-57.4971 -51.9072 -147.521 -77.8613 -270.073 -77.8613s-212.306 25.8105 -269.263 77.4316s-85.4355 122.457 -85.4355 212.507v367.37c0 90.0498 28.4785 161.029 85.4355 212.938c56.957 51.9072 146.711 77.8613 269.263 77.8613s212.576 -26.0977 270.073 -78.292
s86.2451 -123.03 86.2451 -212.507v-367.37c0 -89.4766 -28.748 -160.169 -86.2451 -212.077z" />
    <glyph glyph-name="guillemotright" unicode="&#xbb;" horiz-adv-x="1054" 
d="M271 80l-145 70l205 380l-205 380l138 70l280 -450zM685 80l-147 70l207 380l-207 380l140 70l280 -450z" />
    <glyph glyph-name="onequarter" unicode="&#xbc;" horiz-adv-x="2047" 
d="M164 654v101h274v639l-256 -26l-12 104l292 33h107v-750h231v-101h-636zM687 0l684 1446h126l-678 -1446h-132zM1655 0v207h-434v92l359 593h141l-348 -594h282v235h113v-235h144v-91h-144v-207h-113z" />
    <glyph glyph-name="onehalf" unicode="&#xbd;" horiz-adv-x="2047" 
d="M1371 2l-11 92l283 319c68.667 74 106.334 126.333 113.001 157c4 16 6 37 6 63s-5 49.333 -15 70c-20 41.333 -62.833 62 -128.5 62s-110.334 -10.333 -134.001 -31s-35.5 -63.667 -35.5 -129h-117c0 88.667 25 154.5 75 197.5s118.667 64.5 206 64.5
s153.5 -22.667 198.5 -68s67.5 -103.333 67.5 -174c0 -40.667 -4.66699 -71.334 -14 -92.001s-15.833 -35.667 -19.5 -45s-12.5 -22.666 -26.5 -39.999s-22.833 -28.5 -26.5 -33.5s-15 -17.833 -34 -38.5s-30.167 -33 -33.5 -37l-213 -238h371v-99h-512zM164 654v101h274
v639l-256 -26l-12 104l292 33h107v-750h231v-101h-636zM687 0l684 1446h126l-678 -1446h-132z" />
    <glyph glyph-name="threequarters" unicode="&#xbe;" horiz-adv-x="2047" 
d="M1655 0v207h-434v92l359 593h141l-348 -594h282v235h113v-235h144v-91h-144v-207h-113zM687 0l684 1446h126l-678 -1446h-132zM695 1295c0 84 -53.9971 125.997 -161.997 125.997c-85.333 0 -137.666 -13.5 -156.999 -40.5s-29 -69.5 -29 -127.5h-135
c2 123.333 45.667 201.666 131 234.999c46.667 18.667 112.667 27.834 198 27.501s154.333 -18.5 207 -54.5s79 -86.333 79 -151s-12.667 -112.167 -38 -142.5s-67 -49.5 -125 -57.5c61.333 -10.667 107.166 -32.167 137.499 -64.5s45.5 -85.333 45.5 -159
s-26.167 -131 -78.5 -172s-132.333 -61.5 -240 -61.5s-187.334 20.333 -239.001 61s-81.834 113.334 -90.501 218.001h135c4 -75.333 21.833 -125.166 53.5 -149.499s81 -36.5 148 -36.5s113.333 12.5 139 37.5s38.5 61.5 38.5 109.5c0.666992 48 -5 83.333 -17 106
c-22.667 44.667 -98.334 67 -227.001 67v85c74.667 0 123.167 4.33301 145.5 13s38.5 16.334 48.5 23.001c21.333 14 32 50 32 108z" />
    <glyph glyph-name="questiondown" unicode="&#xbf;" horiz-adv-x="1240" 
d="M777 835l-274 -364c-77.333 -104 -122 -180.333 -134 -229c-6 -24.667 -9 -51 -9 -79c0 -65.333 16.667 -115.5 50 -150.5s96.666 -52.5 189.999 -52.5s161.166 18 203.499 54s63.5 89.333 63.5 160v53h197v-32c0 -148.667 -36.167 -252 -108.5 -310
s-198.666 -87 -378.999 -87s-305.166 53.333 -374.499 160c-36.667 56 -55 113.333 -55 172s5.66699 107.167 17 145.5s34 82.5 68 132.5s93 119.333 177 208l208 219h160zM803 1266v-206h-204v206h204z" />
    <glyph glyph-name="Agrave" unicode="&#xc0;" horiz-adv-x="1428" 
d="M661 1631l-257 341h225l138 -341h-106zM86 0l539 1446h177l540 -1446h-205l-98 282h-645l-99 -282h-209zM442 425h551l-274 791z" />
    <glyph glyph-name="Aacute" unicode="&#xc1;" horiz-adv-x="1428" 
d="M661 1631l120 341h225l-239 -341h-106zM86 0l539 1446h177l540 -1446h-205l-98 282h-645l-99 -282h-209zM442 425h551l-274 791z" />
    <glyph glyph-name="Acircumflex" unicode="&#xc2;" horiz-adv-x="1428" 
d="M428 1631l216 266h150l206 -266h-156l-124 174l-132 -174h-160zM86 0l539 1446h177l540 -1446h-205l-98 282h-645l-99 -282h-209zM442 425h551l-274 791z" />
    <glyph glyph-name="Atilde" unicode="&#xc3;" horiz-adv-x="1428" 
d="M913 1645c0 62 -24.667 93 -74 93c-24 0 -54.333 -17.833 -91 -53.5s-85.5 -53.5 -146.5 -53.5s-107 18 -138 54s-46.5 94.333 -46.5 175h97c0 -62 24.667 -93 74 -93c24 0 54.333 17.833 91 53.5s85.5 53.5 146.5 53.5s107 -18 138 -54s46.5 -94.333 46.5 -175h-97z
M86 0l539 1446h177l540 -1446h-205l-98 282h-645l-99 -282h-209zM442 425h551l-274 791z" />
    <glyph glyph-name="Adieresis" unicode="&#xc4;" horiz-adv-x="1428" 
d="M360 1631v181h206v-181h-206zM863 1631v181h206v-181h-206zM86 0l539 1446h177l540 -1446h-205l-98 282h-645l-99 -282h-209zM442 425h551l-274 791z" />
    <glyph glyph-name="Aring" unicode="&#xc5;" horiz-adv-x="1428" 
d="M714 1521c72.667 0 109 37.667 109 113s-36.333 113 -109 113c-32 0 -58.167 -8.66699 -78.5 -26s-30.5 -46 -30.5 -86c0 -76 36.333 -114 109 -114zM714 1456c-54.667 0 -100.667 15.167 -138 45.5s-56 74.5 -56 132.5s18.667 102.167 56 132.5s83.333 45.5 138 45.5
s100.667 -15.167 138 -45.5s56 -74.5 56 -132.5s-18.667 -102.167 -56 -132.5s-83.333 -45.5 -138 -45.5zM86 0l539 1446h177l540 -1446h-205l-98 282h-645l-99 -282h-209zM442 425h551l-274 791z" />
    <glyph glyph-name="AE" unicode="&#xc6;" horiz-adv-x="1686" 
d="M302 0l-204 3l394 1443h1058v-150h-485v-482h424v-150h-424v-514h494v-150h-685v282h-499zM411 417h463v879h-242z" />
    <glyph glyph-name="Ccedilla" unicode="&#xc7;" horiz-adv-x="1456" 
d="M723 -492c-32 0 -63.001 2.66797 -93.001 8.00098v96c24 -4.66699 53.333 -7 88 -7s63.834 9.5 87.501 28.5s35.5 43.667 35.5 74s-14.833 59 -44.5 86s-68.167 41.167 -115.5 42.5v158h62l6 -94c70 -12.667 124.333 -38.834 163 -78.501s58 -84 58 -133
s-21.667 -91.333 -65 -127s-104 -53.5 -182 -53.5zM224.999 219.501c-28.667 73.667 -43.0029 162.499 -43.0029 266.499v454c0 210.667 54.667 354.334 164 431.001c92.667 64.667 227.5 97 404.5 97s305.5 -24.5 385.5 -73.5s130 -125.833 150 -230.5
c9.33301 -46.667 14 -102.334 14 -167.001l-191 -17c0 97.333 -8.33301 163.166 -25 197.499s-33.167 58.833 -49.5 73.5s-43.166 27.5 -80.499 38.5s-95.666 16.5 -174.999 16.5s-141.666 -5.33301 -186.999 -16c-45.333 -10 -84 -27.333 -116 -52
c-61.333 -47.333 -92 -134.333 -92 -261v-522c0 -125.333 31 -209.166 93 -251.499s160.833 -63.5 296.5 -63.5s222.167 16 259.5 48s60.333 78.667 69 140c4.66699 33.333 7 73.333 7 120h191c0 -145.333 -21 -247.333 -63 -306c-77.333 -109.333 -224.333 -164 -441 -164
c-182 0 -315.5 21.833 -400.5 65.5s-141.833 102.334 -170.5 176.001z" />
    <glyph glyph-name="Egrave" unicode="&#xc8;" horiz-adv-x="1255" 
d="M622 1631l-257 341h225l138 -341h-106zM218 0v1446h903v-150h-702v-476h620v-150h-620v-520h714v-150h-915z" />
    <glyph glyph-name="Eacute" unicode="&#xc9;" horiz-adv-x="1255" 
d="M623 1631l120 341h225l-239 -341h-106zM218 0v1446h903v-150h-702v-476h620v-150h-620v-520h714v-150h-915z" />
    <glyph glyph-name="Ecircumflex" unicode="&#xca;" horiz-adv-x="1255" 
d="M390 1631l216 266h150l206 -266h-156l-124 174l-132 -174h-160zM218 0v1446h903v-150h-702v-476h620v-150h-620v-520h714v-150h-915z" />
    <glyph glyph-name="Edieresis" unicode="&#xcb;" horiz-adv-x="1255" 
d="M321 1631v181h206v-181h-206zM824 1631v181h206v-181h-206zM218 0v1446h903v-150h-702v-476h620v-150h-620v-520h714v-150h-915z" />
    <glyph glyph-name="Igrave" unicode="&#xcc;" horiz-adv-x="1132" 
d="M513 1631l-257 341h225l138 -341h-106zM190 0v150h276v1147h-276v149h752v-149h-275v-1147h275v-150h-752z" />
    <glyph glyph-name="Iacute" unicode="&#xcd;" horiz-adv-x="1132" 
d="M513 1631l120 341h225l-239 -341h-106zM190 0v150h276v1147h-276v149h752v-149h-275v-1147h275v-150h-752z" />
    <glyph glyph-name="Icircumflex" unicode="&#xce;" horiz-adv-x="1132" 
d="M280 1631l216 266h150l206 -266h-156l-124 174l-132 -174h-160zM190 0v150h276v1147h-276v149h752v-149h-275v-1147h275v-150h-752z" />
    <glyph glyph-name="Idieresis" unicode="&#xcf;" horiz-adv-x="1132" 
d="M212 1631v181h206v-181h-206zM715 1631v181h206v-181h-206zM190 0v150h276v1147h-276v149h752v-149h-275v-1147h275v-150h-752z" />
    <glyph glyph-name="Eth" unicode="&#xd0;" horiz-adv-x="1215" 
d="M420 150l354 0.000976562c145.333 0 242.5 27 291.5 81s73.5 131 73.5 231v509c0 147.333 -49.333 243 -148 287c-56 25.333 -128.333 37.666 -217 36.999h-354v-446h358v-151h-358v-548zM76 698.001l-0.000976562 150.999h142v597h574
c276.667 0 449.334 -98 518.001 -294c20 -57.333 30 -121.666 30 -192.999v-477c0 -158 -45.5 -277.833 -136.5 -359.5s-227.5 -122.5 -409.5 -122.5h-576v698h-142z" />
    <glyph glyph-name="Ntilde" unicode="&#xd1;" horiz-adv-x="1594" 
d="M997 1645c0 62 -24.667 93 -74 93c-24 0 -54.333 -17.833 -91 -53.5s-85.5 -53.5 -146.5 -53.5s-107 18 -138 54s-46.5 94.333 -46.5 175h97c0 -62 24.667 -93 74 -93c24 0 54.333 17.833 91 53.5s85.5 53.5 146.5 53.5s107 -18 138 -54s46.5 -94.333 46.5 -175h-97z
M218 0v1446h153l828 -1156v1156h177v-1446h-179l-802 1104v-1104h-177z" />
    <glyph glyph-name="Ograve" unicode="&#xd2;" horiz-adv-x="1546" 
d="M720 1631l-257 341h225l138 -341h-106zM1069 203.5c60 42.333 90 126.168 90 251.501v523c0 125.333 -30.167 211.333 -90.5 258s-155.833 70 -286.5 70c-202.667 0 -325.667 -56 -369 -168c-16.667 -42.667 -25 -96 -25 -160v-523
c0 -124.667 32.667 -208.334 98 -251.001s163.833 -64 295.5 -64s227.5 21.167 287.5 63.5zM233 221.002c-31.333 74 -47 162.332 -47 264.999v455c0 207.333 58.667 351 176 431c94.667 64 234.667 96 420 96c328 0 515.667 -122 563 -366c10 -51.333 15 -109.333 15 -174
v-428c0 -201.333 -57.667 -342.666 -173 -423.999c-92.667 -65.333 -223.334 -98 -392.001 -98s-296.667 22 -384 66s-146.666 103 -177.999 177z" />
    <glyph glyph-name="Oacute" unicode="&#xd3;" horiz-adv-x="1546" 
d="M720 1631l120 341h225l-239 -341h-106zM1069 203.5c60 42.333 90 126.168 90 251.501v523c0 125.333 -30.167 211.333 -90.5 258s-155.833 70 -286.5 70c-202.667 0 -325.667 -56 -369 -168c-16.667 -42.667 -25 -96 -25 -160v-523
c0 -124.667 32.667 -208.334 98 -251.001s163.833 -64 295.5 -64s227.5 21.167 287.5 63.5zM233 221.002c-31.333 74 -47 162.332 -47 264.999v455c0 207.333 58.667 351 176 431c94.667 64 234.667 96 420 96c328 0 515.667 -122 563 -366c10 -51.333 15 -109.333 15 -174
v-428c0 -201.333 -57.667 -342.666 -173 -423.999c-92.667 -65.333 -223.334 -98 -392.001 -98s-296.667 22 -384 66s-146.666 103 -177.999 177z" />
    <glyph glyph-name="Ocircumflex" unicode="&#xd4;" horiz-adv-x="1546" 
d="M487 1631l216 266h150l206 -266h-156l-124 174l-132 -174h-160zM1069 203.5c60 42.333 90 126.168 90 251.501v523c0 125.333 -30.167 211.333 -90.5 258s-155.833 70 -286.5 70c-202.667 0 -325.667 -56 -369 -168c-16.667 -42.667 -25 -96 -25 -160v-523
c0 -124.667 32.667 -208.334 98 -251.001s163.833 -64 295.5 -64s227.5 21.167 287.5 63.5zM233 221.002c-31.333 74 -47 162.332 -47 264.999v455c0 207.333 58.667 351 176 431c94.667 64 234.667 96 420 96c328 0 515.667 -122 563 -366c10 -51.333 15 -109.333 15 -174
v-428c0 -201.333 -57.667 -342.666 -173 -423.999c-92.667 -65.333 -223.334 -98 -392.001 -98s-296.667 22 -384 66s-146.666 103 -177.999 177z" />
    <glyph glyph-name="Otilde" unicode="&#xd5;" horiz-adv-x="1546" 
d="M973 1645c0 62 -24.667 93 -74 93c-24 0 -54.333 -17.833 -91 -53.5s-85.5 -53.5 -146.5 -53.5s-107 18 -138 54s-46.5 94.333 -46.5 175h97c0 -62 24.667 -93 74 -93c24 0 54.333 17.833 91 53.5s85.5 53.5 146.5 53.5s107 -18 138 -54s46.5 -94.333 46.5 -175h-97z
M1069 203.5c60 42.333 90 126.168 90 251.501v523c0 125.333 -30.167 211.333 -90.5 258s-155.833 70 -286.5 70c-202.667 0 -325.667 -56 -369 -168c-16.667 -42.667 -25 -96 -25 -160v-523c0 -124.667 32.667 -208.334 98 -251.001s163.833 -64 295.5 -64
s227.5 21.167 287.5 63.5zM233 221.002c-31.333 74 -47 162.332 -47 264.999v455c0 207.333 58.667 351 176 431c94.667 64 234.667 96 420 96c328 0 515.667 -122 563 -366c10 -51.333 15 -109.333 15 -174v-428c0 -201.333 -57.667 -342.666 -173 -423.999
c-92.667 -65.333 -223.334 -98 -392.001 -98s-296.667 22 -384 66s-146.666 103 -177.999 177z" />
    <glyph glyph-name="Odieresis" unicode="&#xd6;" horiz-adv-x="1546" 
d="M418 1631v181h206v-181h-206zM921 1631v181h206v-181h-206zM1069 203.5c60 42.333 90 126.168 90 251.501v523c0 125.333 -30.167 211.333 -90.5 258s-155.833 70 -286.5 70c-202.667 0 -325.667 -56 -369 -168c-16.667 -42.667 -25 -96 -25 -160v-523
c0 -124.667 32.667 -208.334 98 -251.001s163.833 -64 295.5 -64s227.5 21.167 287.5 63.5zM233 221.002c-31.333 74 -47 162.332 -47 264.999v455c0 207.333 58.667 351 176 431c94.667 64 234.667 96 420 96c328 0 515.667 -122 563 -366c10 -51.333 15 -109.333 15 -174
v-428c0 -201.333 -57.667 -342.666 -173 -423.999c-92.667 -65.333 -223.334 -98 -392.001 -98s-296.667 22 -384 66s-146.666 103 -177.999 177z" />
    <glyph glyph-name="multiply" unicode="&#xd7;" horiz-adv-x="973" 
d="M239 216l-110 128l237 232l-237 230l110 131l248 -243l248 243l109 -131l-236 -230l236 -232l-109 -128l-248 242z" />
    <glyph glyph-name="Oslash" unicode="&#xd8;" horiz-adv-x="1546" 
d="M445 29c-104.667 42 -175.332 105.999 -211.999 191.999c-31.333 74 -47 162.333 -47 265v455c0 207.333 58.667 351 176 431c94.667 64 234.667 96 420 96c69.333 0 132.333 -5.33301 189 -16l83 224l104 -38l-80 -216c147.333 -56 236.333 -162.667 267 -320
c10 -51.333 15 -109.333 15 -174v-428c0 -201.333 -57.667 -342.666 -173 -423.999c-92.667 -65.333 -223.334 -98 -392.001 -98c-94 0 -175.333 7 -244 21l-72 -194l-103 38zM1069 203.499c60 42.333 90 126.167 90 251.5v523c0 125.333 -30 211.333 -90 258
c-14 11.333 -30.333 21 -49 29l-411 -1109c49.333 -10.667 107 -16 173 -16c131.333 0 227 21.167 287 63.5zM914.002 1296c-38.667 6.66699 -82.667 10 -132 10c-202.667 0 -325.667 -56 -369 -168c-16.667 -42.667 -25 -96 -25 -160v-523c0 -132.667 39 -220 117 -262z
" />
    <glyph glyph-name="Ugrave" unicode="&#xd9;" horiz-adv-x="1538" 
d="M716 1631l-257 341h225l138 -341h-106zM776 -22c-257.333 0 -426.668 68 -508.001 204c-45.333 76 -68 173 -68 291v973h202v-994c0 -181.333 86.667 -283.333 260 -306c34 -4 76 -6 126 -6c102.667 0 186.334 20 251.001 60s97 124 97 252v994h202v-973
c0 -187.333 -55.333 -320.333 -166 -399c-90.667 -64 -222.667 -96 -396 -96z" />
    <glyph glyph-name="Uacute" unicode="&#xda;" horiz-adv-x="1538" 
d="M716 1631l120 341h225l-239 -341h-106zM776 -22c-257.333 0 -426.668 68 -508.001 204c-45.333 76 -68 173 -68 291v973h202v-994c0 -181.333 86.667 -283.333 260 -306c34 -4 76 -6 126 -6c102.667 0 186.334 20 251.001 60s97 124 97 252v994h202v-973
c0 -187.333 -55.333 -320.333 -166 -399c-90.667 -64 -222.667 -96 -396 -96z" />
    <glyph glyph-name="Ucircumflex" unicode="&#xdb;" horiz-adv-x="1538" 
d="M483 1631l216 266h150l206 -266h-156l-124 174l-132 -174h-160zM776 -22c-257.333 0 -426.668 68 -508.001 204c-45.333 76 -68 173 -68 291v973h202v-994c0 -181.333 86.667 -283.333 260 -306c34 -4 76 -6 126 -6c102.667 0 186.334 20 251.001 60s97 124 97 252v994
h202v-973c0 -187.333 -55.333 -320.333 -166 -399c-90.667 -64 -222.667 -96 -396 -96z" />
    <glyph glyph-name="Udieresis" unicode="&#xdc;" horiz-adv-x="1538" 
d="M414 1631v181h206v-181h-206zM917 1631v181h206v-181h-206zM776 -22c-257.333 0 -426.668 68 -508.001 204c-45.333 76 -68 173 -68 291v973h202v-994c0 -181.333 86.667 -283.333 260 -306c34 -4 76 -6 126 -6c102.667 0 186.334 20 251.001 60s97 124 97 252v994h202
v-973c0 -187.333 -55.333 -320.333 -166 -399c-90.667 -64 -222.667 -96 -396 -96z" />
    <glyph glyph-name="Yacute" unicode="&#xdd;" horiz-adv-x="1318" 
d="M606 1631l120 341h225l-239 -341h-106zM560 0v568l-512 878h213l400 -702l402 702h207l-509 -878v-568h-201z" />
    <glyph glyph-name="Thorn" unicode="&#xde;" horiz-adv-x="1320" 
d="M212 0v1446h202v-238h374c200 0 325.333 -76 376 -228c18.667 -57.333 28 -127.333 28 -210c0 -166 -35.5 -280.667 -106.5 -344s-170.5 -95 -298.5 -95h-373v-331h-202zM414 484h377c84 0 138.167 25.5 162.5 76.5s36.5 105.167 36.5 162.5s-1 98 -3 122
c-5.33301 66 -22.333 117.5 -51 154.5s-76 55.5 -142 55.5h-380v-571z" />
    <glyph glyph-name="germandbls" unicode="&#xdf;" horiz-adv-x="1281" 
d="M190 0v1103c0 164.667 63 275.334 189 332.001c71.333 32 168.833 48 292.5 48s218.834 -30.5 285.501 -91.5s100 -146.5 100 -256.5c0 -77.333 -12.167 -135.666 -36.5 -174.999s-63.833 -66.666 -118.5 -81.999c62 -26 103 -45.333 123 -58
c94 -60 141 -175.667 141 -347s-53 -293 -159 -365s-263 -108 -471 -108l-18 148c128.667 9.33301 217.667 21 267 35c137.333 39.333 206 135.333 206 288c0 95.333 -17 163.5 -51 204.5s-78.833 67 -134.5 78s-124.167 16.5 -205.5 16.5v142c106 0 177.333 17.5 214 52.5
s55 80.167 55 135.5c0 98.667 -19.5 162 -58.5 190s-86.833 42 -143.5 42s-99.334 -2.5 -128.001 -7.5s-56 -14.167 -82 -27.5c-52.667 -27.333 -79 -82.666 -79 -165.999v-1131h-188z" />
    <glyph glyph-name="agrave" unicode="&#xe0;" horiz-adv-x="1172" 
d="M553 1243l-257 341h225l138 -341h-106zM471 -22c-107.333 0 -190.667 29.165 -250 87.498s-89 130.833 -89 217.5c0 49.333 10.333 90.333 31 123c42 66.667 167.333 130.334 376 191.001c120.667 33.333 190.167 62 208.5 86s28.5 42.833 30.5 56.5s3 35.5 3 65.5
s-12.167 59.333 -36.5 88s-77.166 43 -158.499 43c-114.667 0 -185 -22 -211 -66c-13.333 -22.667 -20 -53.334 -20 -92.001v-47h-181v48c0 103.333 34.5 179.333 103.5 228s172.167 73 309.5 73s235.333 -31.167 294 -93.5s88 -151.166 88 -266.499v-452
c0 -55.333 7 -91.166 21 -107.499s44 -24.5 90 -24.5l-22 -144h-38c-66.667 0 -116.334 12.833 -149.001 38.5s-57.667 65.5 -75 119.5c-55.333 -82.667 -122 -134.667 -200 -156c-37.333 -10.667 -79 -16 -125 -16zM368.499 385.998
c-36.333 -27.333 -54.502 -65.8301 -54.502 -115.497s16.833 -87.167 50.5 -112.5s74.334 -38 122.001 -38s90.834 6.16699 129.501 18.5s73.5 30.666 104.5 54.999s51.167 52.166 60.5 83.499v306c-48.667 -48.667 -120.5 -86.834 -215.5 -114.501
s-160.667 -55.167 -197 -82.5z" />
    <glyph glyph-name="aacute" unicode="&#xe1;" horiz-adv-x="1172" 
d="M553 1243l120 341h225l-239 -341h-106zM471 -22c-107.333 0 -190.667 29.165 -250 87.498s-89 130.833 -89 217.5c0 49.333 10.333 90.333 31 123c42 66.667 167.333 130.334 376 191.001c120.667 33.333 190.167 62 208.5 86s28.5 42.833 30.5 56.5s3 35.5 3 65.5
s-12.167 59.333 -36.5 88s-77.166 43 -158.499 43c-114.667 0 -185 -22 -211 -66c-13.333 -22.667 -20 -53.334 -20 -92.001v-47h-181v48c0 103.333 34.5 179.333 103.5 228s172.167 73 309.5 73s235.333 -31.167 294 -93.5s88 -151.166 88 -266.499v-452
c0 -55.333 7 -91.166 21 -107.499s44 -24.5 90 -24.5l-22 -144h-38c-66.667 0 -116.334 12.833 -149.001 38.5s-57.667 65.5 -75 119.5c-55.333 -82.667 -122 -134.667 -200 -156c-37.333 -10.667 -79 -16 -125 -16zM368.499 385.998
c-36.333 -27.333 -54.502 -65.8301 -54.502 -115.497s16.833 -87.167 50.5 -112.5s74.334 -38 122.001 -38s90.834 6.16699 129.501 18.5s73.5 30.666 104.5 54.999s51.167 52.166 60.5 83.499v306c-48.667 -48.667 -120.5 -86.834 -215.5 -114.501
s-160.667 -55.167 -197 -82.5z" />
    <glyph glyph-name="acircumflex" unicode="&#xe2;" horiz-adv-x="1172" 
d="M320 1243l216 266h150l206 -266h-156l-124 174l-132 -174h-160zM471 -22c-107.333 0 -190.667 29.165 -250 87.498s-89 130.833 -89 217.5c0 49.333 10.333 90.333 31 123c42 66.667 167.333 130.334 376 191.001c120.667 33.333 190.167 62 208.5 86
s28.5 42.833 30.5 56.5s3 35.5 3 65.5s-12.167 59.333 -36.5 88s-77.166 43 -158.499 43c-114.667 0 -185 -22 -211 -66c-13.333 -22.667 -20 -53.334 -20 -92.001v-47h-181v48c0 103.333 34.5 179.333 103.5 228s172.167 73 309.5 73s235.333 -31.167 294 -93.5
s88 -151.166 88 -266.499v-452c0 -55.333 7 -91.166 21 -107.499s44 -24.5 90 -24.5l-22 -144h-38c-66.667 0 -116.334 12.833 -149.001 38.5s-57.667 65.5 -75 119.5c-55.333 -82.667 -122 -134.667 -200 -156c-37.333 -10.667 -79 -16 -125 -16zM368.499 385.998
c-36.333 -27.333 -54.502 -65.8301 -54.502 -115.497s16.833 -87.167 50.5 -112.5s74.334 -38 122.001 -38s90.834 6.16699 129.501 18.5s73.5 30.666 104.5 54.999s51.167 52.166 60.5 83.499v306c-48.667 -48.667 -120.5 -86.834 -215.5 -114.501
s-160.667 -55.167 -197 -82.5z" />
    <glyph glyph-name="atilde" unicode="&#xe3;" horiz-adv-x="1172" 
d="M805 1257c0 62 -24.667 93 -74 93c-24 0 -54.333 -17.833 -91 -53.5s-85.5 -53.5 -146.5 -53.5s-107 18 -138 54s-46.5 94.333 -46.5 175h97c0 -62 24.667 -93 74 -93c24 0 54.333 17.833 91 53.5s85.5 53.5 146.5 53.5s107 -18 138 -54s46.5 -94.333 46.5 -175h-97z
M471 -22c-107.333 0 -190.667 29.165 -250 87.498s-89 130.833 -89 217.5c0 49.333 10.333 90.333 31 123c42 66.667 167.333 130.334 376 191.001c120.667 33.333 190.167 62 208.5 86s28.5 42.833 30.5 56.5s3 35.5 3 65.5s-12.167 59.333 -36.5 88
s-77.166 43 -158.499 43c-114.667 0 -185 -22 -211 -66c-13.333 -22.667 -20 -53.334 -20 -92.001v-47h-181v48c0 103.333 34.5 179.333 103.5 228s172.167 73 309.5 73s235.333 -31.167 294 -93.5s88 -151.166 88 -266.499v-452c0 -55.333 7 -91.166 21 -107.499
s44 -24.5 90 -24.5l-22 -144h-38c-66.667 0 -116.334 12.833 -149.001 38.5s-57.667 65.5 -75 119.5c-55.333 -82.667 -122 -134.667 -200 -156c-37.333 -10.667 -79 -16 -125 -16zM368.499 385.998c-36.333 -27.333 -54.502 -65.8301 -54.502 -115.497
s16.833 -87.167 50.5 -112.5s74.334 -38 122.001 -38s90.834 6.16699 129.501 18.5s73.5 30.666 104.5 54.999s51.167 52.166 60.5 83.499v306c-48.667 -48.667 -120.5 -86.834 -215.5 -114.501s-160.667 -55.167 -197 -82.5z" />
    <glyph glyph-name="adieresis" unicode="&#xe4;" horiz-adv-x="1172" 
d="M252 1243v181h206v-181h-206zM755 1243v181h206v-181h-206zM471 -22c-107.333 0 -190.667 29.165 -250 87.498s-89 130.833 -89 217.5c0 49.333 10.333 90.333 31 123c42 66.667 167.333 130.334 376 191.001c120.667 33.333 190.167 62 208.5 86s28.5 42.833 30.5 56.5
s3 35.5 3 65.5s-12.167 59.333 -36.5 88s-77.166 43 -158.499 43c-114.667 0 -185 -22 -211 -66c-13.333 -22.667 -20 -53.334 -20 -92.001v-47h-181v48c0 103.333 34.5 179.333 103.5 228s172.167 73 309.5 73s235.333 -31.167 294 -93.5s88 -151.166 88 -266.499v-452
c0 -55.333 7 -91.166 21 -107.499s44 -24.5 90 -24.5l-22 -144h-38c-66.667 0 -116.334 12.833 -149.001 38.5s-57.667 65.5 -75 119.5c-55.333 -82.667 -122 -134.667 -200 -156c-37.333 -10.667 -79 -16 -125 -16zM368.499 385.998
c-36.333 -27.333 -54.502 -65.8301 -54.502 -115.497s16.833 -87.167 50.5 -112.5s74.334 -38 122.001 -38s90.834 6.16699 129.501 18.5s73.5 30.666 104.5 54.999s51.167 52.166 60.5 83.499v306c-48.667 -48.667 -120.5 -86.834 -215.5 -114.501
s-160.667 -55.167 -197 -82.5z" />
    <glyph glyph-name="aring" unicode="&#xe5;" horiz-adv-x="1172" 
d="M606 1308c72.667 0 109 37.667 109 113s-36.333 113 -109 113c-32 0 -58.167 -8.66699 -78.5 -26s-30.5 -46 -30.5 -86c0 -76 36.333 -114 109 -114zM606 1243c-54.667 0 -100.667 15.167 -138 45.5s-56 74.5 -56 132.5s18.667 102.167 56 132.5s83.333 45.5 138 45.5
s100.667 -15.167 138 -45.5s56 -74.5 56 -132.5s-18.667 -102.167 -56 -132.5s-83.333 -45.5 -138 -45.5zM471 -22c-107.333 0 -190.667 29.165 -250 87.498s-89 130.833 -89 217.5c0 49.333 10.333 90.333 31 123c42 66.667 167.333 130.334 376 191.001
c120.667 33.333 190.167 62 208.5 86s28.5 42.833 30.5 56.5s3 35.5 3 65.5s-12.167 59.333 -36.5 88s-77.166 43 -158.499 43c-114.667 0 -185 -22 -211 -66c-13.333 -22.667 -20 -53.334 -20 -92.001v-47h-181v48c0 103.333 34.5 179.333 103.5 228s172.167 73 309.5 73
s235.333 -31.167 294 -93.5s88 -151.166 88 -266.499v-452c0 -55.333 7 -91.166 21 -107.499s44 -24.5 90 -24.5l-22 -144h-38c-66.667 0 -116.334 12.833 -149.001 38.5s-57.667 65.5 -75 119.5c-55.333 -82.667 -122 -134.667 -200 -156c-37.333 -10.667 -79 -16 -125 -16
zM368.499 385.998c-36.333 -27.333 -54.502 -65.8301 -54.502 -115.497s16.833 -87.167 50.5 -112.5s74.334 -38 122.001 -38s90.834 6.16699 129.501 18.5s73.5 30.666 104.5 54.999s51.167 52.166 60.5 83.499v306c-48.667 -48.667 -120.5 -86.834 -215.5 -114.501
s-160.667 -55.167 -197 -82.5z" />
    <glyph glyph-name="ae" unicode="&#xe6;" horiz-adv-x="1741" 
d="M785 759c0 120.667 -61.5 180.999 -184.5 180.999s-197.5 -28 -223.5 -84c-16 -33.333 -24 -70.333 -24 -111v-27h-181v28c0 106 35.333 188.167 106 246.5s174.667 87.5 312 87.5c72.667 0 135.834 -12 189.501 -36s89.5 -59 107.5 -105
c59.333 94 159.833 141 301.5 141s247.167 -28 316.5 -84s104 -135.333 104 -238v-247h-636v-183c0 -70.667 17.667 -122.834 53 -156.501s89.666 -50.5 162.999 -50.5s118.833 3.33301 136.5 10s31.834 13.334 42.501 20.001c38 24 59.667 79.667 65 167h170
c-10.667 -128.667 -45.834 -217.167 -105.501 -265.5s-162.5 -72.5 -308.5 -72.5c-90 0 -158.5 15.333 -205.5 46s-82.167 74.667 -105.5 132c-98 -118.667 -234.333 -178 -409 -178c-107.333 0 -190.5 28.833 -249.5 86.5s-88.5 134.334 -88.5 230.001
s32.5 166.167 97.5 211.5s157.5 77.333 277.5 96c119.333 18.667 192.333 32 219 40c40 10.667 60 49 60 115zM317 329.499c-3.33301 -13.667 -4.99902 -34.3311 -4.99902 -61.998s8 -54.5 24 -80.5c30.667 -49.333 86.667 -74 168 -74
c81.333 -0.666992 154.333 24.333 219 75c32 25.333 52.667 53.666 62 84.999v274c-36.667 -22 -90.334 -39 -161.001 -51s-119.5 -21.833 -146.5 -29.5s-49.667 -16.5 -68 -26.5s-34 -20.667 -47 -32s-23 -23.833 -30 -37.5s-12.167 -27.334 -15.5 -41.001z
M973.001 633.002h464v145c0 60 -20.333 101.667 -61 125s-100 35 -178 35s-135 -13.667 -171 -41s-54 -73 -54 -137v-127z" />
    <glyph glyph-name="ccedilla" unicode="&#xe7;" horiz-adv-x="1110" 
d="M553 -492c-32 0 -63.001 2.66797 -93.001 8.00098v96c24 -4.66699 53.333 -7 88 -7s63.834 9.5 87.501 28.5s35.5 43.667 35.5 74s-14.833 59 -44.5 86s-68.167 41.167 -115.5 42.5v158h62l6 -94c70 -12.667 124.333 -38.834 163 -78.501s58 -84 58 -133
s-21.667 -91.333 -65 -127s-104 -53.5 -182 -53.5zM578.999 -21.999c-216.667 0 -352.334 75.332 -407.001 225.999c-16 42.667 -24 89.334 -24 140.001v404c0 100.667 38.333 181.167 115 241.5s180.334 90.5 311.001 90.5c166.667 0 281.334 -36 344.001 -108
c49.333 -56 74 -138.667 74 -248l-179 -17c0 94.667 -16.833 156.5 -50.5 185.5s-93.5 43.5 -179.5 43.5s-148.667 -15 -188 -45s-59 -79.333 -59 -148v-415c0 -73.333 20.667 -126 62 -158s105.166 -48 191.499 -48s144 11.333 173 34s46.833 74 53.5 154h174
c-10.667 -122.667 -46 -208.667 -106 -258s-161.667 -74 -305 -74z" />
    <glyph glyph-name="egrave" unicode="&#xe8;" horiz-adv-x="1158" 
d="M524 1243l-257 341h225l138 -341h-106zM589 -22c-155.333 0 -267.663 32.333 -336.996 97s-104 164.334 -104 299.001v369c0 104.667 35.667 187 107 247s179.166 90 323.499 90s251.666 -27.833 321.999 -83.5s105.5 -135.167 105.5 -238.5v-252h-670v-149
c0 -88 17.667 -149.167 53 -183.5s99 -51.5 191 -51.5s144 2 156 6s24.333 8.66699 37 14s21.5 11.666 26.5 18.999s11.667 18.5 20 33.5s14.5 44.167 18.5 87.5h166c-6.66699 -63.333 -17.834 -114.333 -33.501 -153s-40.334 -69.5 -74.001 -92.5s-74 -38.5 -121 -46.5
s-109.167 -12 -186.5 -12zM336.003 633h487.999v145c0 60 -20.5 101.333 -61.5 124s-101.167 34 -180.5 34s-140.166 -13.667 -182.499 -41s-63.5 -72.333 -63.5 -135v-127z" />
    <glyph glyph-name="eacute" unicode="&#xe9;" horiz-adv-x="1158" 
d="M524 1243l120 341h225l-239 -341h-106zM589 -22c-155.333 0 -267.663 32.333 -336.996 97s-104 164.334 -104 299.001v369c0 104.667 35.667 187 107 247s179.166 90 323.499 90s251.666 -27.833 321.999 -83.5s105.5 -135.167 105.5 -238.5v-252h-670v-149
c0 -88 17.667 -149.167 53 -183.5s99 -51.5 191 -51.5s144 2 156 6s24.333 8.66699 37 14s21.5 11.666 26.5 18.999s11.667 18.5 20 33.5s14.5 44.167 18.5 87.5h166c-6.66699 -63.333 -17.834 -114.333 -33.501 -153s-40.334 -69.5 -74.001 -92.5s-74 -38.5 -121 -46.5
s-109.167 -12 -186.5 -12zM336.003 633h487.999v145c0 60 -20.5 101.333 -61.5 124s-101.167 34 -180.5 34s-140.166 -13.667 -182.499 -41s-63.5 -72.333 -63.5 -135v-127z" />
    <glyph glyph-name="ecircumflex" unicode="&#xea;" horiz-adv-x="1158" 
d="M291 1243l216 266h150l206 -266h-156l-124 174l-132 -174h-160zM589 -22c-155.333 0 -267.663 32.333 -336.996 97s-104 164.334 -104 299.001v369c0 104.667 35.667 187 107 247s179.166 90 323.499 90s251.666 -27.833 321.999 -83.5s105.5 -135.167 105.5 -238.5v-252
h-670v-149c0 -88 17.667 -149.167 53 -183.5s99 -51.5 191 -51.5s144 2 156 6s24.333 8.66699 37 14s21.5 11.666 26.5 18.999s11.667 18.5 20 33.5s14.5 44.167 18.5 87.5h166c-6.66699 -63.333 -17.834 -114.333 -33.501 -153s-40.334 -69.5 -74.001 -92.5
s-74 -38.5 -121 -46.5s-109.167 -12 -186.5 -12zM336.003 633h487.999v145c0 60 -20.5 101.333 -61.5 124s-101.167 34 -180.5 34s-140.166 -13.667 -182.499 -41s-63.5 -72.333 -63.5 -135v-127z" />
    <glyph glyph-name="edieresis" unicode="&#xeb;" horiz-adv-x="1158" 
d="M222 1243v181h206v-181h-206zM725 1243v181h206v-181h-206zM589 -22c-155.333 0 -267.663 32.333 -336.996 97s-104 164.334 -104 299.001v369c0 104.667 35.667 187 107 247s179.166 90 323.499 90s251.666 -27.833 321.999 -83.5s105.5 -135.167 105.5 -238.5v-252
h-670v-149c0 -88 17.667 -149.167 53 -183.5s99 -51.5 191 -51.5s144 2 156 6s24.333 8.66699 37 14s21.5 11.666 26.5 18.999s11.667 18.5 20 33.5s14.5 44.167 18.5 87.5h166c-6.66699 -63.333 -17.834 -114.333 -33.501 -153s-40.334 -69.5 -74.001 -92.5
s-74 -38.5 -121 -46.5s-109.167 -12 -186.5 -12zM336.003 633h487.999v145c0 60 -20.5 101.333 -61.5 124s-101.167 34 -180.5 34s-140.166 -13.667 -182.499 -41s-63.5 -72.333 -63.5 -135v-127z" />
    <glyph glyph-name="igrave" unicode="&#xec;" horiz-adv-x="596" 
d="M247 1243l-257 341h225l138 -341h-106zM206 0v1060h188v-1060h-188z" />
    <glyph glyph-name="iacute" unicode="&#xed;" horiz-adv-x="596" 
d="M247 1243l120 341h225l-239 -341h-106zM206 0v1060h188v-1060h-188z" />
    <glyph glyph-name="icircumflex" unicode="&#xee;" horiz-adv-x="596" 
d="M14 1243l216 266h150l206 -266h-156l-124 174l-132 -174h-160zM206 0v1060h188v-1060h-188z" />
    <glyph glyph-name="idieresis" unicode="&#xef;" horiz-adv-x="596" 
d="M-54 1243v181h206v-181h-206zM449 1243v181h206v-181h-206zM206 0v1060h188v-1060h-188z" />
    <glyph glyph-name="eth" unicode="&#xf0;" horiz-adv-x="1158" 
d="M587 -20c-150.667 0 -261.167 29.668 -331.5 89.001s-105.5 141 -105.5 245v332c0 100 39.833 179.833 119.5 239.5s185.5 89.5 317.5 89.5c32 0 69 -6 111 -18s70 -24 84 -36c-25.333 117.333 -84 217 -176 299l-215 -142l-68 84l191 126
c-69.333 44.667 -159.666 84.334 -270.999 119.001l74 108c125.333 -26.667 235 -73.334 329 -140.001l148 98l69 -84l-130 -86c184.667 -174.667 277 -430.334 277 -767.001v-171c0 -103.333 -15.333 -181.333 -46 -234c-58.667 -100.667 -184.334 -151 -377.001 -151z
M587 833.001c-166.667 0 -250.003 -60.332 -250.003 -180.999v-344c0 -67.333 21.833 -115.333 65.5 -144s109.334 -43 197.001 -43s146.834 16.667 177.501 50c30.667 32.667 47.334 77 50.001 133c0.666992 13.333 1 31.666 1 54.999v234c0 42.667 -7.66699 106 -23 190
c-20 14 -53 25.833 -99 35.5s-85.667 14.5 -119 14.5z" />
    <glyph glyph-name="ntilde" unicode="&#xf1;" horiz-adv-x="1226" 
d="M817 1257c0 62 -24.667 93 -74 93c-24 0 -54.333 -17.833 -91 -53.5s-85.5 -53.5 -146.5 -53.5s-107 18 -138 54s-46.5 94.333 -46.5 175h97c0 -62 24.667 -93 74 -93c24 0 54.333 17.833 91 53.5s85.5 53.5 146.5 53.5s107 -18 138 -54s46.5 -94.333 46.5 -175h-97z
M862 781c0 103.333 -79.001 155 -237.001 155c-78 0 -139.333 -16.667 -184 -50s-67 -77 -67 -131v-755h-188v1060h188v-103c70.667 82 175.334 123 314.001 123c180 0 294 -63.333 342 -190c13.333 -36 20 -76 20 -120v-770h-188v781z" />
    <glyph glyph-name="ograve" unicode="&#xf2;" horiz-adv-x="1174" 
d="M534 1243l-257 341h225l138 -341h-106zM587 122c167.333 0 251 59 251 177v459c0 118.667 -83.667 178 -251 178s-251 -59.333 -251 -178v-459c0 -118 83.667 -177 251 -177zM919.5 68.5c-71 -60.333 -182.167 -90.5 -333.5 -90.5s-262.166 30 -332.499 90
s-105.5 142.333 -105.5 247v427c0 104.667 35.167 187.167 105.5 247.5s181.166 90.5 332.499 90.5s262.5 -30.333 333.5 -91s106.5 -143 106.5 -247v-427c0 -104 -35.5 -186.167 -106.5 -246.5z" />
    <glyph glyph-name="oacute" unicode="&#xf3;" horiz-adv-x="1174" 
d="M534 1243l120 341h225l-239 -341h-106zM587 122c167.333 0 251 59 251 177v459c0 118.667 -83.667 178 -251 178s-251 -59.333 -251 -178v-459c0 -118 83.667 -177 251 -177zM919.5 68.5c-71 -60.333 -182.167 -90.5 -333.5 -90.5s-262.166 30 -332.499 90
s-105.5 142.333 -105.5 247v427c0 104.667 35.167 187.167 105.5 247.5s181.166 90.5 332.499 90.5s262.5 -30.333 333.5 -91s106.5 -143 106.5 -247v-427c0 -104 -35.5 -186.167 -106.5 -246.5z" />
    <glyph glyph-name="ocircumflex" unicode="&#xf4;" horiz-adv-x="1174" 
d="M301 1243l216 266h150l206 -266h-156l-124 174l-132 -174h-160zM587 122c167.333 0 251 59 251 177v459c0 118.667 -83.667 178 -251 178s-251 -59.333 -251 -178v-459c0 -118 83.667 -177 251 -177zM919.5 68.5c-71 -60.333 -182.167 -90.5 -333.5 -90.5
s-262.166 30 -332.499 90s-105.5 142.333 -105.5 247v427c0 104.667 35.167 187.167 105.5 247.5s181.166 90.5 332.499 90.5s262.5 -30.333 333.5 -91s106.5 -143 106.5 -247v-427c0 -104 -35.5 -186.167 -106.5 -246.5z" />
    <glyph glyph-name="otilde" unicode="&#xf5;" horiz-adv-x="1174" 
d="M787 1257c0 62 -24.667 93 -74 93c-24 0 -54.333 -17.833 -91 -53.5s-85.5 -53.5 -146.5 -53.5s-107 18 -138 54s-46.5 94.333 -46.5 175h97c0 -62 24.667 -93 74 -93c24 0 54.333 17.833 91 53.5s85.5 53.5 146.5 53.5s107 -18 138 -54s46.5 -94.333 46.5 -175h-97z
M587 122c167.333 0 251 59 251 177v459c0 118.667 -83.667 178 -251 178s-251 -59.333 -251 -178v-459c0 -118 83.667 -177 251 -177zM919.5 68.5c-71 -60.333 -182.167 -90.5 -333.5 -90.5s-262.166 30 -332.499 90s-105.5 142.333 -105.5 247v427
c0 104.667 35.167 187.167 105.5 247.5s181.166 90.5 332.499 90.5s262.5 -30.333 333.5 -91s106.5 -143 106.5 -247v-427c0 -104 -35.5 -186.167 -106.5 -246.5z" />
    <glyph glyph-name="odieresis" unicode="&#xf6;" horiz-adv-x="1174" 
d="M232 1243v181h206v-181h-206zM735 1243v181h206v-181h-206zM587 122c167.333 0 251 59 251 177v459c0 118.667 -83.667 178 -251 178s-251 -59.333 -251 -178v-459c0 -118 83.667 -177 251 -177zM919.5 68.5c-71 -60.333 -182.167 -90.5 -333.5 -90.5
s-262.166 30 -332.499 90s-105.5 142.333 -105.5 247v427c0 104.667 35.167 187.167 105.5 247.5s181.166 90.5 332.499 90.5s262.5 -30.333 333.5 -91s106.5 -143 106.5 -247v-427c0 -104 -35.5 -186.167 -106.5 -246.5z" />
    <glyph glyph-name="divide" unicode="&#xf7;" horiz-adv-x="1025" 
d="M413 90v209h205v-209h-205zM100 472v137h825v-137h-825zM413 787v209h205v-209h-205z" />
    <glyph glyph-name="oslash" unicode="&#xf8;" horiz-adv-x="1174" 
d="M919.5 68.5c-71 -60.333 -182.164 -90.5 -333.497 -90.5c-52.667 0 -100.334 3.66699 -143.001 11l-80 -215l-92 31l78 208c-36.667 14 -68.334 32.333 -95.001 55c-70.667 60 -106 142.333 -106 247v427c0 104.667 35.167 187.167 105.5 247.5
s181.166 90.5 332.499 90.5c58 0 110 -4.33301 156 -13l69 184l90 -31l-67 -180c33.333 -13.333 62 -30.333 86 -51c70.667 -60.667 106 -143 106 -247v-427c0 -104 -35.5 -186.167 -106.5 -246.5zM587.003 122c167.333 0 251 59 251 177v459c0 58 -20 101.667 -60 131
l-283 -760c27.333 -4.66699 58 -7 92 -7zM690.003 926c-30 6.66699 -64.333 10 -103 10c-167.333 0 -251 -59.333 -251 -178v-459c0 -61.333 22.667 -107 68 -137z" />
    <glyph glyph-name="ugrave" unicode="&#xf9;" horiz-adv-x="1224" 
d="M554 1243l-257 341h225l138 -341h-106zM541 -22c-180.667 0 -295.333 64 -344 192c-14 36.667 -21 76.667 -21 120v770h188v-771c0 -52 19.167 -92.833 57.5 -122.5s95.5 -44.5 171.5 -44.5s137.833 18.833 185.5 56.5s71.5 81.167 71.5 130.5v751h188v-1060h-168
l-20 133c-58.667 -103.333 -161.667 -155 -309 -155z" />
    <glyph glyph-name="uacute" unicode="&#xfa;" horiz-adv-x="1224" 
d="M554 1243l120 341h225l-239 -341h-106zM541 -22c-180.667 0 -295.333 64 -344 192c-14 36.667 -21 76.667 -21 120v770h188v-771c0 -52 19.167 -92.833 57.5 -122.5s95.5 -44.5 171.5 -44.5s137.833 18.833 185.5 56.5s71.5 81.167 71.5 130.5v751h188v-1060h-168
l-20 133c-58.667 -103.333 -161.667 -155 -309 -155z" />
    <glyph glyph-name="ucircumflex" unicode="&#xfb;" horiz-adv-x="1224" 
d="M321 1243l216 266h150l206 -266h-156l-124 174l-132 -174h-160zM541 -22c-180.667 0 -295.333 64 -344 192c-14 36.667 -21 76.667 -21 120v770h188v-771c0 -52 19.167 -92.833 57.5 -122.5s95.5 -44.5 171.5 -44.5s137.833 18.833 185.5 56.5s71.5 81.167 71.5 130.5
v751h188v-1060h-168l-20 133c-58.667 -103.333 -161.667 -155 -309 -155z" />
    <glyph glyph-name="udieresis" unicode="&#xfc;" horiz-adv-x="1224" 
d="M252 1243v181h206v-181h-206zM755 1243v181h206v-181h-206zM541 -22c-180.667 0 -295.333 64 -344 192c-14 36.667 -21 76.667 -21 120v770h188v-771c0 -52 19.167 -92.833 57.5 -122.5s95.5 -44.5 171.5 -44.5s137.833 18.833 185.5 56.5s71.5 81.167 71.5 130.5v751
h188v-1060h-168l-20 133c-58.667 -103.333 -161.667 -155 -309 -155z" />
    <glyph glyph-name="yacute" unicode="&#xfd;" horiz-adv-x="1118" 
d="M515 1243l120 341h225l-239 -341h-106zM198 -406v147.001c82.667 0 149.5 20.333 200.5 61s89.167 108 114.5 202l-437 1056h199l324 -844l271 844h190l-348 -1015c-46 -134 -87.5 -226.833 -124.5 -278.5s-72.5 -87.834 -106.5 -108.501
c-70 -42.667 -164.333 -64 -283 -64z" />
    <glyph glyph-name="thorn" unicode="&#xfe;" horiz-adv-x="1194" 
d="M177 -408l2.00293 1914h186v-512c31.333 23.333 71.666 42.833 120.999 58.5s100.333 23.5 153 23.5c131.333 0 231.666 -31.5 300.999 -94.5s104 -147.167 104 -252.5v-385c0 -109.333 -37.833 -198 -113.5 -266s-180.834 -102 -315.501 -102
c-90.667 0 -174 19.333 -250 58v-442h-188zM365.003 179c73.333 -41.333 150.167 -61.999 230.5 -61.999s143.833 18.5 190.5 55.5s70 87.5 70 151.5v418c0 61.333 -23 108.666 -69 141.999s-101.5 50 -166.5 50s-120.333 -13.167 -166 -39.5s-75.5 -49.833 -89.5 -70.5
v-645z" />
    <glyph glyph-name="ydieresis" unicode="&#xff;" horiz-adv-x="1118" 
d="M214 1243v181h206v-181h-206zM717 1243v181h206v-181h-206zM198 -406v147.001c82.667 0 149.5 20.333 200.5 61s89.167 108 114.5 202l-437 1056h199l324 -844l271 844h190l-348 -1015c-46 -134 -87.5 -226.833 -124.5 -278.5s-72.5 -87.834 -106.5 -108.501
c-70 -42.667 -164.333 -64 -283 -64z" />
    <glyph glyph-name="Amacron" unicode="&#x100;" horiz-adv-x="1428" 
d="M514 1631v152h401v-152h-401zM86 0l539 1446h177l540 -1446h-205l-98 282h-645l-99 -282h-209zM442 425h551l-274 791z" />
    <glyph glyph-name="amacron" unicode="&#x101;" horiz-adv-x="1172" 
d="M406 1243v152h401v-152h-401zM471 -22c-107.333 0 -190.667 29.165 -250 87.498s-89 130.833 -89 217.5c0 49.333 10.333 90.333 31 123c42 66.667 167.333 130.334 376 191.001c120.667 33.333 190.167 62 208.5 86s28.5 42.833 30.5 56.5s3 35.5 3 65.5
s-12.167 59.333 -36.5 88s-77.166 43 -158.499 43c-114.667 0 -185 -22 -211 -66c-13.333 -22.667 -20 -53.334 -20 -92.001v-47h-181v48c0 103.333 34.5 179.333 103.5 228s172.167 73 309.5 73s235.333 -31.167 294 -93.5s88 -151.166 88 -266.499v-452
c0 -55.333 7 -91.166 21 -107.499s44 -24.5 90 -24.5l-22 -144h-38c-66.667 0 -116.334 12.833 -149.001 38.5s-57.667 65.5 -75 119.5c-55.333 -82.667 -122 -134.667 -200 -156c-37.333 -10.667 -79 -16 -125 -16zM368.499 385.998
c-36.333 -27.333 -54.502 -65.8301 -54.502 -115.497s16.833 -87.167 50.5 -112.5s74.334 -38 122.001 -38s90.834 6.16699 129.501 18.5s73.5 30.666 104.5 54.999s51.167 52.166 60.5 83.499v306c-48.667 -48.667 -120.5 -86.834 -215.5 -114.501
s-160.667 -55.167 -197 -82.5z" />
    <glyph glyph-name="Abreve" unicode="&#x102;" horiz-adv-x="1428" 
d="M714 1631c-67.333 0 -121.833 20.5 -163.5 61.5s-62.5 91.167 -62.5 150.5h105c0 -33.333 11.5 -61 34.5 -83s52.333 -33 88 -33s64.5 10.667 86.5 32s33 49.333 33 84h105c0 -59.333 -20.833 -109.5 -62.5 -150.5s-96.167 -61.5 -163.5 -61.5zM86 0l539 1446h177
l540 -1446h-205l-98 282h-645l-99 -282h-209zM442 425h551l-274 791z" />
    <glyph glyph-name="abreve" unicode="&#x103;" horiz-adv-x="1172" 
d="M606 1243c-67.333 0 -121.833 20.5 -163.5 61.5s-62.5 91.167 -62.5 150.5h105c0 -33.333 11.5 -61 34.5 -83s52.333 -33 88 -33s64.5 10.667 86.5 32s33 49.333 33 84h105c0 -59.333 -20.833 -109.5 -62.5 -150.5s-96.167 -61.5 -163.5 -61.5zM471 -22
c-107.333 0 -190.667 29.165 -250 87.498s-89 130.833 -89 217.5c0 49.333 10.333 90.333 31 123c42 66.667 167.333 130.334 376 191.001c120.667 33.333 190.167 62 208.5 86s28.5 42.833 30.5 56.5s3 35.5 3 65.5s-12.167 59.333 -36.5 88s-77.166 43 -158.499 43
c-114.667 0 -185 -22 -211 -66c-13.333 -22.667 -20 -53.334 -20 -92.001v-47h-181v48c0 103.333 34.5 179.333 103.5 228s172.167 73 309.5 73s235.333 -31.167 294 -93.5s88 -151.166 88 -266.499v-452c0 -55.333 7 -91.166 21 -107.499s44 -24.5 90 -24.5l-22 -144h-38
c-66.667 0 -116.334 12.833 -149.001 38.5s-57.667 65.5 -75 119.5c-55.333 -82.667 -122 -134.667 -200 -156c-37.333 -10.667 -79 -16 -125 -16zM368.499 385.998c-36.333 -27.333 -54.502 -65.8301 -54.502 -115.497s16.833 -87.167 50.5 -112.5s74.334 -38 122.001 -38
s90.834 6.16699 129.501 18.5s73.5 30.666 104.5 54.999s51.167 52.166 60.5 83.499v306c-48.667 -48.667 -120.5 -86.834 -215.5 -114.501s-160.667 -55.167 -197 -82.5z" />
    <glyph glyph-name="Aogonek" unicode="&#x104;" horiz-adv-x="1428" 
d="M1313 -479c-89.333 0 -160.5 17.6689 -213.5 53.002s-79.5 82.666 -79.5 141.999c0 91.333 60.667 188.333 182 291h62c-34 -32.667 -62.5 -72.834 -85.5 -120.501s-34.5 -92.5 -34.5 -134.5c0 -89.333 56.333 -134 169 -134v-97zM86 0.00195312l539 1446h177l540 -1446
h-205l-98 282h-645l-99 -282h-209zM442 425.002h551l-274 791z" />
    <glyph glyph-name="aogonek" unicode="&#x105;" horiz-adv-x="1172" 
d="M1095 -486c-89.333 0 -160.5 17.6689 -213.5 53.002s-79.5 82.666 -79.5 141.999c0 91.333 60.667 188.333 182 291h62c-34 -32.667 -62.5 -72.834 -85.5 -120.501s-34.5 -92.5 -34.5 -134.5c0 -89.333 56.333 -134 169 -134v-97zM471 -21.998
c-107.333 0 -190.667 29.165 -250 87.498s-89 130.833 -89 217.5c0 49.333 10.333 90.333 31 123c42 66.667 167.333 130.334 376 191.001c120.667 33.333 190.167 62 208.5 86s28.5 42.833 30.5 56.5s3 35.5 3 65.5s-12.167 59.333 -36.5 88s-77.166 43 -158.499 43
c-114.667 0 -185 -22 -211 -66c-13.333 -22.667 -20 -53.334 -20 -92.001v-47h-181v48c0 103.333 34.5 179.333 103.5 228s172.167 73 309.5 73s235.333 -31.167 294 -93.5s88 -151.166 88 -266.499v-452c0 -55.333 7 -91.166 21 -107.499s44 -24.5 90 -24.5l-22 -144h-38
c-66.667 0 -116.334 12.833 -149.001 38.5s-57.667 65.5 -75 119.5c-55.333 -82.667 -122 -134.667 -200 -156c-37.333 -10.667 -79 -16 -125 -16zM368.499 386c-36.333 -27.333 -54.502 -65.8301 -54.502 -115.497s16.833 -87.167 50.5 -112.5s74.334 -38 122.001 -38
s90.834 6.16699 129.501 18.5s73.5 30.666 104.5 54.999s51.167 52.166 60.5 83.499v306c-48.667 -48.667 -120.5 -86.834 -215.5 -114.501s-160.667 -55.167 -197 -82.5z" />
    <glyph glyph-name="Cacute" unicode="&#x106;" horiz-adv-x="1456" 
d="M688 1631l120 341h225l-239 -341h-106zM225 219.5c-28.667 73.667 -43.0029 162.499 -43.0029 266.499v454c0 210.667 54.667 354.334 164 431.001c92.667 64.667 227.5 97 404.5 97s305.5 -24.5 385.5 -73.5s130 -125.833 150 -230.5
c9.33301 -46.667 14 -102.334 14 -167.001l-191 -17c0 97.333 -8.33301 163.166 -25 197.499s-33.167 58.833 -49.5 73.5s-43.166 27.5 -80.499 38.5s-95.666 16.5 -174.999 16.5s-141.666 -5.33301 -186.999 -16c-45.333 -10 -84 -27.333 -116 -52
c-61.333 -47.333 -92 -134.333 -92 -261v-522c0 -125.333 31 -209.166 93 -251.499s160.833 -63.5 296.5 -63.5s222.167 16 259.5 48s60.333 78.667 69 140c4.66699 33.333 7 73.333 7 120h191c0 -145.333 -21 -247.333 -63 -306c-77.333 -109.333 -224.333 -164 -441 -164
c-182 0 -315.5 21.833 -400.5 65.5s-141.833 102.334 -170.5 176.001z" />
    <glyph glyph-name="cacute" unicode="&#x107;" horiz-adv-x="1110" 
d="M517 1243l120 341h225l-239 -341h-106zM579 -22c-216.667 0 -352.334 75.332 -407.001 225.999c-16 42.667 -24 89.334 -24 140.001v404c0 100.667 38.333 181.167 115 241.5s180.334 90.5 311.001 90.5c166.667 0 281.334 -36 344.001 -108
c49.333 -56 74 -138.667 74 -248l-179 -17c0 94.667 -16.833 156.5 -50.5 185.5s-93.5 43.5 -179.5 43.5s-148.667 -15 -188 -45s-59 -79.333 -59 -148v-415c0 -73.333 20.667 -126 62 -158s105.166 -48 191.499 -48s144 11.333 173 34s46.833 74 53.5 154h174
c-10.667 -122.667 -46 -208.667 -106 -258s-161.667 -74 -305 -74z" />
    <glyph glyph-name="Ccircumflex" unicode="&#x108;" horiz-adv-x="1456" 
d="M455 1631l216 266h150l206 -266h-156l-124 174l-132 -174h-160zM225 219.5c-28.667 73.667 -43.0029 162.499 -43.0029 266.499v454c0 210.667 54.667 354.334 164 431.001c92.667 64.667 227.5 97 404.5 97s305.5 -24.5 385.5 -73.5s130 -125.833 150 -230.5
c9.33301 -46.667 14 -102.334 14 -167.001l-191 -17c0 97.333 -8.33301 163.166 -25 197.499s-33.167 58.833 -49.5 73.5s-43.166 27.5 -80.499 38.5s-95.666 16.5 -174.999 16.5s-141.666 -5.33301 -186.999 -16c-45.333 -10 -84 -27.333 -116 -52
c-61.333 -47.333 -92 -134.333 -92 -261v-522c0 -125.333 31 -209.166 93 -251.499s160.833 -63.5 296.5 -63.5s222.167 16 259.5 48s60.333 78.667 69 140c4.66699 33.333 7 73.333 7 120h191c0 -145.333 -21 -247.333 -63 -306c-77.333 -109.333 -224.333 -164 -441 -164
c-182 0 -315.5 21.833 -400.5 65.5s-141.833 102.334 -170.5 176.001z" />
    <glyph glyph-name="ccircumflex" unicode="&#x109;" horiz-adv-x="1110" 
d="M284 1243l216 266h150l206 -266h-156l-124 174l-132 -174h-160zM579 -22c-216.667 0 -352.334 75.332 -407.001 225.999c-16 42.667 -24 89.334 -24 140.001v404c0 100.667 38.333 181.167 115 241.5s180.334 90.5 311.001 90.5c166.667 0 281.334 -36 344.001 -108
c49.333 -56 74 -138.667 74 -248l-179 -17c0 94.667 -16.833 156.5 -50.5 185.5s-93.5 43.5 -179.5 43.5s-148.667 -15 -188 -45s-59 -79.333 -59 -148v-415c0 -73.333 20.667 -126 62 -158s105.166 -48 191.499 -48s144 11.333 173 34s46.833 74 53.5 154h174
c-10.667 -122.667 -46 -208.667 -106 -258s-161.667 -74 -305 -74z" />
    <glyph glyph-name="Cdotaccent" unicode="&#x10a;" horiz-adv-x="1456" 
d="M638 1631v206h205v-206h-205zM225 219.5c-28.667 73.667 -43.0029 162.499 -43.0029 266.499v454c0 210.667 54.667 354.334 164 431.001c92.667 64.667 227.5 97 404.5 97s305.5 -24.5 385.5 -73.5s130 -125.833 150 -230.5c9.33301 -46.667 14 -102.334 14 -167.001
l-191 -17c0 97.333 -8.33301 163.166 -25 197.499s-33.167 58.833 -49.5 73.5s-43.166 27.5 -80.499 38.5s-95.666 16.5 -174.999 16.5s-141.666 -5.33301 -186.999 -16c-45.333 -10 -84 -27.333 -116 -52c-61.333 -47.333 -92 -134.333 -92 -261v-522
c0 -125.333 31 -209.166 93 -251.499s160.833 -63.5 296.5 -63.5s222.167 16 259.5 48s60.333 78.667 69 140c4.66699 33.333 7 73.333 7 120h191c0 -145.333 -21 -247.333 -63 -306c-77.333 -109.333 -224.333 -164 -441 -164c-182 0 -315.5 21.833 -400.5 65.5
s-141.833 102.334 -170.5 176.001z" />
    <glyph glyph-name="cdotaccent" unicode="&#x10b;" horiz-adv-x="1110" 
d="M468 1243v206h205v-206h-205zM579 -22c-216.667 0 -352.334 75.332 -407.001 225.999c-16 42.667 -24 89.334 -24 140.001v404c0 100.667 38.333 181.167 115 241.5s180.334 90.5 311.001 90.5c166.667 0 281.334 -36 344.001 -108c49.333 -56 74 -138.667 74 -248
l-179 -17c0 94.667 -16.833 156.5 -50.5 185.5s-93.5 43.5 -179.5 43.5s-148.667 -15 -188 -45s-59 -79.333 -59 -148v-415c0 -73.333 20.667 -126 62 -158s105.166 -48 191.499 -48s144 11.333 173 34s46.833 74 53.5 154h174c-10.667 -122.667 -46 -208.667 -106 -258
s-161.667 -74 -305 -74z" />
    <glyph glyph-name="Ccaron" unicode="&#x10c;" horiz-adv-x="1456" 
d="M660 1631l-205 266h155l124 -174l132 174h161l-217 -266h-150zM225 219.5c-28.667 73.667 -43.0029 162.499 -43.0029 266.499v454c0 210.667 54.667 354.334 164 431.001c92.667 64.667 227.5 97 404.5 97s305.5 -24.5 385.5 -73.5s130 -125.833 150 -230.5
c9.33301 -46.667 14 -102.334 14 -167.001l-191 -17c0 97.333 -8.33301 163.166 -25 197.499s-33.167 58.833 -49.5 73.5s-43.166 27.5 -80.499 38.5s-95.666 16.5 -174.999 16.5s-141.666 -5.33301 -186.999 -16c-45.333 -10 -84 -27.333 -116 -52
c-61.333 -47.333 -92 -134.333 -92 -261v-522c0 -125.333 31 -209.166 93 -251.499s160.833 -63.5 296.5 -63.5s222.167 16 259.5 48s60.333 78.667 69 140c4.66699 33.333 7 73.333 7 120h191c0 -145.333 -21 -247.333 -63 -306c-77.333 -109.333 -224.333 -164 -441 -164
c-182 0 -315.5 21.833 -400.5 65.5s-141.833 102.334 -170.5 176.001z" />
    <glyph glyph-name="ccaron" unicode="&#x10d;" horiz-adv-x="1110" 
d="M489 1243l-205 266h155l124 -174l132 174h161l-217 -266h-150zM579 -22c-216.667 0 -352.334 75.332 -407.001 225.999c-16 42.667 -24 89.334 -24 140.001v404c0 100.667 38.333 181.167 115 241.5s180.334 90.5 311.001 90.5c166.667 0 281.334 -36 344.001 -108
c49.333 -56 74 -138.667 74 -248l-179 -17c0 94.667 -16.833 156.5 -50.5 185.5s-93.5 43.5 -179.5 43.5s-148.667 -15 -188 -45s-59 -79.333 -59 -148v-415c0 -73.333 20.667 -126 62 -158s105.166 -48 191.499 -48s144 11.333 173 34s46.833 74 53.5 154h174
c-10.667 -122.667 -46 -208.667 -106 -258s-161.667 -74 -305 -74z" />
    <glyph glyph-name="Dcaron" unicode="&#x10e;" horiz-adv-x="1522" 
d="M698 1631l-205 266h155l124 -174l132 174h161l-217 -266h-150zM420 150l354 0.000976562c145.333 0 242.5 27 291.5 81s73.5 131 73.5 231v509c0 147.333 -49.333 243 -148 287c-56 25.333 -128.333 37.666 -217 36.999h-354v-1145zM218 0.000976562l-0.000976562 1446
h574c276.667 0 449.334 -98 518.001 -294c20 -57.333 30 -121.666 30 -192.999v-477c0 -158 -45.5 -277.833 -136.5 -359.5s-227.5 -122.5 -409.5 -122.5h-576z" />
    <glyph glyph-name="dcaron" unicode="&#x10f;" horiz-adv-x="1200" 
d="M1343 935l-80.999 43.999c65.333 78.667 106.666 146 123.999 202c9.33301 30.667 13.666 61.334 12.999 92.001h-141v233h257v-183c0 -115.333 -40 -225.333 -120 -330c-17.333 -22.667 -34.666 -42 -51.999 -58zM591.001 1080
c85.333 0 163.668 -13.332 235.001 -39.999v466h188v-1506h-128l-31 70c-32.667 -25.333 -75.667 -47 -129 -65s-106 -27 -158 -27c-144.667 0 -250.834 32.167 -318.501 96.5s-101.5 151.166 -101.5 260.499v400c0 110 36.333 195 109 255s184 90 334 90zM403.503 176
c45 -33.333 97.834 -50.001 158.501 -50.001c108 0 196 21 264 63v703c-60.667 29.333 -134.334 44 -221.001 44c-179.333 0 -269 -60 -269 -180v-435c0 -63.333 22.5 -111.666 67.5 -144.999z" />
    <glyph glyph-name="Dcroat" unicode="&#x110;" horiz-adv-x="1215" 
d="M420 150l354 0.000976562c145.333 0 242.5 27 291.5 81s73.5 131 73.5 231v509c0 147.333 -49.333 243 -148 287c-56 25.333 -128.333 37.666 -217 36.999h-354v-446h358v-151h-358v-548zM76 698.001l-0.000976562 150.999h142v597h574
c276.667 0 449.334 -98 518.001 -294c20 -57.333 30 -121.666 30 -192.999v-477c0 -158 -45.5 -277.833 -136.5 -359.5s-227.5 -122.5 -409.5 -122.5h-576v698h-142z" />
    <glyph glyph-name="dcroat" unicode="&#x111;" horiz-adv-x="1200" 
d="M403.5 176c45 -33.333 97.834 -50.001 158.501 -50.001c108 0 196 21 264 63v703c-60.667 29.333 -134.334 44 -221.001 44c-179.333 0 -269 -60 -269 -180v-435c0 -63.333 22.5 -111.666 67.5 -144.999zM591.001 1080c85.333 0 163.668 -13.332 235.001 -39.999v209
h-364v124h364v133h188v-133h163v-124h-163v-1249h-128l-31 70c-32.667 -25.333 -75.667 -47 -129 -65s-106 -27 -158 -27c-144.667 0 -250.834 32.167 -318.501 96.5s-101.5 151.166 -101.5 260.499v400c0 110 36.333 195 109 255s184 90 334 90z" />
    <glyph glyph-name="Emacron" unicode="&#x112;" horiz-adv-x="1255" 
d="M475 1631v152h401v-152h-401zM218 0v1446h903v-150h-702v-476h620v-150h-620v-520h714v-150h-915z" />
    <glyph glyph-name="emacron" unicode="&#x113;" horiz-adv-x="1158" 
d="M376 1243v152h401v-152h-401zM589 -22c-155.333 0 -267.663 32.333 -336.996 97s-104 164.334 -104 299.001v369c0 104.667 35.667 187 107 247s179.166 90 323.499 90s251.666 -27.833 321.999 -83.5s105.5 -135.167 105.5 -238.5v-252h-670v-149
c0 -88 17.667 -149.167 53 -183.5s99 -51.5 191 -51.5s144 2 156 6s24.333 8.66699 37 14s21.5 11.666 26.5 18.999s11.667 18.5 20 33.5s14.5 44.167 18.5 87.5h166c-6.66699 -63.333 -17.834 -114.333 -33.501 -153s-40.334 -69.5 -74.001 -92.5s-74 -38.5 -121 -46.5
s-109.167 -12 -186.5 -12zM336.003 633h487.999v145c0 60 -20.5 101.333 -61.5 124s-101.167 34 -180.5 34s-140.166 -13.667 -182.499 -41s-63.5 -72.333 -63.5 -135v-127z" />
    <glyph glyph-name="Ebreve" unicode="&#x114;" horiz-adv-x="1255" 
d="M676 1631c-67.333 0 -121.833 20.5 -163.5 61.5s-62.5 91.167 -62.5 150.5h105c0 -33.333 11.5 -61 34.5 -83s52.333 -33 88 -33s64.5 10.667 86.5 32s33 49.333 33 84h105c0 -59.333 -20.833 -109.5 -62.5 -150.5s-96.167 -61.5 -163.5 -61.5zM218 0v1446h903v-150h-702
v-476h620v-150h-620v-520h714v-150h-915z" />
    <glyph glyph-name="ebreve" unicode="&#x115;" horiz-adv-x="1158" 
d="M577 1243c-67.333 0 -121.833 20.5 -163.5 61.5s-62.5 91.167 -62.5 150.5h105c0 -33.333 11.5 -61 34.5 -83s52.333 -33 88 -33s64.5 10.667 86.5 32s33 49.333 33 84h105c0 -59.333 -20.833 -109.5 -62.5 -150.5s-96.167 -61.5 -163.5 -61.5zM589 -22
c-155.333 0 -267.663 32.333 -336.996 97s-104 164.334 -104 299.001v369c0 104.667 35.667 187 107 247s179.166 90 323.499 90s251.666 -27.833 321.999 -83.5s105.5 -135.167 105.5 -238.5v-252h-670v-149c0 -88 17.667 -149.167 53 -183.5s99 -51.5 191 -51.5
s144 2 156 6s24.333 8.66699 37 14s21.5 11.666 26.5 18.999s11.667 18.5 20 33.5s14.5 44.167 18.5 87.5h166c-6.66699 -63.333 -17.834 -114.333 -33.501 -153s-40.334 -69.5 -74.001 -92.5s-74 -38.5 -121 -46.5s-109.167 -12 -186.5 -12zM336.003 633h487.999v145
c0 60 -20.5 101.333 -61.5 124s-101.167 34 -180.5 34s-140.166 -13.667 -182.499 -41s-63.5 -72.333 -63.5 -135v-127z" />
    <glyph glyph-name="Edotaccent" unicode="&#x116;" horiz-adv-x="1255" 
d="M573 1631v206h205v-206h-205zM218 0v1446h903v-150h-702v-476h620v-150h-620v-520h714v-150h-915z" />
    <glyph glyph-name="edotaccent" unicode="&#x117;" horiz-adv-x="1158" 
d="M474 1243v206h205v-206h-205zM589 -22c-155.333 0 -267.663 32.333 -336.996 97s-104 164.334 -104 299.001v369c0 104.667 35.667 187 107 247s179.166 90 323.499 90s251.666 -27.833 321.999 -83.5s105.5 -135.167 105.5 -238.5v-252h-670v-149
c0 -88 17.667 -149.167 53 -183.5s99 -51.5 191 -51.5s144 2 156 6s24.333 8.66699 37 14s21.5 11.666 26.5 18.999s11.667 18.5 20 33.5s14.5 44.167 18.5 87.5h166c-6.66699 -63.333 -17.834 -114.333 -33.501 -153s-40.334 -69.5 -74.001 -92.5s-74 -38.5 -121 -46.5
s-109.167 -12 -186.5 -12zM336.003 633h487.999v145c0 60 -20.5 101.333 -61.5 124s-101.167 34 -180.5 34s-140.166 -13.667 -182.499 -41s-63.5 -72.333 -63.5 -135v-127z" />
    <glyph glyph-name="Eogonek" unicode="&#x118;" horiz-adv-x="1255" 
d="M879 -470c-89.333 0 -160.5 17.6689 -213.5 53.002s-79.5 82.666 -79.5 141.999c0 91.333 60.667 188.333 182 291h62c-34 -32.667 -62.5 -72.834 -85.5 -120.501s-34.5 -92.5 -34.5 -134.5c0 -89.333 56.333 -134 169 -134v-97zM218 0.00195312v1446h903v-150h-702v-476
h620v-150h-620v-520h714v-150h-915z" />
    <glyph glyph-name="eogonek" unicode="&#x119;" horiz-adv-x="1158" 
d="M768 -495c-89.333 0 -160.5 17.6689 -213.5 53.002s-79.5 82.666 -79.5 141.999c0 91.333 60.667 188.333 182 291h62c-34 -32.667 -62.5 -72.834 -85.5 -120.501s-34.5 -92.5 -34.5 -134.5c0 -89.333 56.333 -134 169 -134v-97zM589 -21.998
c-155.333 0 -267.663 32.333 -336.996 97s-104 164.334 -104 299.001v369c0 104.667 35.667 187 107 247s179.166 90 323.499 90s251.666 -27.833 321.999 -83.5s105.5 -135.167 105.5 -238.5v-252h-670v-149c0 -88 17.667 -149.167 53 -183.5s99 -51.5 191 -51.5
s144 2 156 6s24.333 8.66699 37 14s21.5 11.666 26.5 18.999s11.667 18.5 20 33.5s14.5 44.167 18.5 87.5h166c-6.66699 -63.333 -17.834 -114.333 -33.501 -153s-40.334 -69.5 -74.001 -92.5s-74 -38.5 -121 -46.5s-109.167 -12 -186.5 -12zM336.003 633.002h487.999v145
c0 60 -20.5 101.333 -61.5 124s-101.167 34 -180.5 34s-140.166 -13.667 -182.499 -41s-63.5 -72.333 -63.5 -135v-127z" />
    <glyph glyph-name="Ecaron" unicode="&#x11a;" horiz-adv-x="1255" 
d="M595 1631l-205 266h155l124 -174l132 174h161l-217 -266h-150zM218 0v1446h903v-150h-702v-476h620v-150h-620v-520h714v-150h-915z" />
    <glyph glyph-name="ecaron" unicode="&#x11b;" horiz-adv-x="1158" 
d="M496 1243l-205 266h155l124 -174l132 174h161l-217 -266h-150zM589 -22c-155.333 0 -267.663 32.333 -336.996 97s-104 164.334 -104 299.001v369c0 104.667 35.667 187 107 247s179.166 90 323.499 90s251.666 -27.833 321.999 -83.5s105.5 -135.167 105.5 -238.5v-252
h-670v-149c0 -88 17.667 -149.167 53 -183.5s99 -51.5 191 -51.5s144 2 156 6s24.333 8.66699 37 14s21.5 11.666 26.5 18.999s11.667 18.5 20 33.5s14.5 44.167 18.5 87.5h166c-6.66699 -63.333 -17.834 -114.333 -33.501 -153s-40.334 -69.5 -74.001 -92.5
s-74 -38.5 -121 -46.5s-109.167 -12 -186.5 -12zM336.003 633h487.999v145c0 60 -20.5 101.333 -61.5 124s-101.167 34 -180.5 34s-140.166 -13.667 -182.499 -41s-63.5 -72.333 -63.5 -135v-127z" />
    <glyph glyph-name="Gcircumflex" unicode="&#x11c;" horiz-adv-x="1556" 
d="M487 1631l216 266h150l206 -266h-156l-124 174l-132 -174h-160zM788 -22c-269.333 0 -445.665 66.665 -528.998 199.998c-48.667 78 -73 180.667 -73 308v454c0 206 60 349.667 180 431c95.333 64.667 229.333 97 402 97s299.167 -19.5 379.5 -58.5
s133.166 -91 158.499 -156s38 -144.167 38 -237.5l-184 -15c0 94 -9.16699 156.833 -27.5 188.5s-36 54.167 -53 67.5s-45.667 24.833 -86 34.5s-101.333 14.5 -183 14.5s-145.834 -5.33301 -192.501 -16c-46.667 -10 -88 -27.333 -124 -52
c-70.667 -48.667 -106 -135.667 -106 -261v-522c0 -125.333 33.667 -209.166 101 -251.499s166.5 -63.5 297.5 -63.5s225.667 20.833 284 62.5s87.5 125.834 87.5 252.501v133h-343v147h545v-735h-110l-25 246c-12.667 -83.333 -54.5 -148.833 -125.5 -196.5
s-174.833 -71.5 -311.5 -71.5z" />
    <glyph glyph-name="gcircumflex" unicode="&#x11d;" horiz-adv-x="1186" 
d="M293 1243l216 266h150l206 -266h-156l-124 174l-132 -174h-160zM295 -227c69.333 -25.333 154.333 -38.001 255 -38.001s171.167 19 211.5 57s60.5 97 60.5 177v147c-27.333 -25.333 -68.166 -44.333 -122.499 -57s-104.166 -19 -149.499 -19c-268 0 -402 113 -402 339
v349c0 110 33.5 196.167 100.5 258.5s167.5 93.5 301.5 93.5c53.333 0 108.166 -11.167 164.499 -33.5s92.166 -46.166 107.499 -71.499v85h188v-1035c0 -127.333 -33.5 -231.333 -100.5 -312s-175.167 -121 -324.5 -121s-260 13.333 -332 40zM822 789.999
c0 97.333 -81 146 -243 146s-243 -62.667 -243 -188v-398c0 -110.667 81 -166 243 -166c95.333 0 176.333 26.667 243 80v526z" />
    <glyph glyph-name="Gbreve" unicode="&#x11e;" horiz-adv-x="1556" 
d="M773 1631c-67.333 0 -121.833 20.5 -163.5 61.5s-62.5 91.167 -62.5 150.5h105c0 -33.333 11.5 -61 34.5 -83s52.333 -33 88 -33s64.5 10.667 86.5 32s33 49.333 33 84h105c0 -59.333 -20.833 -109.5 -62.5 -150.5s-96.167 -61.5 -163.5 -61.5zM788 -22
c-269.333 0 -445.665 66.665 -528.998 199.998c-48.667 78 -73 180.667 -73 308v454c0 206 60 349.667 180 431c95.333 64.667 229.333 97 402 97s299.167 -19.5 379.5 -58.5s133.166 -91 158.499 -156s38 -144.167 38 -237.5l-184 -15c0 94 -9.16699 156.833 -27.5 188.5
s-36 54.167 -53 67.5s-45.667 24.833 -86 34.5s-101.333 14.5 -183 14.5s-145.834 -5.33301 -192.501 -16c-46.667 -10 -88 -27.333 -124 -52c-70.667 -48.667 -106 -135.667 -106 -261v-522c0 -125.333 33.667 -209.166 101 -251.499s166.5 -63.5 297.5 -63.5
s225.667 20.833 284 62.5s87.5 125.834 87.5 252.501v133h-343v147h545v-735h-110l-25 246c-12.667 -83.333 -54.5 -148.833 -125.5 -196.5s-174.833 -71.5 -311.5 -71.5z" />
    <glyph glyph-name="gbreve" unicode="&#x11f;" horiz-adv-x="1186" 
d="M579 1243c-67.333 0 -121.833 20.5 -163.5 61.5s-62.5 91.167 -62.5 150.5h105c0 -33.333 11.5 -61 34.5 -83s52.333 -33 88 -33s64.5 10.667 86.5 32s33 49.333 33 84h105c0 -59.333 -20.833 -109.5 -62.5 -150.5s-96.167 -61.5 -163.5 -61.5zM295 -227
c69.333 -25.333 154.333 -38.001 255 -38.001s171.167 19 211.5 57s60.5 97 60.5 177v147c-27.333 -25.333 -68.166 -44.333 -122.499 -57s-104.166 -19 -149.499 -19c-268 0 -402 113 -402 339v349c0 110 33.5 196.167 100.5 258.5s167.5 93.5 301.5 93.5
c53.333 0 108.166 -11.167 164.499 -33.5s92.166 -46.166 107.499 -71.499v85h188v-1035c0 -127.333 -33.5 -231.333 -100.5 -312s-175.167 -121 -324.5 -121s-260 13.333 -332 40zM822 789.999c0 97.333 -81 146 -243 146s-243 -62.667 -243 -188v-398
c0 -110.667 81 -166 243 -166c95.333 0 176.333 26.667 243 80v526z" />
    <glyph glyph-name="Gdotaccent" unicode="&#x120;" horiz-adv-x="1556" 
d="M670 1631v206h205v-206h-205zM788 -22c-269.333 0 -445.665 66.665 -528.998 199.998c-48.667 78 -73 180.667 -73 308v454c0 206 60 349.667 180 431c95.333 64.667 229.333 97 402 97s299.167 -19.5 379.5 -58.5s133.166 -91 158.499 -156s38 -144.167 38 -237.5
l-184 -15c0 94 -9.16699 156.833 -27.5 188.5s-36 54.167 -53 67.5s-45.667 24.833 -86 34.5s-101.333 14.5 -183 14.5s-145.834 -5.33301 -192.501 -16c-46.667 -10 -88 -27.333 -124 -52c-70.667 -48.667 -106 -135.667 -106 -261v-522
c0 -125.333 33.667 -209.166 101 -251.499s166.5 -63.5 297.5 -63.5s225.667 20.833 284 62.5s87.5 125.834 87.5 252.501v133h-343v147h545v-735h-110l-25 246c-12.667 -83.333 -54.5 -148.833 -125.5 -196.5s-174.833 -71.5 -311.5 -71.5z" />
    <glyph glyph-name="gdotaccent" unicode="&#x121;" horiz-adv-x="1186" 
d="M476 1243v206h205v-206h-205zM295 -227c69.333 -25.333 154.333 -38.001 255 -38.001s171.167 19 211.5 57s60.5 97 60.5 177v147c-27.333 -25.333 -68.166 -44.333 -122.499 -57s-104.166 -19 -149.499 -19c-268 0 -402 113 -402 339v349
c0 110 33.5 196.167 100.5 258.5s167.5 93.5 301.5 93.5c53.333 0 108.166 -11.167 164.499 -33.5s92.166 -46.166 107.499 -71.499v85h188v-1035c0 -127.333 -33.5 -231.333 -100.5 -312s-175.167 -121 -324.5 -121s-260 13.333 -332 40zM822 789.999
c0 97.333 -81 146 -243 146s-243 -62.667 -243 -188v-398c0 -110.667 81 -166 243 -166c95.333 0 176.333 26.667 243 80v526z" />
    <glyph glyph-name="Gcommaaccent" unicode="&#x122;" horiz-adv-x="1556" 
d="M729 -756l-80.999 43.999c65.333 78.667 106.666 146 123.999 202c9.33301 30.667 13.666 61.334 12.999 92.001h-141v233h257v-183c0 -115.333 -40 -225.333 -120 -330c-17.333 -22.667 -34.666 -42 -51.999 -58zM788.001 -22.001
c-269.333 0 -445.665 66.665 -528.998 199.998c-48.667 78 -73 180.667 -73 308v454c0 206 60 349.667 180 431c95.333 64.667 229.333 97 402 97s299.167 -19.5 379.5 -58.5s133.166 -91 158.499 -156s38 -144.167 38 -237.5l-184 -15c0 94 -9.16699 156.833 -27.5 188.5
s-36 54.167 -53 67.5s-45.667 24.833 -86 34.5s-101.333 14.5 -183 14.5s-145.834 -5.33301 -192.501 -16c-46.667 -10 -88 -27.333 -124 -52c-70.667 -48.667 -106 -135.667 -106 -261v-522c0 -125.333 33.667 -209.166 101 -251.499s166.5 -63.5 297.5 -63.5
s225.667 20.833 284 62.5s87.5 125.834 87.5 252.501v133h-343v147h545v-735h-110l-25 246c-12.667 -83.333 -54.5 -148.833 -125.5 -196.5s-174.833 -71.5 -311.5 -71.5z" />
    <glyph glyph-name="gcommaaccent" unicode="&#x123;" horiz-adv-x="1186" 
d="M295 -227c69.333 -25.333 154.333 -38.001 255 -38.001s171.167 19 211.5 57s60.5 97 60.5 177v147c-27.333 -25.333 -68.166 -44.333 -122.499 -57s-104.166 -19 -149.499 -19c-268 0 -402 113 -402 339v349c0 110 33.5 196.167 100.5 258.5s167.5 93.5 301.5 93.5
c53.333 0 108.166 -11.167 164.499 -33.5s92.166 -46.166 107.499 -71.499v85h188v-1035c0 -127.333 -33.5 -231.333 -100.5 -312s-175.167 -121 -324.5 -121s-260 13.333 -332 40zM822 789.999c0 97.333 -81 146 -243 146s-243 -62.667 -243 -188v-398
c0 -110.667 81 -166 243 -166c95.333 0 176.333 26.667 243 80v526zM696 1811l80.999 -43.999c-65.333 -78.667 -106.666 -146 -123.999 -202c-9.33301 -30.667 -13.666 -61.334 -12.999 -92.001h141v-233h-257v183c0 115.333 40 225.333 120 330
c17.333 22.667 34.666 42 51.999 58z" />
    <glyph glyph-name="Hcircumflex" unicode="&#x124;" horiz-adv-x="1528" 
d="M478 1631l216 266h150l206 -266h-156l-124 174l-132 -174h-160zM212 0v1446h201v-639h702v639h201v-1446h-201v659h-702v-659h-201z" />
    <glyph glyph-name="hcircumflex" unicode="&#x125;" horiz-adv-x="1226" 
d="M332 1668l216 266h150l206 -266h-156l-124 174l-132 -174h-160zM862 783c0 102 -78.666 153 -235.999 153c-78.667 0 -140.334 -16.333 -185.001 -49s-67 -75.667 -67 -129v-758h-188v1505h188v-545c68.667 80 174 120 316 120c180 0 293.333 -62.667 340 -188
c13.333 -36 20 -75.667 20 -119v-773h-188v783z" />
    <glyph glyph-name="Hbar" unicode="&#x126;" horiz-adv-x="1536" 
d="M144 1060v124h68v262h201v-262h702v262h201v-262h76v-124h-76v-1060h-201v659h-702v-659h-201v1060h-68zM413 1060v-253h702v253h-702z" />
    <glyph glyph-name="hbar" unicode="&#x127;" horiz-adv-x="1224" 
d="M862 783c0 102 -78.666 153 -235.999 153c-78.667 0 -140.334 -16.333 -185.001 -49s-67 -75.667 -67 -129v-758h-188v1249h-157v124h157v132h188v-132h470v-124h-470v-289c68.667 80 174 120 316 120c180 0 293.333 -62.667 340 -188c13.333 -36 20 -75.667 20 -119
v-773h-188v783z" />
    <glyph glyph-name="Itilde" unicode="&#x128;" horiz-adv-x="1132" 
d="M765 1645c0 62 -24.667 93 -74 93c-24 0 -54.333 -17.833 -91 -53.5s-85.5 -53.5 -146.5 -53.5s-107 18 -138 54s-46.5 94.333 -46.5 175h97c0 -62 24.667 -93 74 -93c24 0 54.333 17.833 91 53.5s85.5 53.5 146.5 53.5s107 -18 138 -54s46.5 -94.333 46.5 -175h-97z
M190 0v150h276v1147h-276v149h752v-149h-275v-1147h275v-150h-752z" />
    <glyph glyph-name="itilde" unicode="&#x129;" horiz-adv-x="596" 
d="M499 1257c0 62 -24.667 93 -74 93c-24 0 -54.333 -17.833 -91 -53.5s-85.5 -53.5 -146.5 -53.5s-107 18 -138 54s-46.5 94.333 -46.5 175h97c0 -62 24.667 -93 74 -93c24 0 54.333 17.833 91 53.5s85.5 53.5 146.5 53.5s107 -18 138 -54s46.5 -94.333 46.5 -175h-97z
M206 0v1060h188v-1060h-188z" />
    <glyph glyph-name="Imacron" unicode="&#x12a;" horiz-adv-x="1132" 
d="M366 1631v152h401v-152h-401zM190 0v150h276v1147h-276v149h752v-149h-275v-1147h275v-150h-752z" />
    <glyph glyph-name="imacron" unicode="&#x12b;" horiz-adv-x="596" 
d="M100 1243v152h401v-152h-401zM206 0v1060h188v-1060h-188z" />
    <glyph glyph-name="Ibreve" unicode="&#x12c;" horiz-adv-x="1132" 
d="M566 1631c-67.333 0 -121.833 20.5 -163.5 61.5s-62.5 91.167 -62.5 150.5h105c0 -33.333 11.5 -61 34.5 -83s52.333 -33 88 -33s64.5 10.667 86.5 32s33 49.333 33 84h105c0 -59.333 -20.833 -109.5 -62.5 -150.5s-96.167 -61.5 -163.5 -61.5zM190 0v150h276v1147h-276
v149h752v-149h-275v-1147h275v-150h-752z" />
    <glyph glyph-name="ibreve" unicode="&#x12d;" horiz-adv-x="596" 
d="M300 1243c-67.333 0 -121.833 20.5 -163.5 61.5s-62.5 91.167 -62.5 150.5h105c0 -33.333 11.5 -61 34.5 -83s52.333 -33 88 -33s64.5 10.667 86.5 32s33 49.333 33 84h105c0 -59.333 -20.833 -109.5 -62.5 -150.5s-96.167 -61.5 -163.5 -61.5zM206 0v1060h188v-1060
h-188z" />
    <glyph glyph-name="Iogonek" unicode="&#x12e;" horiz-adv-x="1132" 
d="M724 -470c-89.333 0 -160.5 17.6689 -213.5 53.002s-79.5 82.666 -79.5 141.999c0 91.333 60.667 188.333 182 291h62c-34 -32.667 -62.5 -72.834 -85.5 -120.501s-34.5 -92.5 -34.5 -134.5c0 -89.333 56.333 -134 169 -134v-97zM190 0.00195312v150h276v1147h-276v149
h752v-149h-275v-1147h275v-150h-752z" />
    <glyph glyph-name="iogonek" unicode="&#x12f;" horiz-adv-x="596" 
d="M416 -470c-89.333 0 -160.5 17.6689 -213.5 53.002s-79.5 82.666 -79.5 141.999c0 91.333 60.667 188.333 182 291h62c-34 -32.667 -62.5 -72.834 -85.5 -120.501s-34.5 -92.5 -34.5 -134.5c0 -89.333 56.333 -134 169 -134v-97zM206 0.00195312v1060h188v-1060h-188z
M206 1251v195h188v-195h-188z" />
    <glyph glyph-name="Idotaccent" unicode="&#x130;" horiz-adv-x="1132" 
d="M464 1631v206h205v-206h-205zM190 0v150h276v1147h-276v149h752v-149h-275v-1147h275v-150h-752z" />
    <glyph glyph-name="dotlessi" unicode="&#x131;" horiz-adv-x="596" 
d="M206 0v1060h188v-1060h-188z" />
    <glyph glyph-name="IJ" unicode="&#x132;" horiz-adv-x="2338" 
d="M1654 -17c-76.667 0 -156.333 9.5 -239 28.5s-143 38.5 -181 58.5l55 155c34 -16 86.333 -32.833 157 -50.5s138 -26.5 202 -26.5c94 0 162.667 24 206 72s65 119.667 65 215v846h-553v165h754v-1015c0 -142 -38.167 -252.167 -114.5 -330.5s-193.5 -117.5 -351.5 -117.5
zM190.001 0v150h276v1147h-276v149h752v-149h-275v-1147h275v-150h-752z" />
    <glyph glyph-name="ij" unicode="&#x133;" horiz-adv-x="1198" 
d="M628 -353l-19.002 155.999h29c68 0 113.333 8.83301 136 26.5s37.334 39.334 44.001 65.001s10 59.5 10 101.5v1064h188v-1053c0 -174 -40 -281.667 -120 -323c-47.333 -24.667 -114.666 -37 -201.999 -37h-66zM827.998 1251v195h188v-195h-188zM205.998 -0.000976562
v1060h188v-1060h-188zM205.998 1251v195h188v-195h-188z" />
    <glyph glyph-name="Jcircumflex" unicode="&#x134;" horiz-adv-x="1206" 
d="M319 1631l216 266h150l206 -266h-156l-124 174l-132 -174h-160zM522 -17c-76.667 0 -156.333 9.5 -239 28.5s-143 38.5 -181 58.5l55 155c34 -16 86.333 -32.833 157 -50.5s138 -26.5 202 -26.5c94 0 162.667 24 206 72s65 119.667 65 215v846h-553v165h754v-1015
c0 -142 -38.167 -252.167 -114.5 -330.5s-193.5 -117.5 -351.5 -117.5z" />
    <glyph glyph-name="jcircumflex" unicode="&#x135;" horiz-adv-x="602" 
d="M10 1243l216 266h150l206 -266h-156l-124 174l-132 -174h-160zM32 -353l-19.002 155.999h29c68 0 113.333 8.83301 136 26.5s37.334 39.334 44.001 65.001s10 59.5 10 101.5v1064h188v-1053c0 -174 -40 -281.667 -120 -323c-47.333 -24.667 -114.666 -37 -201.999 -37
h-66z" />
    <glyph glyph-name="Kcommaaccent" unicode="&#x136;" horiz-adv-x="1418" 
d="M741 -734l-80.999 43.999c65.333 78.667 106.666 146 123.999 202c9.33301 30.667 13.666 61.334 12.999 92.001h-141v233h257v-183c0 -115.333 -40 -225.333 -120 -330c-17.333 -22.667 -34.666 -42 -51.999 -58zM218.001 -0.000976562v1446h201v-789l384.5 448
l299.5 341h218l-543 -648l572 -798h-223l-490 690l-218 -222v-468h-201z" />
    <glyph glyph-name="kcommaaccent" unicode="&#x137;" horiz-adv-x="1152" 
d="M615 -734l-80.999 43.999c65.333 78.667 106.666 146 123.999 202c9.33301 30.667 13.666 61.334 12.999 92.001h-141v233h257v-183c0 -115.333 -40 -225.333 -120 -330c-17.333 -22.667 -34.666 -42 -51.999 -58zM186.001 -0.000976562v1506h188v-982l507 536h206
l-431 -466l474 -594h-217l-380 492l-159 -158v-334h-188z" />
    <glyph glyph-name="kgreenlandic" unicode="&#x138;" horiz-adv-x="1148" 
d="M374 510l497 550h208l-414 -477l457 -583h-217l-384 498l-147 -144v-354h-188v1060h188v-550z" />
    <glyph glyph-name="Lacute" unicode="&#x139;" horiz-adv-x="1145" 
d="M590 1631l120 341h225l-239 -341h-106zM218 0v1446h201v-1291h649v-155h-850z" />
    <glyph glyph-name="lacute" unicode="&#x13a;" horiz-adv-x="696" 
d="M345 1668l120 341h225l-239 -341h-106zM530 -8c-62 0 -112.666 4.66602 -151.999 13.999s-74 27 -104 53c-56 48.667 -84 148.334 -84 299.001v1147h188v-1149c0 -85.333 12.667 -141 38 -167s77.666 -39 156.999 -39h33l-22 -158h-54z" />
    <glyph glyph-name="Lcommaaccent" unicode="&#x13b;" horiz-adv-x="1145" 
d="M599 -734l-80.999 43.999c65.333 78.667 106.666 146 123.999 202c9.33301 30.667 13.666 61.334 12.999 92.001h-141v233h257v-183c0 -115.333 -40 -225.333 -120 -330c-17.333 -22.667 -34.666 -42 -51.999 -58zM218.001 -0.000976562v1446h201v-1291h649v-155h-850z
" />
    <glyph glyph-name="lcommaaccent" unicode="&#x13c;" horiz-adv-x="696" 
d="M355 -742l-80.999 43.999c65.333 78.667 106.666 146 123.999 202c9.33301 30.667 13.666 61.334 12.999 92.001h-141v233h257v-183c0 -115.333 -40 -225.333 -120 -330c-17.333 -22.667 -34.666 -42 -51.999 -58zM530.001 -8.00098
c-62 0 -112.666 4.66602 -151.999 13.999s-74 27 -104 53c-56 48.667 -84 148.334 -84 299.001v1147h188v-1149c0 -85.333 12.667 -141 38 -167s77.666 -39 156.999 -39h33l-22 -158h-54z" />
    <glyph glyph-name="Lcaron" unicode="&#x13d;" horiz-adv-x="1145" 
d="M971 897l-80.999 43.999c65.333 78.667 106.666 146 123.999 202c9.33301 30.667 13.666 61.334 12.999 92.001h-141v233h257v-183c0 -115.333 -40 -225.333 -120 -330c-17.333 -22.667 -34.666 -42 -51.999 -58zM218.001 -0.000976562v1446h201v-1291h649v-155h-850z
" />
    <glyph glyph-name="lcaron" unicode="&#x13e;" horiz-adv-x="696" 
d="M781 934l-80.999 43.999c65.333 78.667 106.666 146 123.999 202c9.33301 30.667 13.666 61.334 12.999 92.001h-141v233h257v-183c0 -115.333 -40 -225.333 -120 -330c-17.333 -22.667 -34.666 -42 -51.999 -58zM530.001 -8.00098
c-62 0 -112.666 4.66602 -151.999 13.999s-74 27 -104 53c-56 48.667 -84 148.334 -84 299.001v1147h188v-1149c0 -85.333 12.667 -141 38 -167s77.666 -39 156.999 -39h33l-22 -158h-54z" />
    <glyph glyph-name="Ldot" unicode="&#x13f;" horiz-adv-x="1145" 
d="M706 631v206h205v-206h-205zM218 0v1446h201v-1291h649v-155h-850z" />
    <glyph glyph-name="ldot" unicode="&#x140;" horiz-adv-x="1108" 
d="M804 1277v206h205v-206h-205zM530 -8c-62 0 -112.666 4.66602 -151.999 13.999s-74 27 -104 53c-56 48.667 -84 148.334 -84 299.001v1147h188v-1149c0 -85.333 12.667 -141 38 -167s77.666 -39 156.999 -39h33l-22 -158h-54z" />
    <glyph glyph-name="Lslash" unicode="&#x141;" horiz-adv-x="1145" 
d="M52 616v124l166 83v623h201v-523l407 203v-124l-407 -203v-644h649v-155h-850v699z" />
    <glyph glyph-name="lslash" unicode="&#x142;" horiz-adv-x="708" 
d="M530 -8c-62 0 -112.666 4.66602 -151.999 13.999s-74 27 -104 53c-56 48.667 -84 148.334 -84 299.001v326l-138 -68v124l138 68v697h188v-605l226 111v-124l-226 -111v-420c0 -85.333 12.667 -141 38 -167s77.666 -39 156.999 -39h33l-22 -158h-54z" />
    <glyph glyph-name="Nacute" unicode="&#x143;" horiz-adv-x="1594" 
d="M744 1631l120 341h225l-239 -341h-106zM218 0v1446h153l828 -1156v1156h177v-1446h-179l-802 1104v-1104h-177z" />
    <glyph glyph-name="nacute" unicode="&#x144;" horiz-adv-x="1226" 
d="M565 1243l120 341h225l-239 -341h-106zM862 781c0 103.333 -79.001 155 -237.001 155c-78 0 -139.333 -16.667 -184 -50s-67 -77 -67 -131v-755h-188v1060h188v-103c70.667 82 175.334 123 314.001 123c180 0 294 -63.333 342 -190c13.333 -36 20 -76 20 -120v-770h-188
v781z" />
    <glyph glyph-name="Ncommaaccent" unicode="&#x145;" horiz-adv-x="1594" 
d="M753 -734l-80.999 43.999c65.333 78.667 106.666 146 123.999 202c9.33301 30.667 13.666 61.334 12.999 92.001h-141v233h257v-183c0 -115.333 -40 -225.333 -120 -330c-17.333 -22.667 -34.666 -42 -51.999 -58zM218.001 -0.000976562v1446h153l828 -1156v1156h177
v-1446h-179l-802 1104v-1104h-177z" />
    <glyph glyph-name="ncommaaccent" unicode="&#x146;" horiz-adv-x="1226" 
d="M575 -734l-80.999 43.999c65.333 78.667 106.666 146 123.999 202c9.33301 30.667 13.666 61.334 12.999 92.001h-141v233h257v-183c0 -115.333 -40 -225.333 -120 -330c-17.333 -22.667 -34.666 -42 -51.999 -58zM862.001 780.999c0 103.333 -79.001 155 -237.001 155
c-78 0 -139.333 -16.667 -184 -50s-67 -77 -67 -131v-755h-188v1060h188v-103c70.667 82 175.334 123 314.001 123c180 0 294 -63.333 342 -190c13.333 -36 20 -76 20 -120v-770h-188v781z" />
    <glyph glyph-name="Ncaron" unicode="&#x147;" horiz-adv-x="1594" 
d="M716 1631l-205 266h155l124 -174l132 174h161l-217 -266h-150zM218 0v1446h153l828 -1156v1156h177v-1446h-179l-802 1104v-1104h-177z" />
    <glyph glyph-name="ncaron" unicode="&#x148;" horiz-adv-x="1226" 
d="M537 1243l-205 266h155l124 -174l132 174h161l-217 -266h-150zM862 781c0 103.333 -79.001 155 -237.001 155c-78 0 -139.333 -16.667 -184 -50s-67 -77 -67 -131v-755h-188v1060h188v-103c70.667 82 175.334 123 314.001 123c180 0 294 -63.333 342 -190
c13.333 -36 20 -76 20 -120v-770h-188v781z" />
    <glyph glyph-name="napostrophe" unicode="&#x149;" horiz-adv-x="1226" 
d="M862 781c0 103.333 -79.001 155 -237.001 155c-78 0 -139.333 -16.667 -184 -50s-67 -77 -67 -131v-755h-188v1060h188v-103c70.667 82 175.334 123 314.001 123c180 0 294 -63.333 342 -190c13.333 -36 20 -76 20 -120v-770h-188v781zM294.999 1255l-80.999 43.999
c65.333 78.667 106.666 146 123.999 202c9.33301 30.667 13.666 61.334 12.999 92.001h-141v233h257v-183c0 -115.333 -40 -225.333 -120 -330c-17.333 -22.667 -34.666 -42 -51.999 -58z" />
    <glyph glyph-name="Eng" unicode="&#x14a;" horiz-adv-x="1582" 
d="M821 -373l-27.999 140.999c138 12 223.667 28 257 48c53.333 30.667 86.333 63.334 99 98.001c22 58.667 33 125.667 33 201v75l-793 914v-1104h-177v1446h153l828 -976v976h177v-1324c0 -277.333 -121.333 -437.333 -364 -480
c-54.667 -9.33301 -116.334 -14.333 -185.001 -15z" />
    <glyph glyph-name="eng" unicode="&#x14b;" horiz-adv-x="1226" 
d="M862 781c0 103.333 -79.002 155.001 -237.002 155.001c-78 0 -139.333 -16.667 -184 -50s-67 -77 -67 -131v-755h-188v1060h188v-103c70.667 82 175.334 123 314.001 123c180 0 294 -63.333 342 -190c13.333 -36 20 -76 20 -120v-551
c0 -132.667 -7.66699 -227.667 -23 -285s-32.666 -99.333 -51.999 -126s-44.333 -50 -75 -70c-56 -36 -142.333 -54 -259 -54l-28 141c92.667 -0.666992 151 9.66602 175 30.999l30 26c29.333 22.667 44 132.667 44 330v569z" />
    <glyph glyph-name="Omacron" unicode="&#x14c;" horiz-adv-x="1546" 
d="M572 1631v152h401v-152h-401zM1069 203.5c60 42.333 90 126.168 90 251.501v523c0 125.333 -30.167 211.333 -90.5 258s-155.833 70 -286.5 70c-202.667 0 -325.667 -56 -369 -168c-16.667 -42.667 -25 -96 -25 -160v-523c0 -124.667 32.667 -208.334 98 -251.001
s163.833 -64 295.5 -64s227.5 21.167 287.5 63.5zM233 221.002c-31.333 74 -47 162.332 -47 264.999v455c0 207.333 58.667 351 176 431c94.667 64 234.667 96 420 96c328 0 515.667 -122 563 -366c10 -51.333 15 -109.333 15 -174v-428
c0 -201.333 -57.667 -342.666 -173 -423.999c-92.667 -65.333 -223.334 -98 -392.001 -98s-296.667 22 -384 66s-146.666 103 -177.999 177z" />
    <glyph glyph-name="omacron" unicode="&#x14d;" horiz-adv-x="1174" 
d="M386 1243v152h401v-152h-401zM587 122c167.333 0 251 59 251 177v459c0 118.667 -83.667 178 -251 178s-251 -59.333 -251 -178v-459c0 -118 83.667 -177 251 -177zM919.5 68.5c-71 -60.333 -182.167 -90.5 -333.5 -90.5s-262.166 30 -332.499 90
s-105.5 142.333 -105.5 247v427c0 104.667 35.167 187.167 105.5 247.5s181.166 90.5 332.499 90.5s262.5 -30.333 333.5 -91s106.5 -143 106.5 -247v-427c0 -104 -35.5 -186.167 -106.5 -246.5z" />
    <glyph glyph-name="Obreve" unicode="&#x14e;" horiz-adv-x="1546" 
d="M773 1631c-67.333 0 -121.833 20.5 -163.5 61.5s-62.5 91.167 -62.5 150.5h105c0 -33.333 11.5 -61 34.5 -83s52.333 -33 88 -33s64.5 10.667 86.5 32s33 49.333 33 84h105c0 -59.333 -20.833 -109.5 -62.5 -150.5s-96.167 -61.5 -163.5 -61.5zM1069 203.5
c60 42.333 90 126.168 90 251.501v523c0 125.333 -30.167 211.333 -90.5 258s-155.833 70 -286.5 70c-202.667 0 -325.667 -56 -369 -168c-16.667 -42.667 -25 -96 -25 -160v-523c0 -124.667 32.667 -208.334 98 -251.001s163.833 -64 295.5 -64s227.5 21.167 287.5 63.5z
M233 221.002c-31.333 74 -47 162.332 -47 264.999v455c0 207.333 58.667 351 176 431c94.667 64 234.667 96 420 96c328 0 515.667 -122 563 -366c10 -51.333 15 -109.333 15 -174v-428c0 -201.333 -57.667 -342.666 -173 -423.999
c-92.667 -65.333 -223.334 -98 -392.001 -98s-296.667 22 -384 66s-146.666 103 -177.999 177z" />
    <glyph glyph-name="obreve" unicode="&#x14f;" horiz-adv-x="1174" 
d="M587 1243c-67.333 0 -121.833 20.5 -163.5 61.5s-62.5 91.167 -62.5 150.5h105c0 -33.333 11.5 -61 34.5 -83s52.333 -33 88 -33s64.5 10.667 86.5 32s33 49.333 33 84h105c0 -59.333 -20.833 -109.5 -62.5 -150.5s-96.167 -61.5 -163.5 -61.5zM587 122
c167.333 0 251 59 251 177v459c0 118.667 -83.667 178 -251 178s-251 -59.333 -251 -178v-459c0 -118 83.667 -177 251 -177zM919.5 68.5c-71 -60.333 -182.167 -90.5 -333.5 -90.5s-262.166 30 -332.499 90s-105.5 142.333 -105.5 247v427
c0 104.667 35.167 187.167 105.5 247.5s181.166 90.5 332.499 90.5s262.5 -30.333 333.5 -91s106.5 -143 106.5 -247v-427c0 -104 -35.5 -186.167 -106.5 -246.5z" />
    <glyph glyph-name="Ohungarumlaut" unicode="&#x150;" horiz-adv-x="1546" 
d="M563 1631l106 475h211l-219 -475h-98zM860 1631l200 475h219l-296 -475h-123zM1069 203.5c60 42.333 90 126.168 90 251.501v523c0 125.333 -30.167 211.333 -90.5 258s-155.833 70 -286.5 70c-202.667 0 -325.667 -56 -369 -168c-16.667 -42.667 -25 -96 -25 -160v-523
c0 -124.667 32.667 -208.334 98 -251.001s163.833 -64 295.5 -64s227.5 21.167 287.5 63.5zM233 221.002c-31.333 74 -47 162.332 -47 264.999v455c0 207.333 58.667 351 176 431c94.667 64 234.667 96 420 96c328 0 515.667 -122 563 -366c10 -51.333 15 -109.333 15 -174
v-428c0 -201.333 -57.667 -342.666 -173 -423.999c-92.667 -65.333 -223.334 -98 -392.001 -98s-296.667 22 -384 66s-146.666 103 -177.999 177z" />
    <glyph glyph-name="ohungarumlaut" unicode="&#x151;" horiz-adv-x="1174" 
d="M377 1243l106 475h211l-219 -475h-98zM674 1243l200 475h219l-296 -475h-123zM587 122c167.333 0 251 59 251 177v459c0 118.667 -83.667 178 -251 178s-251 -59.333 -251 -178v-459c0 -118 83.667 -177 251 -177zM919.5 68.5c-71 -60.333 -182.167 -90.5 -333.5 -90.5
s-262.166 30 -332.499 90s-105.5 142.333 -105.5 247v427c0 104.667 35.167 187.167 105.5 247.5s181.166 90.5 332.499 90.5s262.5 -30.333 333.5 -91s106.5 -143 106.5 -247v-427c0 -104 -35.5 -186.167 -106.5 -246.5z" />
    <glyph glyph-name="OE" unicode="&#x152;" horiz-adv-x="1557" 
d="M776 0c-268.667 0 -442.999 67 -522.999 201c-46.667 77.333 -69.667 180.333 -69 309v408c0 207.333 58 351 174 431c93.333 64.667 232.666 97 417.999 97h615v-150h-414v-482h353v-150h-353v-514h423v-150h-624zM766.001 150h10v1145h-11
c-128 0 -223.167 -26 -285.5 -78s-93.5 -139.333 -93.5 -262v-476c0 -122 30.667 -207.333 92 -256s157.333 -73 288 -73z" />
    <glyph glyph-name="oe" unicode="&#x153;" horiz-adv-x="1734" 
d="M569 -20c-279.333 0 -419 112.336 -419 337.003v430c0 101.333 37.333 182.166 112 242.499s180.5 90.5 317.5 90.5s238.167 -43.333 303.5 -130c61.333 86.667 163 130 305 130s246.833 -28 314.5 -84s101.5 -135.333 101.5 -238v-252h-625v-178
c0 -70.667 18 -122.834 54 -156.501s83.667 -50.5 143 -50.5s102 2.33301 128 7c25.333 5.33301 48 15.333 68 30c34 25.333 54.333 83 61 173h170c-10.667 -130.667 -45 -221.834 -103 -273.501s-158 -77.5 -300 -77.5s-247.667 47.333 -317 142
c-65.333 -94.667 -170 -142 -314 -142zM569 121.003c148 0 222 59.999 222 179.999v462c0 61.333 -18.5 105.833 -55.5 133.5s-92.5 41.5 -166.5 41.5s-131 -13.5 -171 -40.5s-60 -71.833 -60 -134.5v-462c0 -63.333 19.5 -109.166 58.5 -137.499s96.5 -42.5 172.5 -42.5z
M979 633.002h443v145c0 60.667 -18 102.5 -54 125.5s-92.5 34.5 -169.5 34.5s-132.833 -13.5 -167.5 -40.5s-52 -72.833 -52 -137.5v-127z" />
    <glyph glyph-name="Racute" unicode="&#x154;" horiz-adv-x="1464" 
d="M741 1631l120 341h225l-239 -341h-106zM218 0l-0.000976562 1446h645c199.333 0 324.333 -75.333 375 -226c18.667 -56 28.167 -122.5 28.5 -199.5s-8.5 -141.667 -26.5 -194s-41.167 -92.666 -69.5 -120.999s-64.166 -51.5 -107.499 -69.5l307 -636h-207l-287 600
l-456 -1v-599h-202zM419.999 751.999l426.003 -0.000976562c85.333 0 143.166 23 173.499 69s45.5 111 45.5 195c-0.666992 150.667 -40.334 239.334 -119.001 266.001c-22.667 8 -48.334 11.667 -77.001 11h-449v-541z" />
    <glyph glyph-name="racute" unicode="&#x155;" horiz-adv-x="794" 
d="M411 1243l120 341h225l-239 -341h-106zM186 0v1060h188v-150c24 65.333 89 112.666 195 141.999c55.333 16 113 23.667 173 23l-6 -161c-90.667 0 -173.667 -18 -249 -54s-113 -75.333 -113 -118v-742h-188z" />
    <glyph glyph-name="Rcommaaccent" unicode="&#x156;" horiz-adv-x="1464" 
d="M751 -734l-80.999 43.999c65.333 78.667 106.666 146 123.999 202c9.33301 30.667 13.666 61.334 12.999 92.001h-141v233h257v-183c0 -115.333 -40 -225.333 -120 -330c-17.333 -22.667 -34.666 -42 -51.999 -58zM218.001 -0.000976562l-0.000976562 1446h645
c199.333 0 324.333 -75.333 375 -226c18.667 -56 28.167 -122.5 28.5 -199.5s-8.5 -141.667 -26.5 -194s-41.167 -92.666 -69.5 -120.999s-64.166 -51.5 -107.499 -69.5l307 -636h-207l-287 600l-456 -1v-599h-202zM420 751.998l426.003 -0.000976562
c85.333 0 143.166 23 173.499 69s45.5 111 45.5 195c-0.666992 150.667 -40.334 239.334 -119.001 266.001c-22.667 8 -48.334 11.667 -77.001 11h-449v-541z" />
    <glyph glyph-name="rcommaaccent" unicode="&#x157;" horiz-adv-x="794" 
d="M421 -734l-80.999 43.999c65.333 78.667 106.666 146 123.999 202c9.33301 30.667 13.666 61.334 12.999 92.001h-141v233h257v-183c0 -115.333 -40 -225.333 -120 -330c-17.333 -22.667 -34.666 -42 -51.999 -58zM186.001 -0.000976562v1060h188v-150
c24 65.333 89 112.666 195 141.999c55.333 16 113 23.667 173 23l-6 -161c-90.667 0 -173.667 -18 -249 -54s-113 -75.333 -113 -118v-742h-188z" />
    <glyph glyph-name="Rcaron" unicode="&#x158;" horiz-adv-x="1464" 
d="M713 1631l-205 266h155l124 -174l132 174h161l-217 -266h-150zM218 0l-0.000976562 1446h645c199.333 0 324.333 -75.333 375 -226c18.667 -56 28.167 -122.5 28.5 -199.5s-8.5 -141.667 -26.5 -194s-41.167 -92.666 -69.5 -120.999s-64.166 -51.5 -107.499 -69.5
l307 -636h-207l-287 600l-456 -1v-599h-202zM419.999 751.999l426.003 -0.000976562c85.333 0 143.166 23 173.499 69s45.5 111 45.5 195c-0.666992 150.667 -40.334 239.334 -119.001 266.001c-22.667 8 -48.334 11.667 -77.001 11h-449v-541z" />
    <glyph glyph-name="rcaron" unicode="&#x159;" horiz-adv-x="794" 
d="M383 1243l-205 266h155l124 -174l132 174h161l-217 -266h-150zM186 0v1060h188v-150c24 65.333 89 112.666 195 141.999c55.333 16 113 23.667 173 23l-6 -161c-90.667 0 -173.667 -18 -249 -54s-113 -75.333 -113 -118v-742h-188z" />
    <glyph glyph-name="Sacute" unicode="&#x15a;" horiz-adv-x="1304" 
d="M601 1631l120 341h225l-239 -341h-106zM1164 406c0 -285.333 -157.666 -428.001 -472.999 -428.001c-209.333 0 -391.666 45 -546.999 135l71 154c60 -35.333 132.833 -65.333 218.5 -90s169 -37 250 -37s142.167 10.333 183.5 31c74 37.333 111 113.333 111 228
c0 47.333 -2.33301 79 -7 95c-15.333 53.333 -71.666 95.333 -168.999 126l-349 116c-112.667 36.667 -187.834 83.167 -225.501 139.5s-56.5 128.5 -56.5 216.5c0.666992 126.667 47 223.334 139 290.001c79.333 56.667 194.666 85.334 345.999 86.001
c215.333 0 377 -33.667 485 -101l-49 -157c-118.667 64 -252.334 96 -401.001 96c-103.333 0 -182 -13.333 -236 -40s-83 -69.667 -87 -129c-1.33301 -18.667 -2 -35.334 -2 -50.001c0 -48 10.167 -85 30.5 -111s59.833 -49 118.5 -69l364 -123
c100 -34 172.5 -78.5 217.5 -133.5s67.5 -136.5 67.5 -244.5z" />
    <glyph glyph-name="sacute" unicode="&#x15b;" horiz-adv-x="992" 
d="M456 1243l120 341h225l-239 -341h-106zM503 122c142 0 212.999 53 212.999 159c0 46 -6.33301 80.167 -19 102.5s-42.334 42.166 -89.001 59.499l-252 93c-77.333 27.333 -131.166 59.833 -161.499 97.5s-45.5 84.834 -45.5 141.501s5.66699 102.167 17 136.5
s30 64.5 56 90.5c52 52 145.333 78 280 78s250.667 -19.333 348 -58l-43 -144c-34 14 -78.667 27.167 -134 39.5s-103.666 18.5 -144.999 18.5c-95.333 0 -155.666 -15.333 -180.999 -46c-15.333 -19.333 -23 -47.666 -23 -84.999s6.16699 -63.833 18.5 -79.5
s36.5 -29.834 72.5 -42.501l249 -98c86.667 -34 143.667 -71.5 171 -112.5s41 -105.5 41 -193.5s-28.333 -160.167 -85 -216.5s-144.334 -84.5 -263.001 -84.5c-86.667 0 -163.667 9.33301 -231 28s-119 38 -155 58l46 138c95.333 -53.333 200.333 -80 315 -80z" />
    <glyph glyph-name="Scircumflex" unicode="&#x15c;" horiz-adv-x="1304" 
d="M368 1631l216 266h150l206 -266h-156l-124 174l-132 -174h-160zM1164 406c0 -285.333 -157.666 -428.001 -472.999 -428.001c-209.333 0 -391.666 45 -546.999 135l71 154c60 -35.333 132.833 -65.333 218.5 -90s169 -37 250 -37s142.167 10.333 183.5 31
c74 37.333 111 113.333 111 228c0 47.333 -2.33301 79 -7 95c-15.333 53.333 -71.666 95.333 -168.999 126l-349 116c-112.667 36.667 -187.834 83.167 -225.501 139.5s-56.5 128.5 -56.5 216.5c0.666992 126.667 47 223.334 139 290.001
c79.333 56.667 194.666 85.334 345.999 86.001c215.333 0 377 -33.667 485 -101l-49 -157c-118.667 64 -252.334 96 -401.001 96c-103.333 0 -182 -13.333 -236 -40s-83 -69.667 -87 -129c-1.33301 -18.667 -2 -35.334 -2 -50.001c0 -48 10.167 -85 30.5 -111
s59.833 -49 118.5 -69l364 -123c100 -34 172.5 -78.5 217.5 -133.5s67.5 -136.5 67.5 -244.5z" />
    <glyph glyph-name="scircumflex" unicode="&#x15d;" horiz-adv-x="992" 
d="M223 1243l216 266h150l206 -266h-156l-124 174l-132 -174h-160zM503 122c142 0 212.999 53 212.999 159c0 46 -6.33301 80.167 -19 102.5s-42.334 42.166 -89.001 59.499l-252 93c-77.333 27.333 -131.166 59.833 -161.499 97.5s-45.5 84.834 -45.5 141.501
s5.66699 102.167 17 136.5s30 64.5 56 90.5c52 52 145.333 78 280 78s250.667 -19.333 348 -58l-43 -144c-34 14 -78.667 27.167 -134 39.5s-103.666 18.5 -144.999 18.5c-95.333 0 -155.666 -15.333 -180.999 -46c-15.333 -19.333 -23 -47.666 -23 -84.999
s6.16699 -63.833 18.5 -79.5s36.5 -29.834 72.5 -42.501l249 -98c86.667 -34 143.667 -71.5 171 -112.5s41 -105.5 41 -193.5s-28.333 -160.167 -85 -216.5s-144.334 -84.5 -263.001 -84.5c-86.667 0 -163.667 9.33301 -231 28s-119 38 -155 58l46 138
c95.333 -53.333 200.333 -80 315 -80z" />
    <glyph glyph-name="Scedilla" unicode="&#x15e;" horiz-adv-x="1304" 
d="M637 -492c-32 0 -63.001 2.66797 -93.001 8.00098v96c24 -4.66699 53.333 -7 88 -7s63.834 9.5 87.501 28.5s35.5 43.667 35.5 74s-14.833 59 -44.5 86s-68.167 41.167 -115.5 42.5v158h62l6 -94c70 -12.667 124.333 -38.834 163 -78.501s58 -84 58 -133
s-21.667 -91.333 -65 -127s-104 -53.5 -182 -53.5zM1164 406.001c0 -285.333 -157.666 -428.001 -472.999 -428.001c-209.333 0 -391.666 45 -546.999 135l71 154c60 -35.333 132.833 -65.333 218.5 -90s169 -37 250 -37s142.167 10.333 183.5 31
c74 37.333 111 113.333 111 228c0 47.333 -2.33301 79 -7 95c-15.333 53.333 -71.666 95.333 -168.999 126l-349 116c-112.667 36.667 -187.834 83.167 -225.501 139.5s-56.5 128.5 -56.5 216.5c0.666992 126.667 47 223.334 139 290.001
c79.333 56.667 194.666 85.334 345.999 86.001c215.333 0 377 -33.667 485 -101l-49 -157c-118.667 64 -252.334 96 -401.001 96c-103.333 0 -182 -13.333 -236 -40s-83 -69.667 -87 -129c-1.33301 -18.667 -2 -35.334 -2 -50.001c0 -48 10.167 -85 30.5 -111
s59.833 -49 118.5 -69l364 -123c100 -34 172.5 -78.5 217.5 -133.5s67.5 -136.5 67.5 -244.5z" />
    <glyph glyph-name="scedilla" unicode="&#x15f;" horiz-adv-x="992" 
d="M491 -492c-32 0 -63.001 2.66797 -93.001 8.00098v96c24 -4.66699 53.333 -7 88 -7s63.834 9.5 87.501 28.5s35.5 43.667 35.5 74s-14.833 59 -44.5 86s-68.167 41.167 -115.5 42.5v158h62l6 -94c70 -12.667 124.333 -38.834 163 -78.501s58 -84 58 -133
s-21.667 -91.333 -65 -127s-104 -53.5 -182 -53.5zM502.999 122.001c142 0 212.999 53 212.999 159c0 46 -6.33301 80.167 -19 102.5s-42.334 42.166 -89.001 59.499l-252 93c-77.333 27.333 -131.166 59.833 -161.499 97.5s-45.5 84.834 -45.5 141.501
s5.66699 102.167 17 136.5s30 64.5 56 90.5c52 52 145.333 78 280 78s250.667 -19.333 348 -58l-43 -144c-34 14 -78.667 27.167 -134 39.5s-103.666 18.5 -144.999 18.5c-95.333 0 -155.666 -15.333 -180.999 -46c-15.333 -19.333 -23 -47.666 -23 -84.999
s6.16699 -63.833 18.5 -79.5s36.5 -29.834 72.5 -42.501l249 -98c86.667 -34 143.667 -71.5 171 -112.5s41 -105.5 41 -193.5s-28.333 -160.167 -85 -216.5s-144.334 -84.5 -263.001 -84.5c-86.667 0 -163.667 9.33301 -231 28s-119 38 -155 58l46 138
c95.333 -53.333 200.333 -80 315 -80z" />
    <glyph glyph-name="Scaron" unicode="&#x160;" horiz-adv-x="1304" 
d="M573 1631l-205 266h155l124 -174l132 174h161l-217 -266h-150zM1164 406c0 -285.333 -157.666 -428.001 -472.999 -428.001c-209.333 0 -391.666 45 -546.999 135l71 154c60 -35.333 132.833 -65.333 218.5 -90s169 -37 250 -37s142.167 10.333 183.5 31
c74 37.333 111 113.333 111 228c0 47.333 -2.33301 79 -7 95c-15.333 53.333 -71.666 95.333 -168.999 126l-349 116c-112.667 36.667 -187.834 83.167 -225.501 139.5s-56.5 128.5 -56.5 216.5c0.666992 126.667 47 223.334 139 290.001
c79.333 56.667 194.666 85.334 345.999 86.001c215.333 0 377 -33.667 485 -101l-49 -157c-118.667 64 -252.334 96 -401.001 96c-103.333 0 -182 -13.333 -236 -40s-83 -69.667 -87 -129c-1.33301 -18.667 -2 -35.334 -2 -50.001c0 -48 10.167 -85 30.5 -111
s59.833 -49 118.5 -69l364 -123c100 -34 172.5 -78.5 217.5 -133.5s67.5 -136.5 67.5 -244.5z" />
    <glyph glyph-name="scaron" unicode="&#x161;" horiz-adv-x="992" 
d="M428 1243l-205 266h155l124 -174l132 174h161l-217 -266h-150zM503 122c142 0 212.999 53 212.999 159c0 46 -6.33301 80.167 -19 102.5s-42.334 42.166 -89.001 59.499l-252 93c-77.333 27.333 -131.166 59.833 -161.499 97.5s-45.5 84.834 -45.5 141.501
s5.66699 102.167 17 136.5s30 64.5 56 90.5c52 52 145.333 78 280 78s250.667 -19.333 348 -58l-43 -144c-34 14 -78.667 27.167 -134 39.5s-103.666 18.5 -144.999 18.5c-95.333 0 -155.666 -15.333 -180.999 -46c-15.333 -19.333 -23 -47.666 -23 -84.999
s6.16699 -63.833 18.5 -79.5s36.5 -29.834 72.5 -42.501l249 -98c86.667 -34 143.667 -71.5 171 -112.5s41 -105.5 41 -193.5s-28.333 -160.167 -85 -216.5s-144.334 -84.5 -263.001 -84.5c-86.667 0 -163.667 9.33301 -231 28s-119 38 -155 58l46 138
c95.333 -53.333 200.333 -80 315 -80z" />
    <glyph glyph-name="Tcommaaccent" unicode="&#x162;" horiz-adv-x="1204" 
d="M585 -470c-32 0 -63.001 2.66797 -93.001 8.00098v96c24 -4.66699 53.333 -7 88 -7s63.834 9.5 87.501 28.5s35.5 43.667 35.5 74s-14.833 59 -44.5 86s-68.167 41.167 -115.5 42.5v158h62l6 -94c70 -12.667 124.333 -38.834 163 -78.501s58 -84 58 -133
s-21.667 -91.333 -65 -127s-104 -53.5 -182 -53.5zM500.999 0.000976562v1281h-417v165h1036v-165h-418v-1281h-201z" />
    <glyph glyph-name="tcommaaccent" unicode="&#x163;" horiz-adv-x="840" 
d="M559 -478c-32 0 -63.001 2.66797 -93.001 8.00098v96c24 -4.66699 53.333 -7 88 -7s63.834 9.5 87.501 28.5s35.5 43.667 35.5 74s-14.833 59 -44.5 86s-68.167 41.167 -115.5 42.5v158h62l6 -94c70 -12.667 124.333 -38.834 163 -78.501s58 -84 58 -133
s-21.667 -91.333 -65 -127s-104 -53.5 -182 -53.5zM675.999 -7.99902c-148 0 -254.832 23.334 -320.499 70.001s-98.5 127 -98.5 241v615h-177v142h184l23 328h158v-328h266v-142h-266v-603c0 -66.667 19.167 -110.834 57.5 -132.501s105.166 -32.5 200.499 -32.5h21
l-20 -158h-28z" />
    <glyph glyph-name="Tcaron" unicode="&#x164;" horiz-adv-x="1204" 
d="M521 1631l-205 266h155l124 -174l132 174h161l-217 -266h-150zM501 0v1281h-417v165h1036v-165h-418v-1281h-201z" />
    <glyph glyph-name="tcaron" unicode="&#x165;" horiz-adv-x="840" 
d="M1053 817l-80.999 43.999c65.333 78.667 106.666 146 123.999 202c9.33301 30.667 13.666 61.334 12.999 92.001h-141v233h257v-183c0 -115.333 -40 -225.333 -120 -330c-17.333 -22.667 -34.666 -42 -51.999 -58zM676.001 -8.00098
c-148 0 -254.832 23.334 -320.499 70.001s-98.5 127 -98.5 241v615h-177v142h184l23 328h158v-328h266v-142h-266v-603c0 -66.667 19.167 -110.834 57.5 -132.501s105.166 -32.5 200.499 -32.5h21l-20 -158h-28z" />
    <glyph glyph-name="Tbar" unicode="&#x166;" horiz-adv-x="1204" 
d="M232 688v129h269v464h-417v165h1036v-165h-418v-464h246v-129h-246v-688h-201v688h-269z" />
    <glyph glyph-name="tbar" unicode="&#x167;" horiz-adv-x="840" 
d="M676 -8c-148 0 -254.832 23.334 -320.499 70.001s-98.5 127 -98.5 241v257h-199v129h199v229h-177v142h184l23 328h158v-328h266v-142h-266v-229h329v-129h-329v-245c0 -66.667 19.167 -110.834 57.5 -132.501s105.166 -32.5 200.499 -32.5h21l-20 -158h-28z" />
    <glyph glyph-name="Utilde" unicode="&#x168;" horiz-adv-x="1538" 
d="M969 1645c0 62 -24.667 93 -74 93c-24 0 -54.333 -17.833 -91 -53.5s-85.5 -53.5 -146.5 -53.5s-107 18 -138 54s-46.5 94.333 -46.5 175h97c0 -62 24.667 -93 74 -93c24 0 54.333 17.833 91 53.5s85.5 53.5 146.5 53.5s107 -18 138 -54s46.5 -94.333 46.5 -175h-97z
M776 -22c-257.333 0 -426.668 68 -508.001 204c-45.333 76 -68 173 -68 291v973h202v-994c0 -181.333 86.667 -283.333 260 -306c34 -4 76 -6 126 -6c102.667 0 186.334 20 251.001 60s97 124 97 252v994h202v-973c0 -187.333 -55.333 -320.333 -166 -399
c-90.667 -64 -222.667 -96 -396 -96z" />
    <glyph glyph-name="utilde" unicode="&#x169;" horiz-adv-x="1224" 
d="M807 1257c0 62 -24.667 93 -74 93c-24 0 -54.333 -17.833 -91 -53.5s-85.5 -53.5 -146.5 -53.5s-107 18 -138 54s-46.5 94.333 -46.5 175h97c0 -62 24.667 -93 74 -93c24 0 54.333 17.833 91 53.5s85.5 53.5 146.5 53.5s107 -18 138 -54s46.5 -94.333 46.5 -175h-97z
M541 -22c-180.667 0 -295.333 64 -344 192c-14 36.667 -21 76.667 -21 120v770h188v-771c0 -52 19.167 -92.833 57.5 -122.5s95.5 -44.5 171.5 -44.5s137.833 18.833 185.5 56.5s71.5 81.167 71.5 130.5v751h188v-1060h-168l-20 133
c-58.667 -103.333 -161.667 -155 -309 -155z" />
    <glyph glyph-name="Umacron" unicode="&#x16a;" horiz-adv-x="1538" 
d="M568 1631v152h401v-152h-401zM776 -22c-257.333 0 -426.668 68 -508.001 204c-45.333 76 -68 173 -68 291v973h202v-994c0 -181.333 86.667 -283.333 260 -306c34 -4 76 -6 126 -6c102.667 0 186.334 20 251.001 60s97 124 97 252v994h202v-973
c0 -187.333 -55.333 -320.333 -166 -399c-90.667 -64 -222.667 -96 -396 -96z" />
    <glyph glyph-name="umacron" unicode="&#x16b;" horiz-adv-x="1224" 
d="M406 1243v152h401v-152h-401zM541 -22c-180.667 0 -295.333 64 -344 192c-14 36.667 -21 76.667 -21 120v770h188v-771c0 -52 19.167 -92.833 57.5 -122.5s95.5 -44.5 171.5 -44.5s137.833 18.833 185.5 56.5s71.5 81.167 71.5 130.5v751h188v-1060h-168l-20 133
c-58.667 -103.333 -161.667 -155 -309 -155z" />
    <glyph glyph-name="Ubreve" unicode="&#x16c;" horiz-adv-x="1538" 
d="M769 1631c-67.333 0 -121.833 20.5 -163.5 61.5s-62.5 91.167 -62.5 150.5h105c0 -33.333 11.5 -61 34.5 -83s52.333 -33 88 -33s64.5 10.667 86.5 32s33 49.333 33 84h105c0 -59.333 -20.833 -109.5 -62.5 -150.5s-96.167 -61.5 -163.5 -61.5zM776 -22
c-257.333 0 -426.668 68 -508.001 204c-45.333 76 -68 173 -68 291v973h202v-994c0 -181.333 86.667 -283.333 260 -306c34 -4 76 -6 126 -6c102.667 0 186.334 20 251.001 60s97 124 97 252v994h202v-973c0 -187.333 -55.333 -320.333 -166 -399
c-90.667 -64 -222.667 -96 -396 -96z" />
    <glyph glyph-name="ubreve" unicode="&#x16d;" horiz-adv-x="1224" 
d="M607 1243c-67.333 0 -121.833 20.5 -163.5 61.5s-62.5 91.167 -62.5 150.5h105c0 -33.333 11.5 -61 34.5 -83s52.333 -33 88 -33s64.5 10.667 86.5 32s33 49.333 33 84h105c0 -59.333 -20.833 -109.5 -62.5 -150.5s-96.167 -61.5 -163.5 -61.5zM541 -22
c-180.667 0 -295.333 64 -344 192c-14 36.667 -21 76.667 -21 120v770h188v-771c0 -52 19.167 -92.833 57.5 -122.5s95.5 -44.5 171.5 -44.5s137.833 18.833 185.5 56.5s71.5 81.167 71.5 130.5v751h188v-1060h-168l-20 133c-58.667 -103.333 -161.667 -155 -309 -155z" />
    <glyph glyph-name="Uring" unicode="&#x16e;" horiz-adv-x="1538" 
d="M769 1696c72.667 0 109 37.667 109 113s-36.333 113 -109 113c-32 0 -58.167 -8.66699 -78.5 -26s-30.5 -46 -30.5 -86c0 -76 36.333 -114 109 -114zM769 1631c-54.667 0 -100.667 15.167 -138 45.5s-56 74.5 -56 132.5s18.667 102.167 56 132.5s83.333 45.5 138 45.5
s100.667 -15.167 138 -45.5s56 -74.5 56 -132.5s-18.667 -102.167 -56 -132.5s-83.333 -45.5 -138 -45.5zM776 -22c-257.333 0 -426.668 68 -508.001 204c-45.333 76 -68 173 -68 291v973h202v-994c0 -181.333 86.667 -283.333 260 -306c34 -4 76 -6 126 -6
c102.667 0 186.334 20 251.001 60s97 124 97 252v994h202v-973c0 -187.333 -55.333 -320.333 -166 -399c-90.667 -64 -222.667 -96 -396 -96z" />
    <glyph glyph-name="uring" unicode="&#x16f;" horiz-adv-x="1224" 
d="M607 1308c72.667 0 109 37.667 109 113s-36.333 113 -109 113c-32 0 -58.167 -8.66699 -78.5 -26s-30.5 -46 -30.5 -86c0 -76 36.333 -114 109 -114zM607 1243c-54.667 0 -100.667 15.167 -138 45.5s-56 74.5 -56 132.5s18.667 102.167 56 132.5s83.333 45.5 138 45.5
s100.667 -15.167 138 -45.5s56 -74.5 56 -132.5s-18.667 -102.167 -56 -132.5s-83.333 -45.5 -138 -45.5zM541 -22c-180.667 0 -295.333 64 -344 192c-14 36.667 -21 76.667 -21 120v770h188v-771c0 -52 19.167 -92.833 57.5 -122.5s95.5 -44.5 171.5 -44.5
s137.833 18.833 185.5 56.5s71.5 81.167 71.5 130.5v751h188v-1060h-168l-20 133c-58.667 -103.333 -161.667 -155 -309 -155z" />
    <glyph glyph-name="Uhungarumlaut" unicode="&#x170;" horiz-adv-x="1538" 
d="M559 1631l106 475h211l-219 -475h-98zM856 1631l200 475h219l-296 -475h-123zM776 -22c-257.333 0 -426.668 68 -508.001 204c-45.333 76 -68 173 -68 291v973h202v-994c0 -181.333 86.667 -283.333 260 -306c34 -4 76 -6 126 -6c102.667 0 186.334 20 251.001 60
s97 124 97 252v994h202v-973c0 -187.333 -55.333 -320.333 -166 -399c-90.667 -64 -222.667 -96 -396 -96z" />
    <glyph glyph-name="uhungarumlaut" unicode="&#x171;" horiz-adv-x="1224" 
d="M397 1243l106 475h211l-219 -475h-98zM694 1243l200 475h219l-296 -475h-123zM541 -22c-180.667 0 -295.333 64 -344 192c-14 36.667 -21 76.667 -21 120v770h188v-771c0 -52 19.167 -92.833 57.5 -122.5s95.5 -44.5 171.5 -44.5s137.833 18.833 185.5 56.5
s71.5 81.167 71.5 130.5v751h188v-1060h-168l-20 133c-58.667 -103.333 -161.667 -155 -309 -155z" />
    <glyph glyph-name="Uogonek" unicode="&#x172;" horiz-adv-x="1538" 
d="M849 -492c-89.333 0 -160.5 17.6689 -213.5 53.002s-79.5 82.666 -79.5 141.999c0 91.333 60.667 188.333 182 291h62c-34 -32.667 -62.5 -72.834 -85.5 -120.501s-34.5 -92.5 -34.5 -134.5c0 -89.333 56.333 -134 169 -134v-97zM776 -21.998
c-257.333 0 -426.668 68 -508.001 204c-45.333 76 -68 173 -68 291v973h202v-994c0 -181.333 86.667 -283.333 260 -306c34 -4 76 -6 126 -6c102.667 0 186.334 20 251.001 60s97 124 97 252v994h202v-973c0 -187.333 -55.333 -320.333 -166 -399
c-90.667 -64 -222.667 -96 -396 -96z" />
    <glyph glyph-name="uogonek" unicode="&#x173;" horiz-adv-x="1224" 
d="M1036 -477c-89.333 0 -160.5 17.6689 -213.5 53.002s-79.5 82.666 -79.5 141.999c0 91.333 60.667 188.333 182 291h62c-34 -32.667 -62.5 -72.834 -85.5 -120.501s-34.5 -92.5 -34.5 -134.5c0 -89.333 56.333 -134 169 -134v-97zM541 -21.998
c-180.667 0 -295.333 64 -344 192c-14 36.667 -21 76.667 -21 120v770h188v-771c0 -52 19.167 -92.833 57.5 -122.5s95.5 -44.5 171.5 -44.5s137.833 18.833 185.5 56.5s71.5 81.167 71.5 130.5v751h188v-1060h-168l-20 133c-58.667 -103.333 -161.667 -155 -309 -155z" />
    <glyph glyph-name="Wcircumflex" unicode="&#x174;" horiz-adv-x="2048" 
d="M738 1631l216 266h150l206 -266h-156l-124 174l-132 -174h-160zM522 0l-410 1446h184l307 -1100l315 1100h215l329 -1100l291 1100h183l-394 -1446h-152l-353 1232l-363 -1232h-152z" />
    <glyph glyph-name="wcircumflex" unicode="&#x175;" horiz-adv-x="1614" 
d="M521 1243l216 266h150l206 -266h-156l-124 174l-132 -174h-160zM357 0l-305 1060h172l235 -832l255 832h181l266 -832l227 832h174l-310 -1060h-175l-271 845l-271 -845h-178z" />
    <glyph glyph-name="Ycircumflex" unicode="&#x176;" horiz-adv-x="1318" 
d="M373 1631l216 266h150l206 -266h-156l-124 174l-132 -174h-160zM560 0v568l-512 878h213l400 -702l402 702h207l-509 -878v-568h-201z" />
    <glyph glyph-name="ycircumflex" unicode="&#x177;" horiz-adv-x="1118" 
d="M282 1243l216 266h150l206 -266h-156l-124 174l-132 -174h-160zM198 -406v147.001c82.667 0 149.5 20.333 200.5 61s89.167 108 114.5 202l-437 1056h199l324 -844l271 844h190l-348 -1015c-46 -134 -87.5 -226.833 -124.5 -278.5s-72.5 -87.834 -106.5 -108.501
c-70 -42.667 -164.333 -64 -283 -64z" />
    <glyph glyph-name="Ydieresis" unicode="&#x178;" horiz-adv-x="1318" 
d="M304 1631v181h206v-181h-206zM807 1631v181h206v-181h-206zM560 0v568l-512 878h213l400 -702l402 702h207l-509 -878v-568h-201z" />
    <glyph glyph-name="Zacute" unicode="&#x179;" horiz-adv-x="1242" 
d="M585 1631l120 341h225l-239 -341h-106zM180 0v150l682 1131h-651v165h872v-151l-681 -1130h694v-165h-916z" />
    <glyph glyph-name="zacute" unicode="&#x17a;" horiz-adv-x="964" 
d="M444 1243l120 341h225l-239 -341h-106zM140 0v118l507 818h-489v124h687v-115l-510 -821h519v-124h-714z" />
    <glyph glyph-name="Zdotaccent" unicode="&#x17b;" horiz-adv-x="1242" 
d="M536 1631v206h205v-206h-205zM180 0v150l682 1131h-651v165h872v-151l-681 -1130h694v-165h-916z" />
    <glyph glyph-name="zdotaccent" unicode="&#x17c;" horiz-adv-x="964" 
d="M394 1243v206h205v-206h-205zM140 0v118l507 818h-489v124h687v-115l-510 -821h519v-124h-714z" />
    <glyph glyph-name="Zcaron" unicode="&#x17d;" horiz-adv-x="1242" 
d="M597 1631l-205 266h155l124 -174l132 174h161l-217 -266h-150zM180 0v150l682 1131h-651v165h872v-151l-681 -1130h694v-165h-916z" />
    <glyph glyph-name="zcaron" unicode="&#x17e;" horiz-adv-x="964" 
d="M446 1243l-205 266h155l124 -174l132 174h161l-217 -266h-150zM140 0v118l507 818h-489v124h687v-115l-510 -821h519v-124h-714z" />
    <glyph glyph-name="florin" unicode="&#x192;" horiz-adv-x="890" 
d="M251 -190c-36 0 -72.666 2.33203 -109.999 6.99902v124c11.333 -1.33301 35.666 -2 72.999 -2c80 0 119.667 41.333 119 124v664h-117v131h117v297c0 110.667 20 189.834 60 237.501s111 71.5 213 71.5c31.333 0 66 -2 104 -6v-124c-8 0.666992 -23.333 1 -46 1
c-56.667 0 -94.667 -14.833 -114 -44.5s-29 -67.5 -29 -113.5v-319h129v-131h-129v-636c0 -97.333 -20.5 -168.5 -61.5 -213.5s-110.5 -67.5 -208.5 -67.5z" />
    <glyph glyph-name="uni01C4" unicode="&#x1c4;" horiz-adv-x="2764" 
d="M2119 1631l-205 266h155l124 -174l132 174h161l-217 -266h-150zM1702 0v150l682 1131h-651v165h872v-151l-681 -1130h694v-165h-916zM420 150l354 0.000976562c145.333 0 242.5 27 291.5 81s73.5 131 73.5 231v509c0 147.333 -49.333 243 -148 287
c-56 25.333 -128.333 37.666 -217 36.999h-354v-1145zM218 0.000976562l-0.000976562 1446h574c276.667 0 449.334 -98 518.001 -294c20 -57.333 30 -121.666 30 -192.999v-477c0 -158 -45.5 -277.833 -136.5 -359.5s-227.5 -122.5 -409.5 -122.5h-576z" />
    <glyph glyph-name="uni01C5" unicode="&#x1c5;" horiz-adv-x="2486" 
d="M1968 1243l-205 266h155l124 -174l132 174h161l-217 -266h-150zM1662 0v118l507 818h-489v124h687v-115l-510 -821h519v-124h-714zM420 150l354 0.000976562c145.333 0 242.5 27 291.5 81s73.5 131 73.5 231v509c0 147.333 -49.333 243 -148 287
c-56 25.333 -128.333 37.666 -217 36.999h-354v-1145zM218 0.000976562l-0.000976562 1446h574c276.667 0 449.334 -98 518.001 -294c20 -57.333 30 -121.666 30 -192.999v-477c0 -158 -45.5 -277.833 -136.5 -359.5s-227.5 -122.5 -409.5 -122.5h-576z" />
    <glyph glyph-name="uni01C6" unicode="&#x1c6;" horiz-adv-x="2164" 
d="M1646 1243l-205 266h155l124 -174l132 174h161l-217 -266h-150zM1340 0v118l507 818h-489v124h687v-115l-510 -821h519v-124h-714zM591 1080c85.333 0 163.668 -13.332 235.001 -39.999v466h188v-1506h-128l-31 70c-32.667 -25.333 -75.667 -47 -129 -65
s-106 -27 -158 -27c-144.667 0 -250.834 32.167 -318.501 96.5s-101.5 151.166 -101.5 260.499v400c0 110 36.333 195 109 255s184 90 334 90zM403.502 176.001c45 -33.333 97.834 -50.001 158.501 -50.001c108 0 196 21 264 63v703c-60.667 29.333 -134.334 44 -221.001 44
c-179.333 0 -269 -60 -269 -180v-435c0 -63.333 22.5 -111.666 67.5 -144.999z" />
    <glyph glyph-name="uni01C7" unicode="&#x1c7;" horiz-adv-x="2351" 
d="M1667 -17c-76.667 0 -156.333 9.5 -239 28.5s-143 38.5 -181 58.5l55 155c34 -16 86.333 -32.833 157 -50.5s138 -26.5 202 -26.5c94 0 162.667 24 206 72s65 119.667 65 215v846h-553v165h754v-1015c0 -142 -38.167 -252.167 -114.5 -330.5s-193.5 -117.5 -351.5 -117.5
zM218.001 0v1446h201v-1291h649v-155h-850z" />
    <glyph glyph-name="uni01C8" unicode="&#x1c8;" horiz-adv-x="1747" 
d="M1177 -353l-19.002 155.999h29c68 0 113.333 8.83301 136 26.5s37.334 39.334 44.001 65.001s10 59.5 10 101.5v1064h188v-1053c0 -174 -40 -281.667 -120 -323c-47.333 -24.667 -114.666 -37 -201.999 -37h-66zM1377 1251v195h188v-195h-188zM217.998 -0.000976562v1446
h201v-1291h649v-155h-850z" />
    <glyph glyph-name="uni01C9" unicode="&#x1c9;" horiz-adv-x="1298" 
d="M728 -353l-19.002 155.999h29c68 0 113.333 8.83301 136 26.5s37.334 39.334 44.001 65.001s10 59.5 10 101.5v1064h188v-1053c0 -174 -40 -281.667 -120 -323c-47.333 -24.667 -114.666 -37 -201.999 -37h-66zM927.998 1251v195h188v-195h-188zM529.998 -8.00098
c-62 0 -112.666 4.66602 -151.999 13.999s-74 27 -104 53c-56 48.667 -84 148.334 -84 299.001v1147h188v-1149c0 -85.333 12.667 -141 38 -167s77.666 -39 156.999 -39h33l-22 -158h-54z" />
    <glyph glyph-name="uni01CA" unicode="&#x1ca;" horiz-adv-x="2800" 
d="M2116 -17c-76.667 0 -156.333 9.5 -239 28.5s-143 38.5 -181 58.5l55 155c34 -16 86.333 -32.833 157 -50.5s138 -26.5 202 -26.5c94 0 162.667 24 206 72s65 119.667 65 215v846h-553v165h754v-1015c0 -142 -38.167 -252.167 -114.5 -330.5s-193.5 -117.5 -351.5 -117.5
zM218.001 0v1446h153l828 -1156v1156h177v-1446h-179l-802 1104v-1104h-177z" />
    <glyph glyph-name="uni01CB" unicode="&#x1cb;" horiz-adv-x="2196" 
d="M1626 -353l-19.002 155.999h29c68 0 113.333 8.83301 136 26.5s37.334 39.334 44.001 65.001s10 59.5 10 101.5v1064h188v-1053c0 -174 -40 -281.667 -120 -323c-47.333 -24.667 -114.666 -37 -201.999 -37h-66zM1826 1251v195h188v-195h-188zM217.998 -0.000976562v1446
h153l828 -1156v1156h177v-1446h-179l-802 1104v-1104h-177z" />
    <glyph glyph-name="uni01CC" unicode="&#x1cc;" horiz-adv-x="1828" 
d="M1258 -353l-19.002 155.999h29c68 0 113.333 8.83301 136 26.5s37.334 39.334 44.001 65.001s10 59.5 10 101.5v1064h188v-1053c0 -174 -40 -281.667 -120 -323c-47.333 -24.667 -114.666 -37 -201.999 -37h-66zM1458 1251v195h188v-195h-188zM861.998 780.999
c0 103.333 -79.001 155 -237.001 155c-78 0 -139.333 -16.667 -184 -50s-67 -77 -67 -131v-755h-188v1060h188v-103c70.667 82 175.334 123 314.001 123c180 0 294 -63.333 342 -190c13.333 -36 20 -76 20 -120v-770h-188v781z" />
    <glyph glyph-name="uni01F1" unicode="&#x1f1;" horiz-adv-x="2764" 
d="M1702 0v150l682 1131h-651v165h872v-151l-681 -1130h694v-165h-916zM420 150l354 0.000976562c145.333 0 242.5 27 291.5 81s73.5 131 73.5 231v509c0 147.333 -49.333 243 -148 287c-56 25.333 -128.333 37.666 -217 36.999h-354v-1145zM218 0.000976562
l-0.000976562 1446h574c276.667 0 449.334 -98 518.001 -294c20 -57.333 30 -121.666 30 -192.999v-477c0 -158 -45.5 -277.833 -136.5 -359.5s-227.5 -122.5 -409.5 -122.5h-576z" />
    <glyph glyph-name="uni01F2" unicode="&#x1f2;" horiz-adv-x="2486" 
d="M1662 0v118l507 818h-489v124h687v-115l-510 -821h519v-124h-714zM420 150l354 0.000976562c145.333 0 242.5 27 291.5 81s73.5 131 73.5 231v509c0 147.333 -49.333 243 -148 287c-56 25.333 -128.333 37.666 -217 36.999h-354v-1145zM218 0.000976562
l-0.000976562 1446h574c276.667 0 449.334 -98 518.001 -294c20 -57.333 30 -121.666 30 -192.999v-477c0 -158 -45.5 -277.833 -136.5 -359.5s-227.5 -122.5 -409.5 -122.5h-576z" />
    <glyph glyph-name="uni01F3" unicode="&#x1f3;" horiz-adv-x="2164" 
d="M1340 0v118l507 818h-489v124h687v-115l-510 -821h519v-124h-714zM591 1080c85.333 0 163.668 -13.332 235.001 -39.999v466h188v-1506h-128l-31 70c-32.667 -25.333 -75.667 -47 -129 -65s-106 -27 -158 -27c-144.667 0 -250.834 32.167 -318.501 96.5
s-101.5 151.166 -101.5 260.499v400c0 110 36.333 195 109 255s184 90 334 90zM403.502 176.001c45 -33.333 97.834 -50.001 158.501 -50.001c108 0 196 21 264 63v703c-60.667 29.333 -134.334 44 -221.001 44c-179.333 0 -269 -60 -269 -180v-435
c0 -63.333 22.5 -111.666 67.5 -144.999z" />
    <glyph glyph-name="uni01F4" unicode="&#x1f4;" horiz-adv-x="1556" 
d="M720 1631l120 341h225l-239 -341h-106zM788 -22c-269.333 0 -445.665 66.665 -528.998 199.998c-48.667 78 -73 180.667 -73 308v454c0 206 60 349.667 180 431c95.333 64.667 229.333 97 402 97s299.167 -19.5 379.5 -58.5s133.166 -91 158.499 -156
s38 -144.167 38 -237.5l-184 -15c0 94 -9.16699 156.833 -27.5 188.5s-36 54.167 -53 67.5s-45.667 24.833 -86 34.5s-101.333 14.5 -183 14.5s-145.834 -5.33301 -192.501 -16c-46.667 -10 -88 -27.333 -124 -52c-70.667 -48.667 -106 -135.667 -106 -261v-522
c0 -125.333 33.667 -209.166 101 -251.499s166.5 -63.5 297.5 -63.5s225.667 20.833 284 62.5s87.5 125.834 87.5 252.501v133h-343v147h545v-735h-110l-25 246c-12.667 -83.333 -54.5 -148.833 -125.5 -196.5s-174.833 -71.5 -311.5 -71.5z" />
    <glyph glyph-name="uni01F5" unicode="&#x1f5;" horiz-adv-x="1186" 
d="M526 1243l120 341h225l-239 -341h-106zM295 -227c69.333 -25.333 154.333 -38.001 255 -38.001s171.167 19 211.5 57s60.5 97 60.5 177v147c-27.333 -25.333 -68.166 -44.333 -122.499 -57s-104.166 -19 -149.499 -19c-268 0 -402 113 -402 339v349
c0 110 33.5 196.167 100.5 258.5s167.5 93.5 301.5 93.5c53.333 0 108.166 -11.167 164.499 -33.5s92.166 -46.166 107.499 -71.499v85h188v-1035c0 -127.333 -33.5 -231.333 -100.5 -312s-175.167 -121 -324.5 -121s-260 13.333 -332 40zM822 789.999
c0 97.333 -81 146 -243 146s-243 -62.667 -243 -188v-398c0 -110.667 81 -166 243 -166c95.333 0 176.333 26.667 243 80v526z" />
    <glyph glyph-name="uni0200" unicode="&#x200;" horiz-adv-x="1428" 
d="M504 1631l-296 475h219l200 -475h-123zM826 1631l-219 475h211l106 -475h-98zM86 0l539 1446h177l540 -1446h-205l-98 282h-645l-99 -282h-209zM442 425h551l-274 791z" />
    <glyph glyph-name="uni0201" unicode="&#x201;" horiz-adv-x="1172" 
d="M396 1243l-296 475h219l200 -475h-123zM718 1243l-219 475h211l106 -475h-98zM471 -22c-107.333 0 -190.667 29.165 -250 87.498s-89 130.833 -89 217.5c0 49.333 10.333 90.333 31 123c42 66.667 167.333 130.334 376 191.001c120.667 33.333 190.167 62 208.5 86
s28.5 42.833 30.5 56.5s3 35.5 3 65.5s-12.167 59.333 -36.5 88s-77.166 43 -158.499 43c-114.667 0 -185 -22 -211 -66c-13.333 -22.667 -20 -53.334 -20 -92.001v-47h-181v48c0 103.333 34.5 179.333 103.5 228s172.167 73 309.5 73s235.333 -31.167 294 -93.5
s88 -151.166 88 -266.499v-452c0 -55.333 7 -91.166 21 -107.499s44 -24.5 90 -24.5l-22 -144h-38c-66.667 0 -116.334 12.833 -149.001 38.5s-57.667 65.5 -75 119.5c-55.333 -82.667 -122 -134.667 -200 -156c-37.333 -10.667 -79 -16 -125 -16zM368.499 385.998
c-36.333 -27.333 -54.502 -65.8301 -54.502 -115.497s16.833 -87.167 50.5 -112.5s74.334 -38 122.001 -38s90.834 6.16699 129.501 18.5s73.5 30.666 104.5 54.999s51.167 52.166 60.5 83.499v306c-48.667 -48.667 -120.5 -86.834 -215.5 -114.501
s-160.667 -55.167 -197 -82.5z" />
    <glyph glyph-name="uni0202" unicode="&#x202;" horiz-adv-x="1428" 
d="M488 1631c0 59.333 20.833 109.5 62.5 150.5s96.167 61.5 163.5 61.5s121.833 -20.5 163.5 -61.5s62.5 -91.167 62.5 -150.5h-105c0 33.333 -11.5 61 -34.5 83s-52.333 33 -88 33s-64.5 -10.667 -86.5 -32s-33 -49.333 -33 -84h-105zM86 0l539 1446h177l540 -1446h-205
l-98 282h-645l-99 -282h-209zM442 425h551l-274 791z" />
    <glyph glyph-name="uni0203" unicode="&#x203;" horiz-adv-x="1172" 
d="M380 1243c0 59.333 20.833 109.5 62.5 150.5s96.167 61.5 163.5 61.5s121.833 -20.5 163.5 -61.5s62.5 -91.167 62.5 -150.5h-105c0 33.333 -11.5 61 -34.5 83s-52.333 33 -88 33s-64.5 -10.667 -86.5 -32s-33 -49.333 -33 -84h-105zM471 -22
c-107.333 0 -190.667 29.165 -250 87.498s-89 130.833 -89 217.5c0 49.333 10.333 90.333 31 123c42 66.667 167.333 130.334 376 191.001c120.667 33.333 190.167 62 208.5 86s28.5 42.833 30.5 56.5s3 35.5 3 65.5s-12.167 59.333 -36.5 88s-77.166 43 -158.499 43
c-114.667 0 -185 -22 -211 -66c-13.333 -22.667 -20 -53.334 -20 -92.001v-47h-181v48c0 103.333 34.5 179.333 103.5 228s172.167 73 309.5 73s235.333 -31.167 294 -93.5s88 -151.166 88 -266.499v-452c0 -55.333 7 -91.166 21 -107.499s44 -24.5 90 -24.5l-22 -144h-38
c-66.667 0 -116.334 12.833 -149.001 38.5s-57.667 65.5 -75 119.5c-55.333 -82.667 -122 -134.667 -200 -156c-37.333 -10.667 -79 -16 -125 -16zM368.499 385.998c-36.333 -27.333 -54.502 -65.8301 -54.502 -115.497s16.833 -87.167 50.5 -112.5s74.334 -38 122.001 -38
s90.834 6.16699 129.501 18.5s73.5 30.666 104.5 54.999s51.167 52.166 60.5 83.499v306c-48.667 -48.667 -120.5 -86.834 -215.5 -114.501s-160.667 -55.167 -197 -82.5z" />
    <glyph glyph-name="uni0204" unicode="&#x204;" horiz-adv-x="1255" 
d="M466 1631l-296 475h219l200 -475h-123zM788 1631l-219 475h211l106 -475h-98zM218 0v1446h903v-150h-702v-476h620v-150h-620v-520h714v-150h-915z" />
    <glyph glyph-name="uni0205" unicode="&#x205;" horiz-adv-x="1158" 
d="M367 1243l-296 475h219l200 -475h-123zM689 1243l-219 475h211l106 -475h-98zM589 -22c-155.333 0 -267.663 32.333 -336.996 97s-104 164.334 -104 299.001v369c0 104.667 35.667 187 107 247s179.166 90 323.499 90s251.666 -27.833 321.999 -83.5
s105.5 -135.167 105.5 -238.5v-252h-670v-149c0 -88 17.667 -149.167 53 -183.5s99 -51.5 191 -51.5s144 2 156 6s24.333 8.66699 37 14s21.5 11.666 26.5 18.999s11.667 18.5 20 33.5s14.5 44.167 18.5 87.5h166c-6.66699 -63.333 -17.834 -114.333 -33.501 -153
s-40.334 -69.5 -74.001 -92.5s-74 -38.5 -121 -46.5s-109.167 -12 -186.5 -12zM336.003 633h487.999v145c0 60 -20.5 101.333 -61.5 124s-101.167 34 -180.5 34s-140.166 -13.667 -182.499 -41s-63.5 -72.333 -63.5 -135v-127z" />
    <glyph glyph-name="uni0206" unicode="&#x206;" horiz-adv-x="1255" 
d="M450 1631c0 59.333 20.833 109.5 62.5 150.5s96.167 61.5 163.5 61.5s121.833 -20.5 163.5 -61.5s62.5 -91.167 62.5 -150.5h-105c0 33.333 -11.5 61 -34.5 83s-52.333 33 -88 33s-64.5 -10.667 -86.5 -32s-33 -49.333 -33 -84h-105zM218 0v1446h903v-150h-702v-476h620
v-150h-620v-520h714v-150h-915z" />
    <glyph glyph-name="uni0207" unicode="&#x207;" horiz-adv-x="1158" 
d="M351 1243c0 59.333 20.833 109.5 62.5 150.5s96.167 61.5 163.5 61.5s121.833 -20.5 163.5 -61.5s62.5 -91.167 62.5 -150.5h-105c0 33.333 -11.5 61 -34.5 83s-52.333 33 -88 33s-64.5 -10.667 -86.5 -32s-33 -49.333 -33 -84h-105zM589 -22
c-155.333 0 -267.663 32.333 -336.996 97s-104 164.334 -104 299.001v369c0 104.667 35.667 187 107 247s179.166 90 323.499 90s251.666 -27.833 321.999 -83.5s105.5 -135.167 105.5 -238.5v-252h-670v-149c0 -88 17.667 -149.167 53 -183.5s99 -51.5 191 -51.5
s144 2 156 6s24.333 8.66699 37 14s21.5 11.666 26.5 18.999s11.667 18.5 20 33.5s14.5 44.167 18.5 87.5h166c-6.66699 -63.333 -17.834 -114.333 -33.501 -153s-40.334 -69.5 -74.001 -92.5s-74 -38.5 -121 -46.5s-109.167 -12 -186.5 -12zM336.003 633h487.999v145
c0 60 -20.5 101.333 -61.5 124s-101.167 34 -180.5 34s-140.166 -13.667 -182.499 -41s-63.5 -72.333 -63.5 -135v-127z" />
    <glyph glyph-name="uni0208" unicode="&#x208;" horiz-adv-x="1132" 
d="M356 1631l-296 475h219l200 -475h-123zM678 1631l-219 475h211l106 -475h-98zM190 0v150h276v1147h-276v149h752v-149h-275v-1147h275v-150h-752z" />
    <glyph glyph-name="uni0209" unicode="&#x209;" horiz-adv-x="596" 
d="M90 1243l-296 475h219l200 -475h-123zM412 1243l-219 475h211l106 -475h-98zM206 0v1060h188v-1060h-188z" />
    <glyph glyph-name="uni020A" unicode="&#x20a;" horiz-adv-x="1132" 
d="M340 1631c0 59.333 20.833 109.5 62.5 150.5s96.167 61.5 163.5 61.5s121.833 -20.5 163.5 -61.5s62.5 -91.167 62.5 -150.5h-105c0 33.333 -11.5 61 -34.5 83s-52.333 33 -88 33s-64.5 -10.667 -86.5 -32s-33 -49.333 -33 -84h-105zM190 0v150h276v1147h-276v149h752
v-149h-275v-1147h275v-150h-752z" />
    <glyph glyph-name="uni020B" unicode="&#x20b;" horiz-adv-x="596" 
d="M74 1243c0 59.333 20.833 109.5 62.5 150.5s96.167 61.5 163.5 61.5s121.833 -20.5 163.5 -61.5s62.5 -91.167 62.5 -150.5h-105c0 33.333 -11.5 61 -34.5 83s-52.333 33 -88 33s-64.5 -10.667 -86.5 -32s-33 -49.333 -33 -84h-105zM206 0v1060h188v-1060h-188z" />
    <glyph glyph-name="uni020C" unicode="&#x20c;" horiz-adv-x="1546" 
d="M563 1631l-296 475h219l200 -475h-123zM885 1631l-219 475h211l106 -475h-98zM1069 203.5c60 42.333 90 126.168 90 251.501v523c0 125.333 -30.167 211.333 -90.5 258s-155.833 70 -286.5 70c-202.667 0 -325.667 -56 -369 -168c-16.667 -42.667 -25 -96 -25 -160v-523
c0 -124.667 32.667 -208.334 98 -251.001s163.833 -64 295.5 -64s227.5 21.167 287.5 63.5zM233 221.002c-31.333 74 -47 162.332 -47 264.999v455c0 207.333 58.667 351 176 431c94.667 64 234.667 96 420 96c328 0 515.667 -122 563 -366c10 -51.333 15 -109.333 15 -174
v-428c0 -201.333 -57.667 -342.666 -173 -423.999c-92.667 -65.333 -223.334 -98 -392.001 -98s-296.667 22 -384 66s-146.666 103 -177.999 177z" />
    <glyph glyph-name="uni020D" unicode="&#x20d;" horiz-adv-x="1174" 
d="M377 1243l-296 475h219l200 -475h-123zM699 1243l-219 475h211l106 -475h-98zM587 122c167.333 0 251 59 251 177v459c0 118.667 -83.667 178 -251 178s-251 -59.333 -251 -178v-459c0 -118 83.667 -177 251 -177zM919.5 68.5c-71 -60.333 -182.167 -90.5 -333.5 -90.5
s-262.166 30 -332.499 90s-105.5 142.333 -105.5 247v427c0 104.667 35.167 187.167 105.5 247.5s181.166 90.5 332.499 90.5s262.5 -30.333 333.5 -91s106.5 -143 106.5 -247v-427c0 -104 -35.5 -186.167 -106.5 -246.5z" />
    <glyph glyph-name="uni020E" unicode="&#x20e;" horiz-adv-x="1546" 
d="M547 1631c0 59.333 20.833 109.5 62.5 150.5s96.167 61.5 163.5 61.5s121.833 -20.5 163.5 -61.5s62.5 -91.167 62.5 -150.5h-105c0 33.333 -11.5 61 -34.5 83s-52.333 33 -88 33s-64.5 -10.667 -86.5 -32s-33 -49.333 -33 -84h-105zM1069 203.5
c60 42.333 90 126.168 90 251.501v523c0 125.333 -30.167 211.333 -90.5 258s-155.833 70 -286.5 70c-202.667 0 -325.667 -56 -369 -168c-16.667 -42.667 -25 -96 -25 -160v-523c0 -124.667 32.667 -208.334 98 -251.001s163.833 -64 295.5 -64s227.5 21.167 287.5 63.5z
M233 221.002c-31.333 74 -47 162.332 -47 264.999v455c0 207.333 58.667 351 176 431c94.667 64 234.667 96 420 96c328 0 515.667 -122 563 -366c10 -51.333 15 -109.333 15 -174v-428c0 -201.333 -57.667 -342.666 -173 -423.999
c-92.667 -65.333 -223.334 -98 -392.001 -98s-296.667 22 -384 66s-146.666 103 -177.999 177z" />
    <glyph glyph-name="uni020F" unicode="&#x20f;" horiz-adv-x="1174" 
d="M361 1243c0 59.333 20.833 109.5 62.5 150.5s96.167 61.5 163.5 61.5s121.833 -20.5 163.5 -61.5s62.5 -91.167 62.5 -150.5h-105c0 33.333 -11.5 61 -34.5 83s-52.333 33 -88 33s-64.5 -10.667 -86.5 -32s-33 -49.333 -33 -84h-105zM587 122c167.333 0 251 59 251 177
v459c0 118.667 -83.667 178 -251 178s-251 -59.333 -251 -178v-459c0 -118 83.667 -177 251 -177zM919.5 68.5c-71 -60.333 -182.167 -90.5 -333.5 -90.5s-262.166 30 -332.499 90s-105.5 142.333 -105.5 247v427c0 104.667 35.167 187.167 105.5 247.5
s181.166 90.5 332.499 90.5s262.5 -30.333 333.5 -91s106.5 -143 106.5 -247v-427c0 -104 -35.5 -186.167 -106.5 -246.5z" />
    <glyph glyph-name="uni0210" unicode="&#x210;" horiz-adv-x="1464" 
d="M584 1631l-296 475h219l200 -475h-123zM906 1631l-219 475h211l106 -475h-98zM218 0l-0.000976562 1446h645c199.333 0 324.333 -75.333 375 -226c18.667 -56 28.167 -122.5 28.5 -199.5s-8.5 -141.667 -26.5 -194s-41.167 -92.666 -69.5 -120.999
s-64.166 -51.5 -107.499 -69.5l307 -636h-207l-287 600l-456 -1v-599h-202zM419.999 751.999l426.003 -0.000976562c85.333 0 143.166 23 173.499 69s45.5 111 45.5 195c-0.666992 150.667 -40.334 239.334 -119.001 266.001c-22.667 8 -48.334 11.667 -77.001 11h-449v-541
z" />
    <glyph glyph-name="uni0211" unicode="&#x211;" horiz-adv-x="794" 
d="M254 1243l-296 475h219l200 -475h-123zM576 1243l-219 475h211l106 -475h-98zM186 0v1060h188v-150c24 65.333 89 112.666 195 141.999c55.333 16 113 23.667 173 23l-6 -161c-90.667 0 -173.667 -18 -249 -54s-113 -75.333 -113 -118v-742h-188z" />
    <glyph glyph-name="uni0212" unicode="&#x212;" horiz-adv-x="1464" 
d="M568 1631c0 59.333 20.833 109.5 62.5 150.5s96.167 61.5 163.5 61.5s121.833 -20.5 163.5 -61.5s62.5 -91.167 62.5 -150.5h-105c0 33.333 -11.5 61 -34.5 83s-52.333 33 -88 33s-64.5 -10.667 -86.5 -32s-33 -49.333 -33 -84h-105zM218 0l-0.000976562 1446h645
c199.333 0 324.333 -75.333 375 -226c18.667 -56 28.167 -122.5 28.5 -199.5s-8.5 -141.667 -26.5 -194s-41.167 -92.666 -69.5 -120.999s-64.166 -51.5 -107.499 -69.5l307 -636h-207l-287 600l-456 -1v-599h-202zM419.999 751.999l426.003 -0.000976562
c85.333 0 143.166 23 173.499 69s45.5 111 45.5 195c-0.666992 150.667 -40.334 239.334 -119.001 266.001c-22.667 8 -48.334 11.667 -77.001 11h-449v-541z" />
    <glyph glyph-name="uni0213" unicode="&#x213;" horiz-adv-x="794" 
d="M238 1243c0 59.333 20.833 109.5 62.5 150.5s96.167 61.5 163.5 61.5s121.833 -20.5 163.5 -61.5s62.5 -91.167 62.5 -150.5h-105c0 33.333 -11.5 61 -34.5 83s-52.333 33 -88 33s-64.5 -10.667 -86.5 -32s-33 -49.333 -33 -84h-105zM186 0v1060h188v-150
c24 65.333 89 112.666 195 141.999c55.333 16 113 23.667 173 23l-6 -161c-90.667 0 -173.667 -18 -249 -54s-113 -75.333 -113 -118v-742h-188z" />
    <glyph glyph-name="uni0214" unicode="&#x214;" horiz-adv-x="1538" 
d="M559 1631l-296 475h219l200 -475h-123zM881 1631l-219 475h211l106 -475h-98zM776 -22c-257.333 0 -426.668 68 -508.001 204c-45.333 76 -68 173 -68 291v973h202v-994c0 -181.333 86.667 -283.333 260 -306c34 -4 76 -6 126 -6c102.667 0 186.334 20 251.001 60
s97 124 97 252v994h202v-973c0 -187.333 -55.333 -320.333 -166 -399c-90.667 -64 -222.667 -96 -396 -96z" />
    <glyph glyph-name="uni0215" unicode="&#x215;" horiz-adv-x="1224" 
d="M397 1243l-296 475h219l200 -475h-123zM719 1243l-219 475h211l106 -475h-98zM541 -22c-180.667 0 -295.333 64 -344 192c-14 36.667 -21 76.667 -21 120v770h188v-771c0 -52 19.167 -92.833 57.5 -122.5s95.5 -44.5 171.5 -44.5s137.833 18.833 185.5 56.5
s71.5 81.167 71.5 130.5v751h188v-1060h-168l-20 133c-58.667 -103.333 -161.667 -155 -309 -155z" />
    <glyph glyph-name="uni0216" unicode="&#x216;" horiz-adv-x="1538" 
d="M543 1631c0 59.333 20.833 109.5 62.5 150.5s96.167 61.5 163.5 61.5s121.833 -20.5 163.5 -61.5s62.5 -91.167 62.5 -150.5h-105c0 33.333 -11.5 61 -34.5 83s-52.333 33 -88 33s-64.5 -10.667 -86.5 -32s-33 -49.333 -33 -84h-105zM776 -22
c-257.333 0 -426.668 68 -508.001 204c-45.333 76 -68 173 -68 291v973h202v-994c0 -181.333 86.667 -283.333 260 -306c34 -4 76 -6 126 -6c102.667 0 186.334 20 251.001 60s97 124 97 252v994h202v-973c0 -187.333 -55.333 -320.333 -166 -399
c-90.667 -64 -222.667 -96 -396 -96z" />
    <glyph glyph-name="uni0217" unicode="&#x217;" horiz-adv-x="1224" 
d="M381 1243c0 59.333 20.833 109.5 62.5 150.5s96.167 61.5 163.5 61.5s121.833 -20.5 163.5 -61.5s62.5 -91.167 62.5 -150.5h-105c0 33.333 -11.5 61 -34.5 83s-52.333 33 -88 33s-64.5 -10.667 -86.5 -32s-33 -49.333 -33 -84h-105zM541 -22
c-180.667 0 -295.333 64 -344 192c-14 36.667 -21 76.667 -21 120v770h188v-771c0 -52 19.167 -92.833 57.5 -122.5s95.5 -44.5 171.5 -44.5s137.833 18.833 185.5 56.5s71.5 81.167 71.5 130.5v751h188v-1060h-168l-20 133c-58.667 -103.333 -161.667 -155 -309 -155z" />
    <glyph glyph-name="Scommaaccent" unicode="&#x218;" horiz-adv-x="1304" 
d="M611 -756l-80.999 43.999c65.333 78.667 106.666 146 123.999 202c9.33301 30.667 13.666 61.334 12.999 92.001h-141v233h257v-183c0 -115.333 -40 -225.333 -120 -330c-17.333 -22.667 -34.666 -42 -51.999 -58zM1164 405.999
c0 -285.333 -157.666 -428.001 -472.999 -428.001c-209.333 0 -391.666 45 -546.999 135l71 154c60 -35.333 132.833 -65.333 218.5 -90s169 -37 250 -37s142.167 10.333 183.5 31c74 37.333 111 113.333 111 228c0 47.333 -2.33301 79 -7 95
c-15.333 53.333 -71.666 95.333 -168.999 126l-349 116c-112.667 36.667 -187.834 83.167 -225.501 139.5s-56.5 128.5 -56.5 216.5c0.666992 126.667 47 223.334 139 290.001c79.333 56.667 194.666 85.334 345.999 86.001c215.333 0 377 -33.667 485 -101l-49 -157
c-118.667 64 -252.334 96 -401.001 96c-103.333 0 -182 -13.333 -236 -40s-83 -69.667 -87 -129c-1.33301 -18.667 -2 -35.334 -2 -50.001c0 -48 10.167 -85 30.5 -111s59.833 -49 118.5 -69l364 -123c100 -34 172.5 -78.5 217.5 -133.5s67.5 -136.5 67.5 -244.5z" />
    <glyph glyph-name="scommaaccent" unicode="&#x219;" horiz-adv-x="992" 
d="M465 -756l-80.999 43.999c65.333 78.667 106.666 146 123.999 202c9.33301 30.667 13.666 61.334 12.999 92.001h-141v233h257v-183c0 -115.333 -40 -225.333 -120 -330c-17.333 -22.667 -34.666 -42 -51.999 -58zM503.001 121.999c142 0 212.999 53 212.999 159
c0 46 -6.33301 80.167 -19 102.5s-42.334 42.166 -89.001 59.499l-252 93c-77.333 27.333 -131.166 59.833 -161.499 97.5s-45.5 84.834 -45.5 141.501s5.66699 102.167 17 136.5s30 64.5 56 90.5c52 52 145.333 78 280 78s250.667 -19.333 348 -58l-43 -144
c-34 14 -78.667 27.167 -134 39.5s-103.666 18.5 -144.999 18.5c-95.333 0 -155.666 -15.333 -180.999 -46c-15.333 -19.333 -23 -47.666 -23 -84.999s6.16699 -63.833 18.5 -79.5s36.5 -29.834 72.5 -42.501l249 -98c86.667 -34 143.667 -71.5 171 -112.5
s41 -105.5 41 -193.5s-28.333 -160.167 -85 -216.5s-144.334 -84.5 -263.001 -84.5c-86.667 0 -163.667 9.33301 -231 28s-119 38 -155 58l46 138c95.333 -53.333 200.333 -80 315 -80z" />
    <glyph glyph-name="uni021A" unicode="&#x21a;" horiz-adv-x="1204" 
d="M559 -734l-80.999 43.999c65.333 78.667 106.666 146 123.999 202c9.33301 30.667 13.666 61.334 12.999 92.001h-141v233h257v-183c0 -115.333 -40 -225.333 -120 -330c-17.333 -22.667 -34.666 -42 -51.999 -58zM501.001 -0.000976562v1281h-417v165h1036v-165h-418
v-1281h-201z" />
    <glyph glyph-name="uni021B" unicode="&#x21b;" horiz-adv-x="840" 
d="M359 -742l-80.999 43.999c65.333 78.667 106.666 146 123.999 202c9.33301 30.667 13.666 61.334 12.999 92.001h-141v233h257v-183c0 -115.333 -40 -225.333 -120 -330c-17.333 -22.667 -34.666 -42 -51.999 -58zM676.001 -8.00098
c-148 0 -254.832 23.334 -320.499 70.001s-98.5 127 -98.5 241v615h-177v142h184l23 328h158v-328h266v-142h-266v-603c0 -66.667 19.167 -110.834 57.5 -132.501s105.166 -32.5 200.499 -32.5h21l-20 -158h-28z" />
    <glyph glyph-name="uni0237" unicode="&#x237;" horiz-adv-x="602" 
d="M32 -353l-19.002 155.999h29c68 0 113.333 8.83301 136 26.5s37.334 39.334 44.001 65.001s10 59.5 10 101.5v1064h188v-1053c0 -174 -40 -281.667 -120 -323c-47.333 -24.667 -114.666 -37 -201.999 -37h-66z" />
    <glyph glyph-name="circumflex" unicode="&#x2c6;" horiz-adv-x="512" 
d="M-30 1240l216 266h150l206 -266h-156l-124 174l-132 -174h-160z" />
    <glyph glyph-name="caron" unicode="&#x2c7;" horiz-adv-x="512" 
d="M175 1240l-205 266h155l124 -174l132 174h161l-217 -266h-150z" />
    <glyph glyph-name="uni02C9" unicode="&#x2c9;" horiz-adv-x="513" 
d="M56 1354v152h401v-152h-401z" />
    <glyph glyph-name="breve" unicode="&#x2d8;" horiz-adv-x="512" 
d="M256 1294c-67.333 0 -121.833 20.5 -163.5 61.5s-62.5 91.167 -62.5 150.5h105c0 -33.333 11.5 -61 34.5 -83s52.333 -33 88 -33s64.5 10.667 86.5 32s33 49.333 33 84h105c0 -59.333 -20.833 -109.5 -62.5 -150.5s-96.167 -61.5 -163.5 -61.5z" />
    <glyph glyph-name="dotaccent" unicode="&#x2d9;" horiz-adv-x="512" 
d="M136 1275v231h240v-231h-240z" />
    <glyph glyph-name="ring" unicode="&#x2da;" horiz-adv-x="512" 
d="M256 1215c72.667 0 109 37.667 109 113s-36.333 113 -109 113c-32 0 -58.167 -8.66699 -78.5 -26s-30.5 -46 -30.5 -86c0 -76 36.333 -114 109 -114zM256 1150c-54.667 0 -100.667 15.167 -138 45.5s-56 74.5 -56 132.5s18.667 102.167 56 132.5s83.333 45.5 138 45.5
s100.667 -15.167 138 -45.5s56 -74.5 56 -132.5s-18.667 -102.167 -56 -132.5s-83.333 -45.5 -138 -45.5z" />
    <glyph glyph-name="ogonek" unicode="&#x2db;" horiz-adv-x="513" 
d="M403 -486c-89.333 0 -160.5 17.6689 -213.5 53.002s-79.5 82.666 -79.5 141.999c0 91.333 60.667 188.333 182 291h62c-34 -32.667 -62.5 -72.834 -85.5 -120.501s-34.5 -92.5 -34.5 -134.5c0 -89.333 56.333 -134 169 -134v-97z" />
    <glyph glyph-name="tilde" unicode="&#x2dc;" horiz-adv-x="512" 
d="M455 1277c0 62 -24.667 93 -74 93c-24 0 -54.333 -17.833 -91 -53.5s-85.5 -53.5 -146.5 -53.5s-107 18 -138 54s-46.5 94.333 -46.5 175h97c0 -62 24.667 -93 74 -93c24 0 54.333 17.833 91 53.5s85.5 53.5 146.5 53.5s107 -18 138 -54s46.5 -94.333 46.5 -175h-97z" />
    <glyph glyph-name="hungarumlaut" unicode="&#x2dd;" horiz-adv-x="1024" 
d="M154 1031l106 475h211l-219 -475h-98zM451 1031l200 475h219l-296 -475h-123z" />
    <glyph glyph-name="uni0307" unicode="&#x307;" horiz-adv-x="412" 
d="M108 1277v206h205v-206h-205z" />
    <glyph glyph-name="uni030F" unicode="&#x30f;" horiz-adv-x="1024" 
d="M450 1031l-296 475h219l200 -475h-123zM772 1031l-219 475h211l106 -475h-98z" />
    <glyph glyph-name="uni0311" unicode="&#x311;" horiz-adv-x="512" 
d="M30 1294c0 59.333 20.833 109.5 62.5 150.5s96.167 61.5 163.5 61.5s121.833 -20.5 163.5 -61.5s62.5 -91.167 62.5 -150.5h-105c0 33.333 -11.5 61 -34.5 83s-52.333 33 -88 33s-64.5 -10.667 -86.5 -32s-33 -49.333 -33 -84h-105z" />
    <glyph glyph-name="uni0326" unicode="&#x326;" horiz-adv-x="769" 
d="M341 -664l-80.999 43.999c65.333 78.667 106.666 146 123.999 202c9.33301 30.667 13.666 61.334 12.999 92.001h-141v233h257v-183c0 -115.333 -40 -225.333 -120 -330c-17.333 -22.667 -34.666 -42 -51.999 -58z" />
    <glyph glyph-name="Delta" unicode="&#x394;" horiz-adv-x="1428" 
d="M422 143h591l-294 1053zM1237 0h-1046l434 1446h177z" />
    <glyph glyph-name="uni1E02" unicode="&#x1e02;" horiz-adv-x="1420" 
d="M602 1631v206h205v-206h-205zM218 0l-0.000976562 1446h524c224 0 366 -49.667 426 -149c36 -59.333 54 -142 54 -248c-3.33301 -143.333 -64 -235.333 -182 -276c82.667 -18.667 145.334 -60 188.001 -124s64 -143.333 64 -238
c0 -143.333 -40.333 -247.666 -121 -312.999s-209 -98 -385 -98h-568zM419.999 148.999h351c113.333 0 195.5 18.333 246.5 55s76.5 113 76.5 229c0 175.333 -91.333 263 -274 263h-400v-547zM419.999 832.999h371c86 0 145.833 18 179.5 54s50.5 85 50.5 147
s-4.5 108.667 -13.5 140s-26 56.333 -51 75s-56 31 -93 37s-87.833 9 -152.5 9h-291v-462z" />
    <glyph glyph-name="uni1E03" unicode="&#x1e03;" horiz-adv-x="1204" 
d="M518 1669v206h205v-206h-205zM374 1010c82.667 46.667 182.332 70 298.999 70s209.667 -31 279 -93s104 -145.667 104 -251v-384c0 -110 -38 -199.833 -114 -269.5s-181.333 -104.5 -316 -104.5c-85.333 0 -177.666 31 -276.999 93l-24 -71h-139v1506h188v-496z
M867.998 750c0 124 -78.332 186 -234.999 186c-76.667 0 -163 -22 -259 -66v-682c73.333 -41.333 148.166 -62 224.499 -62s140.333 18.5 192 55.5s77.5 87.167 77.5 150.5v418z" />
    <glyph glyph-name="uni1E0A" unicode="&#x1e0a;" horiz-adv-x="1522" 
d="M676 1631v206h205v-206h-205zM420 150l354 0.000976562c145.333 0 242.5 27 291.5 81s73.5 131 73.5 231v509c0 147.333 -49.333 243 -148 287c-56 25.333 -128.333 37.666 -217 36.999h-354v-1145zM218 0.000976562l-0.000976562 1446h574
c276.667 0 449.334 -98 518.001 -294c20 -57.333 30 -121.666 30 -192.999v-477c0 -158 -45.5 -277.833 -136.5 -359.5s-227.5 -122.5 -409.5 -122.5h-576z" />
    <glyph glyph-name="uni1E0B" unicode="&#x1e0b;" horiz-adv-x="1200" 
d="M478 1669v206h205v-206h-205zM591 1080c85.333 0 163.668 -13.332 235.001 -39.999v466h188v-1506h-128l-31 70c-32.667 -25.333 -75.667 -47 -129 -65s-106 -27 -158 -27c-144.667 0 -250.834 32.167 -318.501 96.5s-101.5 151.166 -101.5 260.499v400
c0 110 36.333 195 109 255s184 90 334 90zM403.502 176.001c45 -33.333 97.834 -50.001 158.501 -50.001c108 0 196 21 264 63v703c-60.667 29.333 -134.334 44 -221.001 44c-179.333 0 -269 -60 -269 -180v-435c0 -63.333 22.5 -111.666 67.5 -144.999z" />
    <glyph glyph-name="uni1E1E" unicode="&#x1e1e;" horiz-adv-x="1159" 
d="M526 1631v206h205v-206h-205zM218 0v1446h821v-150h-620v-482h584v-150h-584v-664h-201z" />
    <glyph glyph-name="uni1E1F" unicode="&#x1e1f;" horiz-adv-x="790" 
d="M374 1669v206h205v-206h-205zM287 0v918h-177v142h177v161c0 98 26.833 169.833 80.5 215.5s135.5 68.5 245.5 68.5h119l12 -133h-116c-102 0 -153 -44.333 -153 -133v-179h257v-142h-257v-918h-188z" />
    <glyph glyph-name="uni1E40" unicode="&#x1e40;" horiz-adv-x="1778" 
d="M786 1631v206h205v-206h-205zM218 0v1446h185l487 -808l492 808h178v-1446h-190v1121l-405 -663h-149l-406 659v-1117h-192z" />
    <glyph glyph-name="uni1E41" unicode="&#x1e41;" horiz-adv-x="1860" 
d="M832 1243v206h205v-206h-205zM844 781c0 103.333 -76.334 155 -229.001 155c-77.333 0 -136.833 -16.5 -178.5 -49.5s-62.5 -76.833 -62.5 -131.5v-755h-188v1060h188v-103c70.667 82 176.834 123 318.501 123s240.5 -46.333 296.5 -139l25 24
c76.667 76.667 184 115 322 115c178 0 288 -63.333 330 -190c12 -36 18 -76 18 -120v-770h-188v781c0 103.333 -69.333 155 -208 155c-87.333 0 -151.833 -16.5 -193.5 -49.5s-62.5 -76.833 -62.5 -131.5v-755h-188v781z" />
    <glyph glyph-name="uni1E56" unicode="&#x1e56;" horiz-adv-x="1326" 
d="M606 1631v206h205v-206h-205zM218 0l0.000976562 1446h578c268 0 402 -151.667 402 -455c0 -165.333 -34.833 -283.666 -104.5 -354.999s-169.834 -107 -300.501 -107h-373v-529h-202zM420.001 681.999l377 -0.000976562c118 0 183 68.667 195 206
c2.66699 25.333 4 55.333 4 90c0 116.667 -15.833 198.334 -47.5 245.001s-80.5 70 -146.5 70h-382v-611z" />
    <glyph glyph-name="uni1E57" unicode="&#x1e57;" horiz-adv-x="1198" 
d="M516 1243v206h205v-206h-205zM186 -408l0.00195312 1468h148l22 -80c30.667 27.333 72.667 50.833 126 70.5s108.666 29.5 165.999 29.5c131.333 0 231.166 -32 299.499 -96s102.5 -149 102.5 -255v-385c0 -109.333 -37.333 -197.666 -112 -264.999
s-179.334 -101 -314.001 -101c-93.333 0 -176.666 18.667 -249.999 56v-442h-188zM374.002 178.999c67.333 -38 142.667 -56.999 226 -56.999s147.833 17.667 193.5 53s68.5 85 68.5 149v420c0 61.333 -22.5 108.666 -67.5 141.999s-100 50 -165 50
s-120.333 -13.333 -166 -40s-75.5 -50.667 -89.5 -72v-645z" />
    <glyph glyph-name="uni1E60" unicode="&#x1e60;" horiz-adv-x="1304" 
d="M552 1631v206h205v-206h-205zM1164 406c0 -285.333 -157.666 -428.001 -472.999 -428.001c-209.333 0 -391.666 45 -546.999 135l71 154c60 -35.333 132.833 -65.333 218.5 -90s169 -37 250 -37s142.167 10.333 183.5 31c74 37.333 111 113.333 111 228
c0 47.333 -2.33301 79 -7 95c-15.333 53.333 -71.666 95.333 -168.999 126l-349 116c-112.667 36.667 -187.834 83.167 -225.501 139.5s-56.5 128.5 -56.5 216.5c0.666992 126.667 47 223.334 139 290.001c79.333 56.667 194.666 85.334 345.999 86.001
c215.333 0 377 -33.667 485 -101l-49 -157c-118.667 64 -252.334 96 -401.001 96c-103.333 0 -182 -13.333 -236 -40s-83 -69.667 -87 -129c-1.33301 -18.667 -2 -35.334 -2 -50.001c0 -48 10.167 -85 30.5 -111s59.833 -49 118.5 -69l364 -123
c100 -34 172.5 -78.5 217.5 -133.5s67.5 -136.5 67.5 -244.5z" />
    <glyph glyph-name="uni1E61" unicode="&#x1e61;" horiz-adv-x="992" 
d="M406 1243v206h205v-206h-205zM503 122c142 0 212.999 53 212.999 159c0 46 -6.33301 80.167 -19 102.5s-42.334 42.166 -89.001 59.499l-252 93c-77.333 27.333 -131.166 59.833 -161.499 97.5s-45.5 84.834 -45.5 141.501s5.66699 102.167 17 136.5s30 64.5 56 90.5
c52 52 145.333 78 280 78s250.667 -19.333 348 -58l-43 -144c-34 14 -78.667 27.167 -134 39.5s-103.666 18.5 -144.999 18.5c-95.333 0 -155.666 -15.333 -180.999 -46c-15.333 -19.333 -23 -47.666 -23 -84.999s6.16699 -63.833 18.5 -79.5s36.5 -29.834 72.5 -42.501
l249 -98c86.667 -34 143.667 -71.5 171 -112.5s41 -105.5 41 -193.5s-28.333 -160.167 -85 -216.5s-144.334 -84.5 -263.001 -84.5c-86.667 0 -163.667 9.33301 -231 28s-119 38 -155 58l46 138c95.333 -53.333 200.333 -80 315 -80z" />
    <glyph glyph-name="uni1E6A" unicode="&#x1e6a;" horiz-adv-x="1204" 
d="M500 1631v206h205v-206h-205zM501 0v1281h-417v165h1036v-165h-418v-1281h-201z" />
    <glyph glyph-name="uni1E6B" unicode="&#x1e6b;" horiz-adv-x="840" 
d="M300 1551v206h205v-206h-205zM676 -8c-148 0 -254.832 23.334 -320.499 70.001s-98.5 127 -98.5 241v615h-177v142h184l23 328h158v-328h266v-142h-266v-603c0 -66.667 19.167 -110.834 57.5 -132.501s105.166 -32.5 200.499 -32.5h21l-20 -158h-28z" />
    <glyph glyph-name="Wgrave" unicode="&#x1e80;" horiz-adv-x="2048" 
d="M971 1631l-257 341h225l138 -341h-106zM522 0l-410 1446h184l307 -1100l315 1100h215l329 -1100l291 1100h183l-394 -1446h-152l-353 1232l-363 -1232h-152z" />
    <glyph glyph-name="wgrave" unicode="&#x1e81;" horiz-adv-x="1614" 
d="M754 1243l-257 341h225l138 -341h-106zM357 0l-305 1060h172l235 -832l255 832h181l266 -832l227 832h174l-310 -1060h-175l-271 845l-271 -845h-178z" />
    <glyph glyph-name="Wacute" unicode="&#x1e82;" horiz-adv-x="2048" 
d="M971 1631l120 341h225l-239 -341h-106zM522 0l-410 1446h184l307 -1100l315 1100h215l329 -1100l291 1100h183l-394 -1446h-152l-353 1232l-363 -1232h-152z" />
    <glyph glyph-name="wacute" unicode="&#x1e83;" horiz-adv-x="1614" 
d="M754 1243l120 341h225l-239 -341h-106zM357 0l-305 1060h172l235 -832l255 832h181l266 -832l227 832h174l-310 -1060h-175l-271 845l-271 -845h-178z" />
    <glyph glyph-name="Wdieresis" unicode="&#x1e84;" horiz-adv-x="2048" 
d="M670 1631v181h206v-181h-206zM1173 1631v181h206v-181h-206zM522 0l-410 1446h184l307 -1100l315 1100h215l329 -1100l291 1100h183l-394 -1446h-152l-353 1232l-363 -1232h-152z" />
    <glyph glyph-name="wdieresis" unicode="&#x1e85;" horiz-adv-x="1614" 
d="M452 1243v181h206v-181h-206zM955 1243v181h206v-181h-206zM357 0l-305 1060h172l235 -832l255 832h181l266 -832l227 832h174l-310 -1060h-175l-271 845l-271 -845h-178z" />
    <glyph glyph-name="Ygrave" unicode="&#x1ef2;" horiz-adv-x="1318" 
d="M606 1631l-257 341h225l138 -341h-106zM560 0v568l-512 878h213l400 -702l402 702h207l-509 -878v-568h-201z" />
    <glyph glyph-name="ygrave" unicode="&#x1ef3;" horiz-adv-x="1118" 
d="M515 1243l-257 341h225l138 -341h-106zM198 -406v147.001c82.667 0 149.5 20.333 200.5 61s89.167 108 114.5 202l-437 1056h199l324 -844l271 844h190l-348 -1015c-46 -134 -87.5 -226.833 -124.5 -278.5s-72.5 -87.834 -106.5 -108.501
c-70 -42.667 -164.333 -64 -283 -64z" />
    <glyph glyph-name="endash" unicode="&#x2013;" horiz-adv-x="539" 
d="M2 606v126h533v-126h-533z" />
    <glyph glyph-name="emdash" unicode="&#x2014;" horiz-adv-x="1101" 
d="M2 402v146h1096v-146h-1096z" />
    <glyph glyph-name="quoteleft" unicode="&#x2018;" horiz-adv-x="769" 
d="M428 1468l80.999 -43.999c-65.333 -78.667 -106.666 -146 -123.999 -202c-9.33301 -30.667 -13.666 -61.334 -12.999 -92.001h141v-233h-257v183c0 115.333 40 225.333 120 330c17.333 22.667 34.666 42 51.999 58z" />
    <glyph glyph-name="quoteright" unicode="&#x2019;" horiz-adv-x="769" 
d="M341 897l-80.999 43.999c65.333 78.667 106.666 146 123.999 202c9.33301 30.667 13.666 61.334 12.999 92.001h-141v233h257v-183c0 -115.333 -40 -225.333 -120 -330c-17.333 -22.667 -34.666 -42 -51.999 -58z" />
    <glyph glyph-name="quotesinglbase" unicode="&#x201a;" horiz-adv-x="769" 
d="M341 -338l-80.999 43.999c65.333 78.667 106.666 146 123.999 202c9.33301 30.667 13.666 61.334 12.999 92.001h-141v233h257v-183c0 -115.333 -40 -225.333 -120 -330c-17.333 -22.667 -34.666 -42 -51.999 -58z" />
    <glyph glyph-name="quotedblleft" unicode="&#x201c;" horiz-adv-x="1181" 
d="M428 1468l80.999 -43.999c-65.333 -78.667 -106.666 -146 -123.999 -202c-9.33301 -30.667 -13.666 -61.334 -12.999 -92.001h141v-233h-257v183c0 115.333 40 225.333 120 330c17.333 22.667 34.666 42 51.999 58zM839.999 1468l80.999 -43.999
c-65.333 -78.667 -106.666 -146 -123.999 -202c-9.33301 -30.667 -13.666 -61.334 -12.999 -92.001h141v-233h-257v183c0 115.333 40 225.333 120 330c17.333 22.667 34.666 42 51.999 58z" />
    <glyph glyph-name="quotedblright" unicode="&#x201d;" horiz-adv-x="1181" 
d="M341 897l-80.999 43.999c65.333 78.667 106.666 146 123.999 202c9.33301 30.667 13.666 61.334 12.999 92.001h-141v233h257v-183c0 -115.333 -40 -225.333 -120 -330c-17.333 -22.667 -34.666 -42 -51.999 -58zM753.001 896.999l-80.999 43.999
c65.333 78.667 106.666 146 123.999 202c9.33301 30.667 13.666 61.334 12.999 92.001h-141v233h257v-183c0 -115.333 -40 -225.333 -120 -330c-17.333 -22.667 -34.666 -42 -51.999 -58z" />
    <glyph glyph-name="quotedblbase" unicode="&#x201e;" horiz-adv-x="1181" 
d="M753 -338l-80.999 43.999c65.333 78.667 106.666 146 123.999 202c9.33301 30.667 13.666 61.334 12.999 92.001h-141v233h257v-183c0 -115.333 -40 -225.333 -120 -330c-17.333 -22.667 -34.666 -42 -51.999 -58zM341.001 -338.001l-80.999 43.999
c65.333 78.667 106.666 146 123.999 202c9.33301 30.667 13.666 61.334 12.999 92.001h-141v233h257v-183c0 -115.333 -40 -225.333 -120 -330c-17.333 -22.667 -34.666 -42 -51.999 -58z" />
    <glyph glyph-name="dagger" unicode="&#x2020;" horiz-adv-x="890" 
d="M348 0v931h-260v129h260v386h188v-386h266v-129h-266v-931h-188z" />
    <glyph glyph-name="daggerdbl" unicode="&#x2021;" horiz-adv-x="938" 
d="M372 0v409h-260v129h260v393h-260v129h260v386h188v-386h266v-129h-266v-393h266v-129h-266v-409h-188z" />
    <glyph glyph-name="bullet" unicode="&#x2022;" horiz-adv-x="975" 
d="M723 373c-48 -50 -126.835 -75 -236.502 -75s-188.167 24.833 -235.5 74.5s-71 125.167 -71 226.5s23.833 177 71.5 227s126.334 75 236.001 75s188.334 -25 236.001 -75s71.5 -125.5 71.5 -226.5s-24 -176.5 -72 -226.5z" />
    <glyph glyph-name="ellipsis" unicode="&#x2026;" horiz-adv-x="1884" 
d="M1442 0v242h256v-242h-256zM814 0v242h256v-242h-256zM186 0v242h256v-242h-256z" />
    <glyph glyph-name="perthousand" unicode="&#x2030;" horiz-adv-x="2886" 
d="M507 774c75.333 0 122.335 33 141.002 99c10.667 36 16 85 16 147v93c0 98.667 -12.833 162 -38.5 190s-58.834 42 -99.501 42c-40.667 0.666992 -70.667 -3 -90 -11c-36.667 -14.667 -59.834 -40.167 -69.501 -76.5s-14.5 -83.833 -14.5 -142.5v-95
c0 -100 12.833 -166 38.5 -198s64.5 -48 116.5 -48zM740.002 755.5c-46 -65 -123.499 -97.5 -232.499 -97.5s-186 32.5 -231 97.5s-67.5 158.833 -67.5 281.5v53c0 124 22.167 216.833 66.5 278.5s122.166 92.5 233.499 92.5s188.833 -31.667 232.5 -95
s66.167 -155 67.5 -275v-54c0 -122.667 -23 -216.5 -69 -281.5zM1611 97c75.333 0 122.335 33 141.002 99c10.667 36 16 85 16 147v93c0 98.667 -12.833 162 -38.5 190s-58.834 42 -99.501 42s-70.667 -4 -90 -12c-36.667 -14.667 -59.834 -40 -69.501 -76
s-14.5 -83.333 -14.5 -142v-95c0 -100 12.833 -166 38.5 -198s64.5 -48 116.5 -48zM1844 78.5c-46 -65 -123.499 -97.5 -232.499 -97.5s-186 32.5 -231 97.5s-67.5 158.833 -67.5 281.5v53c0 124 22.167 216.833 66.5 278.5s122.166 92.5 233.499 92.5
s188.833 -31.667 232.5 -95s66.167 -155 67.5 -275v-54c0 -122.667 -23 -216.5 -69 -281.5zM2390.01 97c76 0 123.333 33 142 99c10.667 36 15.667 85 15 147v93c0 98.667 -12.833 162 -38.5 190s-58.834 42 -99.5 42c-40.667 0 -70.667 -4 -90 -12
c-36.667 -14.667 -59.834 -40 -69.5 -76c-9.66699 -36 -14.5 -83.333 -14.5 -142v-95c0 -100 12.833 -166 38.5 -198s64.5 -48 116.5 -48zM2623.01 78.5c-46 -65 -123.5 -97.5 -232.5 -97.5s-186 32.5 -231 97.5s-67.5 158.833 -67.5 281.5v53
c0 124 22.167 216.833 66.5 278.5s122.166 92.5 233.5 92.5c111.333 0 188.833 -31.667 232.5 -95s66.167 -155 67.5 -275v-54c0 -122.667 -23 -216.5 -69 -281.5zM705.006 0l543 1446h149l-538 -1446h-154z" />
    <glyph glyph-name="guilsinglleft" unicode="&#x2039;" horiz-adv-x="768" 
d="M454 80l-280 450l273 450l147 -70l-207 -380l207 -380z" />
    <glyph glyph-name="guilsinglright" unicode="&#x203a;" horiz-adv-x="768" 
d="M327 80l-147 70l207 380l-207 380l140 70l280 -450z" />
    <glyph glyph-name="fraction" unicode="&#x2044;" horiz-adv-x="768" 
d="M16 0l553 1506h183l-549 -1506h-187z" />
    <glyph glyph-name="uni2074" unicode="&#x2074;" horiz-adv-x="1267" 
d="M689 614v207h-434v92l359 593h141l-348 -594h282v235h113v-235h144v-91h-144v-207h-113z" />
    <glyph glyph-name="Euro" unicode="&#x20ac;" horiz-adv-x="1460" 
d="M225 219.5c-28.667 73.667 -43.0029 162.5 -43.0029 266.5v19h-181v134h181v180h-181v134h181c2 204 56.667 343.333 164 418c92.667 64.667 227.5 97 404.5 97s305.5 -24.5 385.5 -73.5s130 -125.833 150 -230.5c9.33301 -46.667 14 -102.334 14 -167.001l-191 -17
c0 97.333 -8.33301 163.166 -25 197.499s-33.167 58.833 -49.5 73.5s-43.166 27.5 -80.499 38.5s-95.666 16.5 -174.999 16.5s-141.666 -5.33301 -186.999 -16c-45.333 -10 -84 -27.333 -116 -52c-61.333 -47.333 -92 -134.333 -92 -261v-24h359v-134h-359v-180h359v-134
h-359v-50c0 -125.333 31 -209.166 93 -251.499s160.833 -63.5 296.5 -63.5s222.167 16 259.5 48s60.333 78.667 69 140c4.66699 33.333 7 73.333 7 120h191c0 -145.333 -21 -247.333 -63 -306c-77.333 -109.333 -224.333 -164 -441 -164c-182 0 -315.5 21.833 -400.5 65.5
s-141.833 102.334 -170.5 176.001z" />
    <glyph glyph-name="trademark" unicode="&#x2122;" horiz-adv-x="1843" 
d="M845 766v680h198l184 -413l186 413h196v-680h-127v563l-172 -398h-161l-179 398v-563h-125zM345 766v566h-212v114h559v-114h-212v-566h-135z" />
    <glyph glyph-name="uni2206" unicode="&#x2206;" horiz-adv-x="1104" 
d="M82 350v124l398 1031h170l372 -1031v-124h-940zM263 494h583l-279 841z" />
    <glyph glyph-name="product" unicode="&#x220f;" horiz-adv-x="1792" 
d="M660 319v834h322c171.333 0 259 -81.667 263 -245v-14c0 -75.333 -20.5 -134.5 -61.5 -177.5s-112.5 -64.5 -214.5 -64.5h-178v-333h-131zM791 742h186.001c89.333 0 134.666 45 135.999 135v24c0 107.333 -42.333 161 -127 161h-195v-320zM574.501 165.5
c96.333 -55.667 204.333 -83.4971 324 -83.4971s227.5 27.833 323.5 83.5s170.667 132.167 224 229.5s80 206.166 80 326.499s-26.667 229.166 -80 326.499s-128 173.833 -224 229.5s-203.833 83.5 -323.5 83.5s-227.667 -27.833 -324 -83.5s-171.333 -132.167 -225 -229.5
s-80.5 -206 -80.5 -326s26.833 -228.833 80.5 -326.5s128.667 -174.334 225 -230.001zM1186.5 42.5029c-91 -37.667 -196.167 -56.5 -315.5 -56.5s-235.166 32 -347.499 96s-201 152.333 -266 265s-97.5 237.5 -97.5 374.5s32.5 261.667 97.5 374s153.667 200.5 266 264.5
s236.666 96 372.999 96s260.833 -32 373.5 -96s201.167 -152.167 265.5 -264.5s96.5 -228.5 96.5 -348.5s-19 -225.5 -57 -316.5s-89.5 -169 -154.5 -234s-143 -116.333 -234 -154z" />
    <glyph glyph-name="minus" unicode="&#x2212;" horiz-adv-x="911" 
d="M142 439v170h627v-170h-627z" />
    <glyph glyph-name="uni2215" unicode="&#x2215;" horiz-adv-x="768" 
d="M521 1506h183l-453 -1506h-187z" />
    <glyph glyph-name="uni2219" unicode="&#x2219;" horiz-adv-x="412" 
d="M108 1277v206h205v-206h-205z" />
    <glyph glyph-name="infinity" unicode="&#x221e;" horiz-adv-x="1650" 
d="M376 616c22 0 61.333 17.666 118 52.999s108 71 154 107l69 53c-71.333 52.667 -140.5 98.834 -207.5 138.501s-111.5 59.5 -133.5 59.5c-49.333 0 -87.666 -20.333 -114.999 -61s-41 -89 -41 -145s13.667 -104.167 41 -144.5s65.666 -60.5 114.999 -60.5zM236.5 1129.5
c39.667 19 80.166 28.5 121.499 28.5c74.667 0 153 -24 235 -72s147.333 -91.333 196 -130l29 -23l32 24c108 82 212.667 141 314 177c45.333 16 84.333 24 117 24c64.667 0 120.667 -16.667 168 -50s82 -75.166 104 -125.499s33 -104.5 33 -162.5s-11 -111.833 -33 -161.5
s-56.667 -91 -104 -124s-103.333 -49.5 -168 -49.5c-83.333 0 -200.333 54 -351 162c-34.667 24.667 -62 45.667 -82 63l-30 26c-117.333 -106.667 -228.333 -181.334 -333 -224.001c-44 -18 -82.667 -27 -116 -27c-64.667 0 -120.667 16.667 -168 50
c-91.333 64 -137 159.667 -137 287c0 88 25.333 165 76 231c24.667 32 56.834 57.5 96.501 76.5zM1261 1027c-22 0 -61.501 -16.832 -118.501 -50.499s-108.5 -67.167 -154.5 -100.5l-69 -50c60.667 -48.667 127.334 -95.834 200.001 -141.501s120 -68.5 142 -68.5
c49.333 0 87.666 20.167 114.999 60.5s41 88.5 41 144.5s-13.667 104.333 -41 145s-65.666 61 -114.999 61z" />
    <glyph glyph-name="integral" unicode="&#x222b;" horiz-adv-x="890" 
d="M251 -380c-36 0 -72.666 2.33203 -109.999 6.99902v124c11.333 -1.33301 35.666 -2 72.999 -2c80 0 119.667 41.333 119 124v1286c0 110.667 20 189.834 60 237.501s111 71.5 213 71.5c31.333 0 66 -2 104 -6v-124c-8 0.666992 -23.333 1 -46 1
c-56.667 0 -94.667 -14.833 -114 -44.5s-29 -67.5 -29 -113.5v-1280c0 -97.333 -20.5 -168.5 -61.5 -213.5s-110.5 -67.5 -208.5 -67.5z" />
    <glyph glyph-name="approxequal" unicode="&#x2248;" horiz-adv-x="881" 
d="M470 839.5c68.667 -39 115.334 -58.5 140.001 -58.5c73.333 0 110 34.333 110 103h97c0 -79.333 -20.333 -140.666 -61 -183.999s-90.334 -65 -149.001 -65c-58 0 -142.333 29.333 -253 88c-36 19.333 -63.667 29 -83 29c-73.333 0 -110 -34.333 -110 -103h-97
c0 79.333 20.333 140.666 61 183.999s91.167 65 151.5 65s124.833 -19.5 193.5 -58.5zM470 1145.5c68.667 -39 115.334 -58.5 140.001 -58.5c73.333 0 110 34.333 110 103h97c0 -79.333 -20.333 -140.666 -61 -183.999s-90.334 -65 -149.001 -65
c-58 0 -142.333 29.333 -253 88c-36 19.333 -63.667 29 -83 29c-73.333 0 -110 -34.333 -110 -103h-97c0 79.333 20.333 140.666 61 183.999s91.167 65 151.5 65s124.833 -19.5 193.5 -58.5z" />
    <glyph glyph-name="notequal" unicode="&#x2260;" 
d="M258 0l553 1506h183l-549 -1506h-187zM224 467v148h802v-148h-802zM224 805v148h802v-148h-802z" />
    <glyph glyph-name="lessequal" unicode="&#x2264;" 
d="M1042 0l-886 471v201l886 472v-203l-731 -368l731 -364v-209zM142 -252v150h901v-150h-901z" />
    <glyph glyph-name="greaterequal" unicode="&#x2265;" 
d="M208 0v203l731 368l-731 364v209l886 -471v-201zM172 -242v150h901v-150h-901z" />
    <glyph glyph-name="lozenge" unicode="&#x25ca;" horiz-adv-x="1104" 
d="M480 0l-364 725l364 721h170l338 -721l-338 -725h-170zM567 160l247 565l-247 551l-272 -551z" />
    <glyph glyph-name="uniFB00" unicode="&#xfb00;" horiz-adv-x="1542" 
d="M1039 0v918h-564v-918h-188v918h-177v142h177v161c0 98 26.833 169.833 80.5 215.5s135.5 68.5 245.5 68.5h119l12 -133h-116c-102 0 -153 -44.333 -153 -133v-179h564v161c0 98 26.833 169.833 80.5 215.5s135.5 68.5 245.5 68.5h119l12 -133h-116
c-102 0 -153 -44.333 -153 -133v-179h257v-142h-257v-918h-188z" />
    <glyph glyph-name="uniFB03" unicode="&#xfb03;" horiz-adv-x="2176" 
d="M1786 1251v195h188v-195h-188zM1077 0v918h-602v-918h-188v918h-177v142h177v161c0 98 26.833 169.833 80.5 215.5s135.5 68.5 245.5 68.5h119l12 -133h-116c-102 0 -153 -44.333 -153 -133v-179h602v161c0 98 26.833 169.833 80.5 215.5s135.5 68.5 245.5 68.5h119
l12 -133h-116c-102 0 -153 -44.333 -153 -133v-179h709v-1060h-188v918h-521v-918h-188z" />
    <glyph glyph-name="uniFB04" unicode="&#xfb04;" horiz-adv-x="2225" 
d="M2059 -8c-62 0 -112.666 4.66602 -151.999 13.999s-74 27 -104 53c-56 48.667 -84 148.334 -84 299.001v1014h-352c-102 0 -153 -44.333 -153 -133v-179h257v-142h-257v-918h-188v918h-551v-918h-188v918h-177v142h177v161c0 98 26.833 169.833 80.5 215.5
s135.5 68.5 245.5 68.5h119l12 -133h-116c-102 0 -153 -44.333 -153 -133v-179h551v161c0 98 26.833 169.833 80.5 215.5s135.5 68.5 245.5 68.5h555v-1149c0 -85.333 12.667 -141 38 -167s77.666 -39 156.999 -39h33l-22 -158h-54z" />
    <glyph glyph-name="glyph1" horiz-adv-x="0" 
 />
    <glyph glyph-name="glyph2" horiz-adv-x="682" 
 />
    </font>
</defs>
</svg>
